<svg width="1440" height="802" viewBox="0 0 1440 802" fill="none" xmlns="http://www.w3.org/2000/svg">
<g clip-path="url(#clip0_3_871)">
<rect width="1440" height="802" fill="white"/>
<g clip-path="url(#clip1_3_871)">
<rect width="1440" height="3527" fill="#011F19"/>
<rect x="1" width="1439" height="198" fill="url(#paint0_linear_3_871)"/>
<path opacity="0.5" fill-rule="evenodd" clip-rule="evenodd" d="M-232.258 552.947C-229.093 551.505 -225.766 552.726 -224.371 555.842C-222.998 558.914 -224.335 562.187 -227.552 563.622C-230.633 564.999 -234.064 563.815 -235.474 560.89C-236.896 557.935 -235.469 554.411 -232.258 552.947ZM-210.109 547.514C-207.267 546.303 -203.562 547.732 -202.379 550.484C-201.405 552.749 -202.435 556.872 -205.325 558.193C-208.19 559.503 -212.045 558.344 -213.034 555.102C-214.457 551.929 -213.273 548.86 -210.109 547.514ZM-20.0906 226.379C-18.6901 229.455 -15.6521 230.647 -12.611 229.314C-9.75805 228.063 -8.31796 224.386 -9.58669 221.595C-10.8518 218.813 -14.5814 217.483 -17.3942 218.81C-20.3931 220.227 -21.49 223.306 -20.0906 226.379ZM-32.2884 338.758C-29.5767 337.519 -26.143 338.752 -24.8193 341.442C-23.466 344.189 -24.7678 347.806 -27.5684 349.085C-30.2785 350.324 -33.7136 349.09 -35.0375 346.402C-36.3892 343.655 -35.0891 340.037 -32.2884 338.758ZM-14.4514 292.594C-15.7071 289.805 -19.2495 288.467 -22.0454 289.725C-24.8359 290.98 -26.1747 294.523 -24.915 297.319C-23.6609 300.107 -20.1185 301.446 -17.321 300.188C-14.5321 298.932 -13.1934 295.39 -14.4514 292.594ZM-189.065 542.18C-186.367 540.71 -182.414 542.077 -181.299 544.838C-180.014 548.015 -181.75 551.488 -184.805 552.703C-187.266 553.68 -190.237 552.339 -191.562 549.455C-193.039 546.068 -191.975 543.768 -189.065 542.18ZM-4.36491 243.069C-5.7344 240.085 -8.38411 239.117 -11.4329 240.49C-14.7984 242.005 -15.9042 244.654 -14.4651 247.75C-13.096 250.692 -10.4355 251.676 -7.47144 250.337C-3.97851 248.758 -2.90539 246.25 -4.36491 243.069ZM-6.68745 169.559C-3.85322 168.222 -0.900623 169.218 0.425569 171.958C1.7781 174.755 0.777281 177.735 -1.96456 179.076C-5.09492 180.606 -8.49248 179.543 -9.68285 176.661C-10.8375 173.862 -9.60203 170.933 -6.68745 169.559ZM-5.14956 150.851C-6.44019 147.996 -9.21546 146.901 -12.0583 148.129C-15.3536 149.552 -16.6309 152.404 -15.317 155.404C-14.1203 158.133 -11.0395 159.272 -8.20331 158.033C-4.94985 156.612 -3.78378 153.871 -5.14956 150.851ZM-121.859 506.053C-120.511 509.058 -121.695 511.808 -124.949 513.222C-127.754 514.442 -130.894 513.263 -132.047 510.559C-133.341 507.526 -132.069 504.719 -128.754 503.296C-125.916 502.077 -123.144 503.186 -121.859 506.053ZM-19.4156 114.215C-16.2929 112.837 -15.1064 110.136 -16.3473 107.237C-17.6446 104.214 -20.4449 103.076 -23.4022 104.37C-26.6585 105.798 -27.9385 108.758 -26.5651 111.683C-25.2697 114.439 -22.3019 115.49 -19.4156 114.215ZM-5.5358 262.257C-2.70745 260.971 0.221252 262.039 1.51344 264.828C2.81069 267.628 1.74465 270.567 -1.04788 271.88C-4.08006 273.309 -7.26746 272.317 -8.59245 269.536C-9.9007 266.788 -8.57955 263.641 -5.5358 262.257ZM-9.14783 314.163C-10.4257 311.278 -13.1909 310.138 -16.0176 311.335C-19.376 312.758 -20.6347 315.464 -19.3819 318.573C-18.3033 321.248 -15.0713 322.497 -12.307 321.306C-9.03736 319.899 -7.82437 317.155 -9.14783 314.163ZM-10.5143 128.92C-9.19084 131.911 -10.4036 134.654 -13.6734 136.062C-16.4375 137.252 -19.6698 136.004 -20.7482 133.328C-22.001 130.219 -20.7422 127.513 -17.3841 126.092C-14.5574 124.895 -11.792 126.033 -10.5143 128.92ZM-51.8314 418.349C-53.1097 415.311 -55.9193 414.135 -58.8548 415.405C-62.1401 416.827 -63.4213 419.706 -62.0963 422.688C-60.8807 425.423 -57.8223 426.545 -54.9752 425.299C-51.8348 423.925 -50.618 421.233 -51.8314 418.349ZM-42.7904 388.183C-40.0336 386.976 -36.9999 388.152 -35.7579 390.911C-34.4746 393.76 -35.7269 396.879 -38.6379 398.085C-41.4038 399.231 -44.4142 397.977 -45.6044 395.183C-46.783 392.422 -45.5686 389.401 -42.7904 388.183ZM-222.385 585.151C-219.561 583.884 -218.281 580.827 -219.435 578.109C-220.564 575.45 -223.895 574.219 -226.661 575.442C-229.339 576.626 -230.978 580.387 -229.508 582.662C-228.043 584.928 -224.987 586.89 -222.385 585.151ZM-91.1991 470.397C-88.4637 469.166 -85.0947 470.376 -83.9487 472.999C-82.7732 475.692 -84.0465 478.807 -86.8359 480.066C-89.5131 481.274 -93.1652 479.959 -94.1432 477.434C-95.1548 474.822 -93.7903 471.563 -91.1991 470.397ZM-70.4579 452.837C-67.7041 451.582 -66.5473 448.547 -67.7693 445.788C-68.9983 443.02 -72.0256 441.823 -74.785 443.015C-77.6668 444.259 -78.8646 447.402 -77.5376 450.236C-76.2574 452.973 -73.2117 454.091 -70.4579 452.837ZM-159.723 539.065C-158.482 541.825 -159.619 544.86 -162.367 546.129C-165.115 547.397 -168.174 546.293 -169.463 543.571C-170.805 540.737 -169.626 537.589 -166.753 536.333C-163.996 535.126 -160.963 536.305 -159.723 539.065ZM-19.2842 363.409C-20.5225 360.87 -23.8679 359.747 -26.4669 360.998C-29.2088 362.317 -30.1614 365.163 -28.8119 368.002C-27.498 370.768 -24.5862 371.827 -21.8734 370.525C-19.2913 369.287 -18.0637 365.91 -19.2842 363.409ZM-0.751245 191.34C1.86934 190.155 5.21743 191.372 6.36687 193.927C7.52501 196.502 6.23434 199.79 3.59981 200.979C0.819264 202.234 -1.97988 201.132 -3.27237 198.278C-4.55754 195.442 -3.52155 192.593 -0.751245 191.34ZM-200.297 579.072C-197.888 577.88 -196.65 574.427 -197.787 572.065C-198.935 569.679 -202.367 568.469 -204.806 569.591C-207.715 570.929 -208.663 573.623 -207.268 576.576C-205.877 579.516 -203.161 580.487 -200.297 579.072ZM-137.94 533.599C-136.634 536.225 -138.083 539.498 -141.153 540.853C-143.586 541.928 -146.059 540.808 -147.324 538.058C-148.951 535.121 -147.637 532.546 -144.928 531.227C-142.434 530.01 -139.141 531.185 -137.94 533.599ZM-103.225 507.784C-100.247 506.458 -98.8295 503.436 -99.9308 500.758C-100.97 498.232 -104.462 496.909 -107.041 498.171C-109.785 499.515 -110.862 502.061 -109.537 504.785C-108.111 507.716 -105.754 508.911 -103.225 507.784ZM4.67723 213.455C7.20246 212.253 10.4772 213.46 11.6423 215.889C12.8743 218.458 11.522 221.647 8.61298 223.029C6.08798 224.23 3.52417 223.12 2.21893 220.262C0.605718 217.298 1.97522 214.74 4.67723 213.455ZM6.80493 286.878C5.65877 284.448 2.38319 283.224 -0.14896 284.416C-2.84692 285.686 -4.24332 288.235 -2.63718 291.212C-1.329 294.084 1.22089 295.198 3.74816 294.005C6.6612 292.628 8.02276 289.458 6.80493 286.878ZM-10.2406 333.338C-7.6735 332.201 -4.4327 333.491 -3.3858 336.066C-2.36728 338.576 -3.59583 341.658 -6.04906 342.745C-8.52023 343.84 -11.6217 342.695 -12.7937 340.257C-13.9982 337.748 -12.7882 334.467 -10.2406 333.338ZM17.1583 237.873C15.8864 235.113 13.5388 234.303 10.6568 235.626C7.74247 236.966 6.74823 239.412 8.01138 242.129C9.24933 244.793 11.8038 245.62 14.6912 244.293C17.5542 242.977 18.444 240.661 17.1583 237.873ZM-46.505 440.202C-45.221 443.08 -46.1598 445.199 -49.3403 446.609C-52.1014 447.834 -54.4884 446.963 -55.7174 444.285C-57.0342 441.415 -56.0342 439.13 -52.8428 437.714C-49.9801 436.443 -47.7986 437.299 -46.505 440.202ZM-178.643 573.31C-175.73 571.966 -174.884 569.798 -176.169 566.967C-177.5 564.034 -179.709 563.281 -182.794 564.71C-185.707 566.06 -186.632 568.456 -185.305 571.217C-183.984 573.969 -181.656 574.7 -178.643 573.31ZM-36.7751 410.373C-34.188 409.223 -31.3559 410.338 -30.2282 412.95C-29.1108 415.542 -30.2642 418.365 -32.8916 419.463C-35.4006 420.511 -38.1225 419.438 -39.264 416.951C-40.4479 414.371 -39.3732 411.529 -36.7751 410.373ZM-116.505 527.958C-117.706 525.368 -120.376 524.477 -123.089 525.761C-125.488 526.895 -126.706 529.983 -125.64 532.222C-124.533 534.549 -121.354 535.516 -118.805 534.304C-116.28 533.102 -115.334 530.49 -116.505 527.958ZM-14.4888 385.101C-13.2943 387.589 -14.2377 390.373 -16.6843 391.582C-19.2612 392.853 -22.1264 391.838 -23.3069 389.234C-24.4445 386.722 -23.4334 383.984 -20.9369 382.819C-18.4421 381.654 -15.6745 382.633 -14.4888 385.101ZM-62.3926 467.67C-63.5575 465.174 -66.2954 464.163 -68.8077 465.3C-71.4109 466.479 -72.4279 469.346 -71.1555 471.923C-69.9483 474.369 -67.1621 475.313 -64.6745 474.119C-62.2082 472.933 -61.2275 470.165 -62.3926 467.67ZM-163.527 565.269C-164.693 562.844 -163.393 559.806 -160.716 558.698C-158.265 557.682 -155.354 558.812 -154.349 561.167C-153.268 563.705 -154.58 566.466 -157.451 567.692C-159.593 568.607 -162.477 567.456 -163.527 565.269ZM7.23826 129.99C10.0876 128.763 11.3875 125.97 10.2853 123.443C9.25835 121.09 6.35422 119.991 3.89875 121.026C1.31359 122.118 0.0991204 124.806 1.03016 127.379C1.84541 129.637 4.98874 130.957 7.23826 129.99ZM9.76251 142.816C12.2243 141.772 15.1208 142.855 16.1573 145.211C17.27 147.735 15.9767 150.539 13.1339 151.766C10.8785 152.74 7.75089 151.436 6.91753 149.177C5.97269 146.619 7.18499 143.912 9.76251 142.816ZM12.3433 308.833C11.1946 306.352 8.367 305.339 5.89161 306.522C3.43673 307.696 2.45823 310.547 3.66842 313.007C4.82394 315.356 7.54763 316.33 9.94646 315.252C12.4412 314.132 13.4936 311.315 12.3433 308.833ZM-4.76824 355.726C-2.38077 354.679 0.646574 355.832 1.63807 358.166C2.63398 360.514 1.39801 363.469 -1.00962 364.493C-3.74503 365.657 -5.89137 364.756 -7.12921 361.925C-8.35353 359.126 -7.51855 356.934 -4.76824 355.726ZM22.5786 259.952C21.5406 257.616 18.5319 256.518 16.14 257.605C13.4278 258.836 12.6186 261.056 13.8686 263.836C15.1312 266.649 17.2909 267.518 20.0236 266.315C22.4159 265.259 23.6122 262.283 22.5786 259.952ZM15.4463 164.696C17.7975 163.547 20.8406 164.549 21.9615 166.84C23.0776 169.118 21.9682 172.159 19.6114 173.278C16.8975 174.565 14.6931 173.761 13.3796 171.003C12.0509 168.214 12.7762 166.001 15.4463 164.696ZM27.3238 189.01C26.4544 186.961 23.2567 185.804 21.0729 186.696C18.7517 187.645 17.6707 190.117 18.606 192.338C20.0127 195.671 21.7421 196.555 24.5426 195.367C27.3622 194.852 28.0741 190.779 27.3238 189.01ZM-103.807 526.214C-104.98 523.626 -104.219 521.399 -101.754 520.199C-99.554 519.13 -96.1723 520.255 -95.2745 522.416C-94.518 524.234 -95.3378 527.859 -97.8022 528.732C-100.691 529.755 -102.468 529.169 -103.807 526.214ZM-138.831 552.931C-141.023 553.895 -142.141 556.669 -141.242 558.914C-140.323 561.211 -137.371 562.399 -135.083 561.392C-132.89 560.428 -131.772 557.654 -132.67 555.407C-133.59 553.111 -136.542 551.924 -138.831 552.931ZM-78.4929 495.12C-77.5231 497.5 -78.6472 500.261 -81.0079 501.295C-83.4613 502.372 -86.3445 501.199 -87.357 498.716C-88.3657 496.241 -87.109 493.382 -84.5991 492.438C-82.1981 491.534 -79.4637 492.736 -78.4929 495.12ZM-46.8366 459.716C-49.1014 460.708 -50.1527 463.404 -49.1585 465.676C-48.1651 467.942 -45.4711 468.992 -43.1994 467.997C-40.933 467.006 -39.8831 464.308 -40.8775 462.038C-41.8692 459.772 -44.5646 458.721 -46.8366 459.716ZM-200.891 597.899C-201.883 595.669 -200.977 593.08 -198.851 592.057C-196.526 590.94 -193.396 592.029 -192.447 594.291C-191.486 596.574 -192.731 599.455 -195.116 600.474C-197.339 601.422 -199.816 600.317 -200.891 597.899ZM15.4847 336.969C17.8715 335.902 19.0528 332.992 18.0164 330.737C17.0239 328.574 14.1227 327.546 11.8023 328.533C9.60946 329.465 8.61718 332.242 9.65875 334.532C10.7459 336.926 13.2434 337.969 15.4847 336.969ZM21.8907 279.058C24.2511 278.109 27.1359 279.18 28.0697 281.355C29.0545 283.643 27.8372 286.517 25.4434 287.552C23.2228 288.513 20.7247 287.421 19.6517 285.02C18.6098 282.688 19.6315 279.97 21.8907 279.058ZM-27.3461 441.036C-24.9545 440.007 -23.7254 437.132 -24.7007 434.845C-25.6646 432.581 -28.7913 431.505 -31.1152 432.638C-33.2081 433.657 -34.1131 436.285 -33.1301 438.487C-32.0586 440.886 -29.5586 441.99 -27.3461 441.036ZM26.941 208.08C29.1426 207.134 31.7453 208.102 32.7919 210.258C33.884 212.506 32.906 215.257 30.6377 216.317C28.3746 217.376 25.6332 216.356 24.61 214.076C23.5863 211.792 24.645 209.069 26.941 208.08ZM-8.86518 407.178C-9.87799 404.895 -12.6161 403.864 -14.8845 404.913C-17.0602 405.92 -18.0766 408.505 -17.171 410.725C-16.2283 413.03 -13.5154 414.142 -11.2161 413.164C-8.92026 412.185 -7.85024 409.464 -8.86518 407.178ZM-66.0061 493.159C-67.0407 490.768 -66.049 488.583 -63.392 487.399C-60.9911 486.33 -58.8646 487.11 -57.7789 489.459C-56.6338 491.932 -57.4592 494.037 -60.0299 495.199C-62.6433 496.38 -64.953 495.592 -66.0061 493.159ZM4.69289 385.785C7.27287 384.627 8.11979 382.524 6.99453 380.063C5.91377 377.701 3.78894 376.899 1.40056 377.954C-1.28115 379.137 -2.28194 381.294 -1.26408 383.696C-0.233451 386.124 2.10786 386.945 4.69289 385.785ZM-179.193 592.241C-180.362 589.735 -179.368 587.539 -176.51 586.307C-174.152 585.291 -172.025 586.148 -170.963 588.544C-169.883 590.977 -170.78 593.068 -173.394 594.218C-175.835 595.295 -178.134 594.511 -179.193 592.241ZM-117.258 548.144C-119.969 549.26 -120.64 551.172 -119.727 553.943C-118.961 556.267 -116.373 557.047 -114.019 556.002C-111.424 554.848 -110.475 552.561 -111.597 550.174C-112.633 547.969 -114.912 547.177 -117.258 548.144ZM32.8114 230.165C35.1472 229.176 37.4323 230.008 38.4581 232.225C39.5592 234.604 38.5922 236.89 36.0018 238.039C33.6658 239.074 31.2432 238.199 30.2551 235.963C29.2195 233.624 30.2695 231.246 32.8114 230.165ZM33.659 303.283C32.6907 301.059 30.2579 300.151 27.9294 301.149C25.6595 302.118 24.5238 304.701 25.4044 306.888C26.1884 308.831 29.0077 309.899 31.0784 309.039C33.5811 308 34.6615 305.588 33.659 303.283ZM-81.8803 520.84C-82.7713 518.667 -81.6345 516.065 -79.3712 515.095C-77.0404 514.094 -74.6095 514.993 -73.6361 517.216C-72.6268 519.519 -73.7028 521.936 -76.2024 522.977C-78.2332 523.825 -81.1002 522.744 -81.8803 520.84ZM41.7372 259.866C43.8377 258.871 44.7911 256.367 43.8598 254.285C42.9308 252.209 40.4172 251.253 38.2794 252.163C35.9268 253.161 35.0859 255.372 36.1548 257.745C37.2376 260.146 39.4069 260.971 41.7372 259.866ZM-157.135 586.906C-158.282 584.528 -157.533 582.334 -155.2 581.252C-153.092 580.275 -150.56 581.141 -149.548 583.185C-148.496 585.314 -149.496 587.964 -151.721 588.947C-153.984 589.947 -156.04 589.172 -157.135 586.906ZM-9.32404 427.278C-11.2626 428.179 -12.221 430.729 -11.3562 432.687C-10.4542 434.731 -7.71829 435.71 -5.74089 434.697C-3.83181 433.72 -2.95185 431.13 -3.88278 429.223C-4.82144 427.3 -7.39185 426.38 -9.32404 427.278ZM15.2406 356.05C14.1719 353.898 15.1328 351.253 17.3339 350.288C19.4406 349.363 21.931 350.311 22.8889 352.401C23.8467 354.493 22.9364 356.999 20.8613 357.989C18.7861 358.98 16.2647 358.11 15.2406 356.05ZM37.3199 139.427C36.3944 137.594 33.5943 136.666 31.654 137.552C29.5639 138.507 28.7658 140.733 29.7392 142.897C30.8183 145.292 32.7709 146.193 34.8266 145.241C37.1473 144.166 38.3242 141.42 37.3199 139.427ZM37.1339 159.519C39.1115 158.674 41.8926 159.66 42.7539 161.512C43.7058 163.555 42.4942 166.224 40.1413 167.273C38.1691 168.151 36.2393 167.285 35.2101 165.06C34.1616 162.793 34.9776 160.441 37.1339 159.519ZM-25.6294 454.488C-27.7167 455.436 -28.5237 457.673 -27.5538 459.83C-26.4754 462.228 -24.5247 463.13 -22.4706 462.181C-20.1457 461.108 -18.9665 458.369 -19.9686 456.372C-20.8884 454.536 -23.6849 453.606 -25.6294 454.488ZM5.09399 404.895C3.68551 401.987 4.98281 400.625 6.88036 399.555C8.81671 398.461 11.5912 399.508 12.4832 401.427C13.4416 403.493 12.2085 406.151 9.81364 407.18C8.04179 407.942 6.06891 406.985 5.09399 404.895ZM-41.5665 482.291C-44.1086 483.74 -44.4174 485.387 -43.3045 487.653C-42.3268 489.735 -40.3436 490.675 -38.5722 489.897C-36.1714 488.839 -34.9599 486.182 -35.9434 484.128C-36.8547 482.224 -39.6504 481.199 -41.5665 482.291ZM-97.3387 547.893C-98.4469 545.629 -98.1392 543.978 -95.5925 542.532C-93.675 541.441 -90.8801 542.471 -89.972 544.375C-88.9923 546.432 -90.2073 549.09 -92.6074 550.143C-94.3801 550.919 -96.3612 549.976 -97.3387 547.893ZM48.5358 183.461C47.6689 181.439 45.2187 180.487 43.2084 181.391C41.2934 182.25 40.3568 184.546 41.12 186.508C41.914 188.554 44.336 189.589 46.3776 188.755C48.4094 187.924 49.404 185.488 48.5358 183.461ZM44.2332 274.469C46.7053 273.344 48.2193 273.902 49.3047 276.338C50.3169 278.613 49.7285 280.109 47.3934 281.195C44.769 282.415 43.1271 281.926 42.0429 279.6C40.9309 277.217 41.5912 275.672 44.2332 274.469ZM36.3811 330.512C38.9656 329.372 39.6242 327.905 38.5997 325.57C37.5203 323.111 36.0022 322.528 33.5545 323.634C30.9339 324.815 30.2327 326.402 31.2955 328.737C32.3321 331.022 33.9454 331.585 36.3811 330.512ZM-135.453 580.856C-136.482 578.508 -135.771 576.975 -133.103 575.786C-130.778 574.75 -129.253 575.306 -128.201 577.573C-127.084 579.98 -127.668 581.476 -130.162 582.612C-132.803 583.816 -134.388 583.289 -135.453 580.856ZM-57.3408 509.689C-59.6147 510.665 -60.557 512.852 -59.5744 514.868C-58.7259 516.603 -56.4574 517.4 -54.6107 516.606C-52.1931 515.569 -51.3871 513.861 -52.2848 511.677C-53.2095 509.429 -55.0491 508.706 -57.3408 509.689ZM48.9379 203.566C51.2803 202.488 53.0952 203.086 54.1018 205.266C55.117 207.465 54.4021 209.227 52.0635 210.305C50.0563 211.227 47.7514 210.475 46.8837 208.61C45.9833 206.678 46.8611 204.523 48.9379 203.566ZM23.0784 372.708C21.09 373.638 20.1875 375.935 21.0867 377.776C21.9905 379.621 24.2906 380.339 26.2908 379.404C28.6131 378.318 29.3063 376.54 28.2645 374.343C27.245 372.187 25.4182 371.612 23.0784 372.708ZM59.413 227.085C60.0731 228.95 58.9402 231.159 56.9137 231.952C55.2476 232.605 52.7111 231.624 52.051 230.071C51.2736 228.24 52.4101 225.752 54.3873 224.961C56.3265 224.183 58.7472 225.206 59.413 227.085ZM-111.199 570.433C-113.048 571.228 -114.101 573.521 -113.468 575.369C-112.919 576.973 -110.153 578.043 -108.423 577.322C-106.434 576.491 -105.368 574.222 -106.102 572.377C-106.843 570.52 -109.26 569.598 -111.199 570.433ZM47.195 301.023C46.4735 299.26 47.4973 296.858 49.3189 296.032C51.2602 295.153 53.6697 295.994 54.4711 297.83C55.2703 299.663 54.2659 301.978 52.2986 302.837C50.5226 303.613 47.8689 302.669 47.195 301.023ZM39.131 345.62C37.1921 346.566 36.7161 348.154 37.7197 350.329C38.7948 352.659 40.228 353.212 42.4508 352.159C44.2592 351.3 45.1832 348.858 44.3403 347.161C43.4708 345.413 41.0362 344.691 39.131 345.62ZM-5.04349 454.34C-6.04081 452.166 -5.55311 450.578 -3.60196 449.641C-1.68853 448.722 0.743318 449.457 1.59748 451.213C2.42683 452.917 1.4928 455.34 -0.323558 456.2C-2.54013 457.247 -3.96552 456.685 -5.04349 454.34ZM-19.29 476.661C-20.9806 477.398 -21.8797 479.573 -21.2093 481.314C-20.5129 483.123 -18.1826 484.081 -16.3822 483.299C-14.5962 482.521 -13.7225 480.159 -14.5713 478.407C-15.3872 476.73 -17.5808 475.918 -19.29 476.661ZM10.9291 426.628C10.0761 424.692 10.3794 423.08 12.3812 422.029C14.1621 421.094 16.5133 421.797 17.4034 423.52C18.2779 425.213 17.4216 427.559 15.6054 428.438C13.7206 429.353 11.8151 428.637 10.9291 426.628ZM-73.1533 537.346C-74.9518 538.151 -75.8139 540.413 -75.0067 542.213C-74.2023 544.01 -71.9402 544.872 -70.1396 544.065C-68.3412 543.261 -67.4807 540.999 -68.2862 539.198C-69.0923 537.401 -71.3527 536.539 -73.1533 537.346ZM59.9972 247.018C61.7813 246.088 64.1331 246.807 65.0106 248.537C65.8754 250.24 65.0074 252.576 63.1874 253.446C61.3026 254.347 59.3967 253.616 58.5201 251.611C57.6714 249.666 58.0008 248.059 59.9972 247.018ZM-35.3581 504.608C-37.0477 505.539 -38.1811 506.871 -36.9049 509.089C-35.955 511.213 -34.4752 511.832 -32.4091 510.87C-30.5429 510.001 -29.765 507.903 -30.6464 506.121C-31.5098 504.375 -33.5638 503.62 -35.3581 504.608ZM-90.9313 569.344C-92.1934 567.066 -91.0615 565.744 -89.3523 564.836C-87.5326 563.868 -85.5075 564.638 -84.6599 566.402C-83.7986 568.195 -84.5957 570.266 -86.4792 571.129C-88.5107 572.059 -90.0094 571.411 -90.9313 569.344ZM28.7655 394.889C27.0571 395.782 25.8978 397.088 27.2266 399.576C28.064 401.474 29.5415 402.129 31.5768 401.206C33.4732 400.348 34.2817 398.302 33.44 396.498C32.6172 394.737 30.5822 393.94 28.7655 394.889ZM53.6244 322.637C52.6119 321.043 53.5721 319.136 55.4822 318.265C57.4234 317.381 58.8869 317.878 59.8208 319.764C60.7213 321.584 59.9684 323.258 57.9327 324.153C55.9231 325.291 54.568 324.124 53.6244 322.637ZM66.3434 268.997C64.1058 269.742 63.6496 271.574 64.3302 273.276C64.9351 274.785 66.4197 276.031 68.4701 275.05C70.5058 274.247 71.4136 272.513 70.6239 270.743C69.7752 268.842 68.3356 268.333 66.3434 268.997ZM43.3948 371.517C42.6561 369.813 43.0731 367.996 45.2833 367.191C47.2441 366.476 48.7107 366.917 49.6135 368.804C50.4679 370.588 49.6228 372.323 47.5935 373.163C45.5732 374.208 44.0576 373.047 43.3948 371.517ZM-51.2242 531.889C-52.9947 532.717 -53.6077 534.2 -52.8744 536.006C-52.0949 537.925 -50.5567 538.61 -48.6245 537.81C-46.6821 537.009 -46.2161 535.455 -46.8979 533.348C-47.8905 531.8 -49.2836 530.978 -51.2242 531.889ZM1.08697 475.285C0.385292 473.633 0.962753 472.101 2.58528 471.318C4.34043 470.469 5.77827 471.169 6.82304 472.769C7.36782 474.594 6.97997 476.159 5.19089 476.932C3.42318 477.696 1.84217 477.065 1.08697 475.285ZM18.7523 444.089C17.0225 445.011 16.4559 446.315 17.1779 448.043C17.9273 449.84 19.2846 450.635 21.14 449.815C22.9126 449.031 23.6206 447.445 22.8656 445.694C22.102 443.923 20.4725 443.552 18.7523 444.089ZM60.1147 344.4C59.2241 342.68 59.4623 341.126 61.2749 340.215C63.0162 339.341 64.6791 339.831 65.5524 341.515C66.4466 343.241 65.6378 344.711 64.2247 345.685C62.3543 346.437 60.9806 346.073 60.1147 344.4ZM34.7957 416.943C32.9254 418.007 32.5722 419.448 33.4541 421.197C34.2955 422.868 35.6954 423.4 37.3586 422.589C39.0952 421.743 39.7726 420.149 38.9469 418.42C38.1191 416.688 36.4853 416.346 34.7957 416.943ZM-68.7296 563.468C-69.6093 561.719 -69.258 560.278 -67.386 559.214C-65.6982 558.617 -64.0622 558.958 -63.2349 560.69C-62.4103 562.418 -63.0883 564.014 -64.825 564.86C-66.4865 565.67 -67.8879 565.137 -68.7296 563.468ZM71.6786 291.173C69.9767 291.896 69.4558 293.305 70.1694 295.034C70.9119 296.833 72.2272 297.532 74.2532 296.815C75.82 295.928 76.6319 294.469 75.8684 292.71C75.1065 290.953 73.4561 290.417 71.6786 291.173ZM-14.6686 503.273C-15.5571 501.552 -15.3154 499.997 -13.5029 499.089C-11.7627 498.218 -10.0944 498.708 -9.22866 500.394C-8.34724 502.111 -9.10653 503.605 -10.649 504.599C-12.4298 505.316 -13.8042 504.946 -14.6686 503.273ZM-105.386 592.317C-107.199 593.403 -107.503 594.857 -106.605 596.581C-105.737 598.25 -104.314 598.731 -102.676 597.896C-100.958 597.02 -100.302 595.408 -101.17 593.698C-102.031 591.994 -103.668 591.659 -105.386 592.317ZM-31.3352 530.378C-32.4416 528.302 -31.3022 527.197 -29.985 526.592C-28.3052 525.816 -26.5138 526.349 -25.8611 528.103C-25.1657 529.975 -26.2239 531.561 -28.0568 532.219C-29.8883 532.875 -30.9256 531.761 -31.3352 530.378ZM51.0091 389.617C49.0931 390.353 48.4686 391.71 49.2796 393.398C49.9087 394.71 51.1131 395.718 52.7349 394.697C54.5339 394.011 55.4013 392.97 54.5614 391.053C53.8306 389.388 52.7511 388.947 51.0091 389.617ZM80.9961 246.112C80.2966 244.645 80.4356 243.07 82.2912 242.504C84.1143 241.555 85.4075 241.803 86.2372 243.667C86.9973 245.379 86.4081 246.38 84.8167 247.232C83.0538 248.178 81.7237 247.634 80.9961 246.112ZM77.0803 313.595C75.8351 314.044 75.4904 315.593 76.1569 317.082C76.8034 318.525 78.2126 318.98 79.8293 318.239C81.4637 317.49 82.1286 316.359 81.3768 314.643C80.6242 312.932 79.3261 312.622 77.0803 313.595ZM-85.2598 591.051C-85.8084 589.654 -85.3772 588.233 -83.6607 587.532C-81.9825 586.845 -80.7279 587.115 -79.9558 588.806C-79.1738 590.52 -79.851 591.675 -81.4611 592.408C-83.1984 593.236 -84.6414 592.626 -85.2598 591.051ZM-45.8238 554.513C-47.4308 555.269 -48.0281 556.613 -47.3257 558.059C-46.615 559.527 -45.257 560.217 -43.484 559.328C-41.8348 558.5 -41.3773 557.336 -42.0596 555.622C-42.9472 554.061 -44.179 553.737 -45.8238 554.513ZM65.8048 365.938C65.1601 364.426 65.6663 363.129 67.1763 362.476C68.6849 361.822 69.9778 362.337 70.6413 363.844C71.3105 365.367 70.6888 366.542 69.2893 367.365C67.7407 367.816 66.4577 367.47 65.8048 365.938ZM87.8001 263.904C86.1456 264.522 86.0352 265.784 86.4768 267.223C87.2046 268.609 88.1157 269.535 89.769 268.782C91.3592 268.059 92.0031 266.726 91.3166 265.173C90.6825 263.737 89.305 263.342 87.8001 263.904ZM23.5486 469.787C22.9565 468.457 23.0308 467.281 24.4523 466.512C26.0268 465.661 27.4572 466.076 28.2506 467.525C29.0935 469.066 28.236 470.314 27.188 471.066C25.2789 471.83 24.2092 471.267 23.5486 469.787ZM7.86001 493.906C6.42819 494.665 6.34272 495.837 6.93519 497.174C7.5902 498.652 8.65064 499.23 10.4001 498.545C11.7017 497.766 12.4531 496.469 11.6494 494.944C10.8787 493.481 9.43865 493.07 7.86001 493.906ZM-8.71577 525.11C-9.47967 523.54 -9.43034 522.354 -7.91617 521.62C-6.42732 520.899 -5.03854 521.271 -4.33284 522.661C-3.61422 524.078 -4.21667 525.421 -5.67128 526.134C-7.09194 526.832 -8.19604 526.378 -8.71577 525.11ZM56.6092 411.716C55.0903 412.461 55.0691 413.65 55.8431 415.248C56.3519 416.489 57.467 416.916 58.8797 416.215C60.3287 415.497 60.9279 414.15 60.1976 412.738C59.4834 411.356 58.0977 410.985 56.6092 411.716ZM39.5438 442.091C38.8952 440.731 39.3943 439.424 40.7403 438.748C42.1187 438.055 43.2718 438.672 44.1478 439.786C44.6813 441.265 44.3953 442.557 43.0844 443.266C41.6396 444.049 40.2474 443.565 39.5438 442.091ZM-61.4969 581.79C-62.8017 582.301 -63.3349 583.471 -62.8555 584.798C-62.3296 586.248 -61.1515 586.686 -59.6324 586.252C-58.431 585.599 -57.8416 584.553 -58.3224 583.225C-58.8496 581.773 -60.0724 581.234 -61.4969 581.79ZM81.7162 338.284C81.0906 336.834 81.686 335.804 83.1365 335.353C84.5728 334.529 85.4459 334.932 86.1046 336.368C86.7918 337.869 86.2686 338.619 84.8947 339.248C83.4689 339.901 82.345 339.745 81.7162 338.284ZM93.7509 286.175C92.2755 286.84 91.7858 287.831 92.5048 289.253C93.2574 290.744 94.414 290.624 95.7746 289.994C97.2551 289.308 97.4998 288.38 96.7514 287.085C96.118 285.444 95.0697 285.582 93.7509 286.175ZM71.6665 387.637C71.1909 386.43 71.6852 385.455 72.919 384.875C74.2619 384.242 75.3958 384.474 76.0028 385.813C76.6125 387.156 76.0375 388.185 74.6746 388.761C73.3158 389.336 72.1986 388.991 71.6665 387.637ZM-23.5289 549.007C-24.8767 549.473 -25.5748 550.445 -25.1577 551.822C-24.7189 553.275 -23.5424 553.482 -22.4104 553.16C-20.8682 552.528 -20.2082 551.566 -20.735 550.176C-21.2094 548.918 -22.2577 548.567 -23.5289 549.007ZM45.3205 463.866C44.891 462.816 44.6596 461.872 46.0462 461.28C47.4046 460.699 48.5573 460.911 49.1479 462.238C49.6771 463.429 49.1288 464.413 47.9359 465.05C46.4982 465.819 45.8527 465.003 45.3205 463.866ZM-40.0223 576.373C-41.4186 576.975 -41.1533 577.923 -40.7343 578.965C-40.1973 580.106 -39.5472 580.912 -38.1111 580.133C-36.923 579.49 -36.3788 578.502 -36.9155 577.315C-37.5137 575.996 -38.665 575.789 -40.0223 576.373ZM88.1536 359.992C87.6608 358.9 87.2551 357.781 88.4103 357.402C90.0964 356.672 91.2358 356.88 91.829 358.046C92.4917 359.347 91.9205 360.381 90.6099 361.054C89.3096 361.723 88.6354 361.056 88.1536 359.992ZM30.3209 488.856C28.8092 489.407 28.9081 490.413 29.7052 492.169C29.9623 492.828 30.7204 493.441 32.0904 492.683C33.2701 492.03 33.7744 491.033 33.2201 489.84C32.6694 488.65 31.5881 488.396 30.3209 488.856ZM13.4034 518.575C13.0673 517.446 13.4561 516.44 14.6252 516.049C15.6476 515.709 16.4735 516.202 16.962 516.958C17.2774 518.268 16.9147 519.265 15.8755 519.711C14.8011 520.17 13.7672 519.796 13.4034 518.575ZM62.7928 434.019C61.6149 434.403 61.2249 435.404 61.5494 436.533C61.902 437.756 62.9371 438.138 64.0129 437.691C65.0546 437.255 65.4257 436.258 65.1144 434.928C64.6361 434.196 63.8258 433.685 62.7928 434.019ZM77.8624 408.939C77.3112 407.817 77.7248 407.157 78.7801 406.66C79.7753 406.189 80.6069 406.088 81.0378 406.937C81.7209 408.336 81.3546 409.035 80.2672 409.512C79.2862 409.945 78.4425 410.123 77.8624 408.939ZM95.1183 379.419C94.243 379.8 94.0153 380.448 94.3934 381.318C94.7822 382.215 95.3261 382.799 96.4143 382.282C97.3074 381.838 97.7303 381.107 97.3052 380.162C96.8822 379.224 96.0645 379.006 95.1183 379.419ZM51.7588 485.613C51.3254 484.723 51.2853 483.943 52.3387 483.46C53.2869 483.025 54.015 483.308 54.581 484.153C54.863 485.123 54.6161 485.865 53.6699 486.308C52.8057 486.715 52.1743 486.465 51.7588 485.613ZM-17.5965 571.367C-18.6499 571.851 -18.6111 572.63 -18.1764 573.52C-17.7609 574.372 -17.1287 574.621 -16.2647 574.216C-15.3185 573.772 -15.0734 573.03 -15.3536 572.06C-15.9215 571.215 -16.6485 570.932 -17.5965 571.367ZM-2.55581 545.646C-2.91138 544.703 -2.57309 543.914 -1.65431 543.489C-0.611674 543.007 0.187885 543.369 0.717867 544.338C1.09937 545.441 0.796532 546.279 -0.260936 546.699C-1.33252 547.127 -2.15958 546.698 -2.55581 545.646ZM67.9554 456.59C67.3805 456.806 67.6695 457.451 67.9259 458.023C67.9441 458.064 67.9621 458.104 67.9797 458.144C67.9851 458.156 67.9906 458.169 67.9961 458.181L68.012 458.218L68.0397 458.283C68.287 458.86 68.587 459.56 69.4233 459.161C70.2528 458.765 70.9132 458.021 70.4382 457.045C70.0414 456.23 69.1776 456.223 67.9554 456.59ZM35.7786 512.626C35.4761 512.048 35.0911 511.312 35.9262 510.905C36.7427 510.509 37.752 510.495 38.2154 511.462C38.6103 512.288 38.0658 512.956 37.343 513.449C36.4894 514.008 36.1616 513.37 35.8747 512.811L35.8731 512.808C35.8533 512.769 35.8336 512.731 35.8139 512.693L35.7786 512.626ZM20.3101 538.459C19.2345 538.682 19.5126 539.375 19.7411 539.945C19.7578 539.987 19.7743 540.028 19.79 540.068C19.8143 540.13 19.8383 540.195 19.8628 540.261L19.863 540.262C20.1021 540.909 20.3848 541.674 21.402 541.112C22.1492 540.699 22.5553 540.059 22.3599 539.121C21.8677 538.369 21.1569 538.283 20.3101 538.459ZM83.8153 430.31C83.5756 429.737 83.283 429.037 84.3334 428.779C85.1729 428.574 85.8893 428.666 86.4069 429.417C86.6185 430.334 86.2264 430.971 85.4845 431.405C84.476 431.997 84.1845 431.248 83.9352 430.607C83.9087 430.539 83.8827 430.472 83.8563 430.408C83.843 430.376 83.8293 430.343 83.8153 430.31Z" fill="#125A45"/>
<g filter="url(#filter0_f_3_871)">
<path d="M199 291.5C199 422.668 92.6676 529 -38.5 529C-169.668 529 -276 422.668 -276 291.5C-276 160.332 -169.668 54 -38.5 54C92.6676 54 199 160.332 199 291.5Z" fill="#AAD9D9" fill-opacity="0.6"/>
</g>
<g filter="url(#filter1_d_3_871)">
<path d="M-6.6775 157.374C57.7558 134.405 154.902 170.892 204.158 168.197C249.244 165.723 315.93 142.773 347.255 109.202C378.595 75.6237 380.305 16.2833 343.781 -8.45756C327.881 -19.2192 296.584 -24.6026 280.451 -35.1599C228.814 -68.9596 249.474 -137.13 223.274 -186.013C193.076 -242.361 104.489 -264.14 22.3919 -262.196C-29.8183 -260.963 -85.1525 -251.516 -127.914 -225.033C-170.663 -198.554 -196.378 -151.859 -176.877 -116.145C-159.304 -83.9644 -108.623 -58.8315 -124.558 -23.5619C-135.689 1.10553 -173.361 12.2989 -198.036 30.9968C-236.687 60.2965 -239.374 109.522 -211.533 140.711C-183.678 171.898 -150.743 193.058 -99.3196 185.18C-75.3216 181.504 -29.3413 165.455 -6.6775 157.374Z" stroke="#FCCD24" stroke-width="4.04179" stroke-miterlimit="10"/>
</g>
</g>
</g>
<defs>
<filter id="filter0_f_3_871" x="-600" y="-270" width="1123" height="1123" filterUnits="userSpaceOnUse" color-interpolation-filters="sRGB">
<feFlood flood-opacity="0" result="BackgroundImageFix"/>
<feBlend mode="normal" in="SourceGraphic" in2="BackgroundImageFix" result="shape"/>
<feGaussianBlur stdDeviation="162" result="effect1_foregroundBlur_3_871"/>
</filter>
<filter id="filter1_d_3_871" x="-252.111" y="-284.336" width="645.103" height="493.191" filterUnits="userSpaceOnUse" color-interpolation-filters="sRGB">
<feFlood flood-opacity="0" result="BackgroundImageFix"/>
<feColorMatrix in="SourceAlpha" type="matrix" values="0 0 0 0 0 0 0 0 0 0 0 0 0 0 0 0 0 0 127 0" result="hardAlpha"/>
<feOffset/>
<feGaussianBlur stdDeviation="10"/>
<feColorMatrix type="matrix" values="0 0 0 0 0.988235 0 0 0 0 0.803922 0 0 0 0 0.141176 0 0 0 1 0"/>
<feBlend mode="normal" in2="BackgroundImageFix" result="effect1_dropShadow_3_871"/>
<feBlend mode="normal" in="SourceGraphic" in2="effect1_dropShadow_3_871" result="shape"/>
</filter>
<linearGradient id="paint0_linear_3_871" x1="720.5" y1="0" x2="720.5" y2="198" gradientUnits="userSpaceOnUse">
<stop/>
<stop offset="1" stop-opacity="0"/>
</linearGradient>
<clipPath id="clip0_3_871">
<rect width="1440" height="802" fill="white"/>
</clipPath>
<clipPath id="clip1_3_871">
<rect width="1440" height="3527" fill="white"/>
</clipPath>
</defs>
</svg>
