<svg width="390" height="884" viewBox="0 0 390 884" fill="none" xmlns="http://www.w3.org/2000/svg">
<path opacity="0.5" fill-rule="evenodd" clip-rule="evenodd" d="M513.985 571.482C512.421 570.77 510.777 571.373 510.088 572.913C509.41 574.43 510.07 576.047 511.66 576.756C513.182 577.436 514.877 576.851 515.573 575.406C516.275 573.946 515.57 572.205 513.985 571.482ZM503.043 568.798C501.639 568.2 499.808 568.906 499.224 570.265C498.743 571.384 499.252 573.421 500.679 574.074C502.095 574.721 503.999 574.148 504.488 572.547C505.19 570.979 504.606 569.463 503.043 568.798ZM409.172 410.155C408.48 411.674 406.979 412.263 405.477 411.605C404.067 410.987 403.356 409.17 403.983 407.792C404.608 406.417 406.45 405.76 407.84 406.416C409.321 407.116 409.863 408.637 409.172 410.155ZM415.198 465.671C413.858 465.059 412.162 465.668 411.508 466.997C410.839 468.354 411.482 470.141 412.866 470.773C414.205 471.385 415.902 470.775 416.556 469.447C417.223 468.09 416.581 466.303 415.198 465.671ZM406.386 442.866C407.006 441.488 408.756 440.827 410.138 441.448C411.516 442.068 412.177 443.818 411.555 445.2C410.936 446.577 409.186 447.239 407.804 446.617C406.426 445.997 405.765 444.247 406.386 442.866ZM492.647 566.163C491.314 565.437 489.361 566.112 488.81 567.476C488.176 569.046 489.033 570.762 490.542 571.361C491.758 571.844 493.226 571.182 493.88 569.757C494.61 568.084 494.084 566.948 492.647 566.163ZM401.403 418.4C402.08 416.926 403.389 416.447 404.895 417.126C406.557 417.874 407.104 419.183 406.393 420.712C405.716 422.165 404.402 422.652 402.938 421.99C401.212 421.21 400.682 419.971 401.403 418.4ZM402.551 382.085C401.15 381.425 399.692 381.917 399.037 383.27C398.368 384.652 398.863 386.124 400.217 386.787C401.764 387.542 403.442 387.017 404.03 385.593C404.601 384.211 403.99 382.764 402.551 382.085ZM401.791 372.843C402.428 371.433 403.799 370.892 405.204 371.499C406.832 372.201 407.463 373.611 406.814 375.093C406.222 376.441 404.7 377.003 403.299 376.391C401.692 375.689 401.116 374.335 401.791 372.843ZM459.446 548.316C458.78 549.801 459.365 551.159 460.973 551.858C462.358 552.461 463.909 551.878 464.479 550.542C465.119 549.044 464.49 547.657 462.852 546.954C461.45 546.352 460.081 546.9 459.446 548.316ZM408.838 354.745C407.296 354.064 406.71 352.73 407.323 351.298C407.963 349.804 409.347 349.242 410.808 349.881C412.416 350.587 413.049 352.049 412.37 353.494C411.73 354.856 410.264 355.374 408.838 354.745ZM401.982 427.879C400.584 427.243 399.138 427.771 398.499 429.149C397.858 430.532 398.385 431.984 399.765 432.633C401.262 433.339 402.837 432.849 403.492 431.475C404.138 430.117 403.485 428.562 401.982 427.879ZM403.766 453.521C404.397 452.096 405.763 451.533 407.16 452.124C408.819 452.827 409.441 454.164 408.822 455.7C408.289 457.021 406.692 457.638 405.327 457.049C403.711 456.355 403.112 454.999 403.766 453.521ZM404.441 362.009C403.787 363.487 404.386 364.842 406.002 365.537C407.367 366.125 408.964 365.509 409.497 364.187C410.115 362.651 409.494 361.314 407.835 360.612C406.438 360.021 405.072 360.583 404.441 362.009ZM424.852 504.99C425.484 503.489 426.872 502.908 428.322 503.535C429.945 504.238 430.578 505.66 429.923 507.133C429.323 508.484 427.812 509.038 426.405 508.423C424.854 507.744 424.253 506.414 424.852 504.99ZM420.386 490.088C419.024 489.491 417.525 490.072 416.911 491.435C416.278 492.843 416.896 494.383 418.334 494.979C419.701 495.545 421.188 494.926 421.776 493.545C422.358 492.182 421.758 490.689 420.386 490.088ZM509.107 587.391C507.712 586.765 507.08 585.255 507.65 583.912C508.207 582.599 509.853 581.991 511.219 582.595C512.542 583.18 513.352 585.038 512.626 586.162C511.902 587.281 510.392 588.25 509.107 587.391ZM444.3 530.702C442.949 530.094 441.284 530.691 440.718 531.987C440.137 533.317 440.766 534.856 442.144 535.478C443.467 536.075 445.271 535.425 445.754 534.178C446.254 532.888 445.58 531.278 444.3 530.702ZM434.054 522.027C432.693 521.407 432.122 519.908 432.726 518.545C433.333 517.177 434.828 516.586 436.191 517.175C437.615 517.789 438.207 519.342 437.551 520.742C436.919 522.094 435.414 522.646 434.054 522.027ZM478.151 564.625C477.539 565.988 478.1 567.487 479.458 568.114C480.815 568.741 482.326 568.195 482.963 566.85C483.626 565.451 483.044 563.895 481.624 563.275C480.262 562.678 478.764 563.261 478.151 564.625ZM408.773 477.849C409.385 476.594 411.038 476.04 412.322 476.657C413.676 477.309 414.147 478.715 413.48 480.118C412.831 481.484 411.393 482.007 410.053 481.364C408.777 480.752 408.17 479.084 408.773 477.849ZM399.618 392.845C398.323 392.26 396.67 392.861 396.102 394.123C395.53 395.395 396.167 397.019 397.469 397.607C398.842 398.227 400.225 397.683 400.864 396.273C401.498 394.872 400.987 393.464 399.618 392.845ZM498.195 584.388C497.005 583.8 496.394 582.094 496.955 580.927C497.523 579.748 499.218 579.15 500.423 579.705C501.86 580.365 502.328 581.696 501.639 583.155C500.952 584.608 499.61 585.087 498.195 584.388ZM467.391 561.924C466.745 563.221 467.461 564.838 468.978 565.508C470.18 566.039 471.401 565.486 472.026 564.127C472.83 562.676 472.181 561.404 470.843 560.752C469.61 560.151 467.984 560.732 467.391 561.924ZM450.241 549.171C448.77 548.516 448.069 547.023 448.614 545.7C449.127 544.453 450.852 543.799 452.126 544.423C453.481 545.086 454.014 546.344 453.359 547.69C452.655 549.138 451.49 549.728 450.241 549.171ZM396.936 403.77C395.689 403.176 394.071 403.773 393.496 404.972C392.887 406.242 393.555 407.817 394.992 408.5C396.239 409.093 397.506 408.545 398.151 407.133C398.948 405.669 398.271 404.405 396.936 403.77ZM395.885 440.042C396.451 438.841 398.07 438.237 399.32 438.826C400.653 439.453 401.343 440.712 400.55 442.183C399.903 443.602 398.644 444.152 397.395 443.562C395.956 442.882 395.284 441.316 395.885 440.042ZM404.306 462.994C403.038 462.432 401.437 463.069 400.919 464.341C400.416 465.581 401.023 467.104 402.235 467.64C403.456 468.182 404.988 467.616 405.567 466.412C406.162 465.172 405.564 463.551 404.306 462.994ZM390.77 415.833C391.399 414.469 392.558 414.069 393.982 414.723C395.422 415.385 395.913 416.593 395.289 417.936C394.678 419.251 393.416 419.66 391.989 419.004C390.575 418.354 390.135 417.21 390.77 415.833ZM422.221 515.785C421.586 517.207 422.05 518.254 423.621 518.95C424.985 519.556 426.165 519.125 426.772 517.802C427.422 516.385 426.928 515.256 425.352 514.556C423.937 513.928 422.86 514.351 422.221 515.785ZM487.498 581.542C486.059 580.878 485.641 579.807 486.276 578.408C486.933 576.959 488.024 576.587 489.549 577.293C490.988 577.96 491.445 579.144 490.789 580.508C490.137 581.867 488.987 582.228 487.498 581.542ZM417.414 501.049C416.136 500.481 414.737 501.032 414.18 502.322C413.628 503.603 414.198 504.998 415.496 505.54C416.735 506.058 418.08 505.527 418.644 504.299C419.229 503.024 418.698 501.621 417.414 501.049ZM456.802 559.138C457.395 557.858 458.714 557.418 460.054 558.052C461.239 558.613 461.841 560.138 461.314 561.244C460.767 562.393 459.197 562.871 457.938 562.273C456.69 561.679 456.223 560.389 456.802 559.138ZM406.404 488.565C405.814 489.794 406.28 491.169 407.489 491.767C408.762 492.394 410.177 491.893 410.761 490.607C411.323 489.366 410.823 488.013 409.59 487.438C408.357 486.862 406.99 487.346 406.404 488.565ZM430.069 529.355C430.645 528.122 431.997 527.622 433.238 528.184C434.524 528.766 435.027 530.183 434.398 531.456C433.802 532.664 432.426 533.13 431.197 532.54C429.978 531.954 429.494 530.587 430.069 529.355ZM480.031 577.569C480.607 576.371 479.965 574.87 478.642 574.323C477.431 573.821 475.993 574.379 475.497 575.543C474.963 576.797 475.611 578.161 477.029 578.766C478.087 579.219 479.512 578.65 480.031 577.569ZM395.671 362.538C394.264 361.932 393.621 360.552 394.166 359.304C394.673 358.141 396.108 357.598 397.321 358.11C398.598 358.649 399.198 359.977 398.738 361.248C398.335 362.363 396.782 363.016 395.671 362.538ZM394.424 368.874C393.208 368.358 391.777 368.893 391.265 370.057C390.715 371.304 391.354 372.689 392.759 373.295C393.873 373.776 395.418 373.132 395.829 372.016C396.296 370.752 395.697 369.416 394.424 368.874ZM393.149 450.888C393.717 449.662 395.113 449.162 396.336 449.746C397.549 450.326 398.032 451.735 397.435 452.95C396.864 454.11 395.518 454.592 394.333 454.059C393.101 453.505 392.581 452.114 393.149 450.888ZM401.603 474.053C400.423 473.536 398.928 474.105 398.438 475.259C397.946 476.419 398.556 477.879 399.746 478.384C401.097 478.959 402.157 478.514 402.769 477.116C403.374 475.733 402.961 474.65 401.603 474.053ZM388.093 426.74C388.606 425.586 390.092 425.044 391.274 425.581C392.613 426.189 393.013 427.286 392.396 428.659C391.772 430.049 390.705 430.478 389.355 429.883C388.173 429.362 387.582 427.892 388.093 426.74ZM391.616 379.683C390.455 379.115 388.951 379.61 388.398 380.742C387.846 381.868 388.394 383.369 389.559 383.922C390.899 384.558 391.988 384.161 392.637 382.799C393.294 381.421 392.935 380.327 391.616 379.683ZM385.749 391.694C386.178 390.682 387.758 390.11 388.837 390.551C389.983 391.02 390.517 392.241 390.055 393.338C389.36 394.985 388.506 395.421 387.123 394.835C385.73 394.58 385.378 392.568 385.749 391.694ZM450.528 558.276C451.108 556.998 450.732 555.897 449.514 555.305C448.427 554.776 446.757 555.332 446.313 556.4C445.94 557.298 446.344 559.089 447.562 559.52C448.989 560.025 449.867 559.736 450.528 558.276ZM467.83 571.474C468.914 571.951 469.466 573.321 469.022 574.43C468.568 575.565 467.109 576.152 465.979 575.654C464.896 575.178 464.344 573.808 464.787 572.697C465.241 571.563 466.7 570.977 467.83 571.474ZM438.023 542.915C437.544 544.091 438.099 545.455 439.266 545.966C440.478 546.497 441.902 545.918 442.402 544.691C442.9 543.469 442.28 542.056 441.04 541.59C439.854 541.144 438.503 541.737 438.023 542.915ZM422.384 525.426C423.503 525.916 424.023 527.247 423.531 528.369C423.041 529.489 421.71 530.008 420.588 529.516C419.468 529.026 418.949 527.694 419.441 526.573C419.93 525.453 421.262 524.934 422.384 525.426ZM498.489 593.689C498.979 592.587 498.531 591.308 497.481 590.803C496.332 590.251 494.786 590.789 494.317 591.907C493.843 593.035 494.458 594.458 495.636 594.961C496.734 595.43 497.958 594.884 498.489 593.689ZM391.597 464.787C390.418 464.26 389.835 462.822 390.347 461.709C390.837 460.64 392.27 460.132 393.417 460.62C394.5 461.08 394.99 462.452 394.475 463.583C393.938 464.766 392.705 465.281 391.597 464.787ZM388.433 436.179C387.267 435.71 385.841 436.239 385.38 437.313C384.894 438.444 385.495 439.863 386.678 440.375C387.775 440.849 389.009 440.31 389.539 439.124C390.053 437.972 389.549 436.629 388.433 436.179ZM412.756 516.197C411.575 515.689 410.967 514.269 411.449 513.139C411.925 512.02 413.47 511.489 414.618 512.048C415.652 512.552 416.099 513.85 415.613 514.938C415.084 516.123 413.849 516.668 412.756 516.197ZM385.938 401.115C384.85 400.647 383.564 401.125 383.047 402.191C382.508 403.301 382.991 404.661 384.111 405.184C385.229 405.707 386.584 405.203 387.089 404.077C387.595 402.948 387.072 401.604 385.938 401.115ZM403.626 499.471C404.127 498.343 405.479 497.834 406.6 498.352C407.675 498.85 408.177 500.126 407.73 501.223C407.264 502.362 405.924 502.912 404.788 502.428C403.654 501.945 403.125 500.6 403.626 499.471ZM431.854 541.946C432.366 540.765 431.876 539.686 430.563 539.101C429.377 538.573 428.326 538.958 427.79 540.118C427.224 541.34 427.632 542.38 428.902 542.954C430.193 543.537 431.334 543.148 431.854 541.946ZM396.929 488.903C395.654 488.331 395.236 487.292 395.792 486.076C396.325 484.909 397.375 484.513 398.555 485.034C399.88 485.619 400.374 486.684 399.871 487.871C399.362 489.07 398.206 489.476 396.929 488.903ZM487.77 590.894C488.347 589.656 487.856 588.571 486.444 587.962C485.279 587.46 484.229 587.884 483.704 589.068C483.171 590.269 483.614 591.302 484.905 591.871C486.111 592.403 487.247 592.015 487.77 590.894ZM457.173 569.109C458.513 569.661 458.844 570.605 458.393 571.974C458.015 573.122 456.736 573.508 455.573 572.991C454.291 572.421 453.823 571.291 454.377 570.112C454.888 569.023 456.014 568.632 457.173 569.109ZM383.038 412.025C381.884 411.536 380.755 411.948 380.248 413.043C379.704 414.218 380.182 415.347 381.462 415.915C382.616 416.426 383.812 415.994 384.301 414.89C384.812 413.734 384.293 412.559 383.038 412.025ZM382.619 448.146C383.097 447.047 384.299 446.599 385.449 447.092C386.571 447.571 387.132 448.847 386.697 449.927C386.309 450.887 384.917 451.415 383.894 450.99C382.657 450.476 382.124 449.285 382.619 448.146ZM439.696 555.621C440.137 554.547 439.575 553.262 438.457 552.783C437.306 552.289 436.105 552.733 435.624 553.831C435.125 554.969 435.657 556.162 436.892 556.677C437.895 557.096 439.311 556.562 439.696 555.621ZM378.628 426.697C377.591 426.206 377.12 424.969 377.58 423.941C378.039 422.915 379.28 422.443 380.336 422.892C381.499 423.385 381.914 424.477 381.386 425.65C380.851 426.836 379.779 427.243 378.628 426.697ZM476.873 588.258C477.44 587.083 477.07 585.999 475.917 585.465C474.876 584.983 473.625 585.41 473.125 586.42C472.605 587.472 473.099 588.781 474.199 589.266C475.316 589.761 476.332 589.378 476.873 588.258ZM403.853 509.4C404.811 509.845 405.284 511.105 404.857 512.073C404.411 513.082 403.06 513.566 402.083 513.066C401.14 512.583 400.705 511.304 401.165 510.361C401.629 509.411 402.898 508.957 403.853 509.4ZM391.718 474.213C392.246 473.151 391.771 471.843 390.684 471.367C389.643 470.91 388.413 471.378 387.94 472.411C387.466 473.444 387.916 474.682 388.941 475.172C389.966 475.661 391.212 475.231 391.718 474.213ZM380.811 367.2C381.268 366.294 382.651 365.836 383.61 366.274C384.642 366.745 385.036 367.845 384.555 368.914C384.022 370.097 383.058 370.542 382.042 370.072C380.896 369.541 380.314 368.184 380.811 367.2ZM380.902 377.125C379.925 376.708 378.552 377.195 378.126 378.11C377.656 379.119 378.254 380.438 379.417 380.956C380.391 381.39 381.344 380.962 381.853 379.863C382.371 378.743 381.968 377.581 380.902 377.125ZM411.908 522.842C412.939 523.311 413.338 524.416 412.859 525.482C412.326 526.666 411.362 527.112 410.347 526.643C409.199 526.113 408.616 524.76 409.111 523.773C409.566 522.866 410.947 522.407 411.908 522.842ZM396.73 498.343C397.426 496.907 396.785 496.234 395.848 495.705C394.891 495.165 393.521 495.682 393.08 496.63C392.607 497.65 393.216 498.964 394.399 499.472C395.274 499.848 396.249 499.376 396.73 498.343ZM419.781 536.578C421.037 537.293 421.19 538.107 420.64 539.227C420.157 540.255 419.177 540.719 418.302 540.335C417.116 539.812 416.517 538.5 417.003 537.485C417.454 536.544 418.835 536.038 419.781 536.578ZM447.333 568.985C447.88 567.867 447.728 567.051 446.47 566.337C445.523 565.798 444.142 566.307 443.694 567.247C443.21 568.264 443.81 569.577 444.996 570.097C445.871 570.48 446.85 570.014 447.333 568.985ZM375.27 388.953C375.698 387.954 376.908 387.484 377.902 387.93C378.848 388.355 379.31 389.489 378.933 390.458C378.541 391.469 377.345 391.98 376.336 391.568C375.332 391.158 374.841 389.954 375.27 388.953ZM377.395 433.912C376.174 433.356 375.426 433.632 374.89 434.835C374.39 435.959 374.681 436.698 375.834 437.234C377.131 437.837 377.942 437.596 378.477 436.446C379.027 435.269 378.701 434.506 377.395 433.912ZM381.274 461.597C379.998 461.034 379.672 460.309 380.178 459.156C380.712 457.941 381.461 457.653 382.671 458.199C383.965 458.783 384.312 459.567 383.787 460.721C383.275 461.849 382.478 462.127 381.274 461.597ZM466.162 585.27C466.67 584.11 466.319 583.353 465.001 582.765C463.853 582.253 463.099 582.528 462.58 583.648C462.028 584.837 462.316 585.576 463.548 586.137C464.853 586.732 465.636 586.472 466.162 585.27ZM427.574 550.112C428.697 550.594 429.163 551.675 428.677 552.671C428.258 553.528 427.137 553.922 426.225 553.529C425.031 553.017 424.633 552.173 425.076 551.094C425.533 549.984 426.442 549.627 427.574 550.112ZM375.071 398.885C373.914 398.352 373.017 398.647 372.52 399.725C372.019 400.811 372.372 401.682 373.527 402.214C374.519 402.669 375.657 402.298 376.086 401.377C376.531 400.422 376.097 399.358 375.071 398.885ZM387.846 482.442C388.828 482.902 389.274 484.037 388.83 484.946C388.383 485.858 387.247 486.213 386.259 485.751C385.112 485.214 384.769 484.336 385.284 483.25C385.788 482.185 386.69 481.901 387.846 482.442ZM369.896 410.504C369.57 411.425 370.13 412.516 371.131 412.908C371.954 413.23 373.207 412.746 373.533 411.979C373.917 411.074 373.356 409.845 372.379 409.454C371.421 409.07 370.225 409.575 369.896 410.504ZM454.18 580.12C455.093 580.513 455.614 581.646 455.301 582.559C455.03 583.351 453.663 583.88 452.809 583.524C451.826 583.113 451.299 581.992 451.662 581.081C452.028 580.164 453.222 579.708 454.18 580.12ZM375.932 447.03C376.289 446.159 375.783 444.972 374.883 444.564C373.924 444.13 372.734 444.545 372.338 445.452C371.943 446.358 372.439 447.502 373.411 447.926C374.288 448.309 375.599 447.843 375.932 447.03ZM379.916 469.061C380.874 469.528 381.109 470.313 380.613 471.387C380.082 472.538 379.374 472.811 378.276 472.291C377.382 471.867 376.926 470.66 377.342 469.822C377.772 468.959 378.975 468.602 379.916 469.061ZM401.738 522.769C402.231 521.695 401.99 520.911 401.026 520.448C400.081 519.994 398.88 520.357 398.458 521.225C398.048 522.067 398.509 523.263 399.407 523.688C400.502 524.205 401.206 523.928 401.738 522.769ZM408.776 533.796C409.611 534.16 410.056 535.235 409.724 536.095C409.38 536.988 408.229 537.462 407.34 537.075C406.457 536.691 406.026 535.525 406.445 534.659C406.848 533.83 407.932 533.429 408.776 533.796ZM393.848 509.08C394.269 508.123 394.119 507.327 393.13 506.807C392.251 506.346 391.089 506.693 390.649 507.544C390.217 508.38 390.64 509.539 391.538 509.974C392.469 510.425 393.41 510.072 393.848 509.08ZM435.385 563.775C436.274 564.173 436.7 565.29 436.301 566.18C435.904 567.067 434.786 567.493 433.897 567.094C433.008 566.697 432.583 565.58 432.981 564.69C433.379 563.802 434.496 563.377 435.385 563.775ZM369.608 420.351C368.726 419.891 367.565 420.246 367.131 421.101C366.704 421.942 367.133 423.096 368.032 423.526C368.963 423.971 369.904 423.61 370.337 422.62C370.757 421.659 370.594 420.865 369.608 420.351ZM416.714 547.602C417.549 548.063 418.109 548.72 417.478 549.816C417.009 550.865 416.278 551.171 415.257 550.696C414.335 550.267 413.951 549.23 414.386 548.35C414.813 547.487 415.828 547.114 416.714 547.602ZM444.168 579.582C444.791 578.457 444.232 577.804 443.388 577.356C442.489 576.877 441.488 577.258 441.07 578.129C440.644 579.015 441.038 580.038 441.968 580.464C442.972 580.924 443.712 580.603 444.168 579.582ZM385.036 493.4C385.88 493.841 386.453 494.487 385.797 495.716C385.383 496.653 384.653 496.977 383.648 496.521C382.711 496.097 382.311 495.087 382.727 494.195C383.134 493.325 384.139 492.932 385.036 493.4ZM372.756 457.707C373.256 456.919 372.782 455.977 371.838 455.547C370.879 455.11 370.156 455.356 369.695 456.288C369.25 457.187 369.622 458.014 370.628 458.456C371.62 459.018 372.29 458.441 372.756 457.707ZM366.473 431.208C367.578 431.577 367.803 432.481 367.467 433.322C367.168 434.068 366.435 434.683 365.422 434.199C364.416 433.802 363.968 432.945 364.358 432.071C364.777 431.132 365.488 430.88 366.473 431.208ZM377.809 481.854C378.174 481.012 377.968 480.114 376.876 479.717C375.908 479.364 375.183 479.582 374.737 480.514C374.315 481.395 374.733 482.252 375.735 482.667C376.733 483.183 377.482 482.61 377.809 481.854ZM424.552 561.079C425.427 561.489 425.73 562.221 425.367 563.113C424.982 564.061 424.222 564.399 423.268 564.005C422.308 563.609 422.078 562.841 422.415 561.8C422.905 561.036 423.593 560.629 424.552 561.079ZM398.71 533.117C399.057 532.3 398.771 531.543 397.97 531.157C397.103 530.738 396.392 531.083 395.876 531.874C395.607 532.775 395.799 533.548 396.683 533.93C397.556 534.307 398.337 533.996 398.71 533.117ZM389.983 517.705C390.838 518.161 391.118 518.805 390.761 519.659C390.391 520.546 389.72 520.939 388.804 520.534C387.928 520.147 387.578 519.363 387.951 518.498C388.328 517.623 389.133 517.44 389.983 517.705ZM369.55 468.458C369.99 467.608 369.872 466.841 368.977 466.391C368.116 465.959 367.295 466.201 366.863 467.033C366.422 467.886 366.821 468.612 367.519 469.093C368.443 469.465 369.122 469.285 369.55 468.458ZM382.057 504.295C382.981 504.82 383.156 505.533 382.72 506.396C382.304 507.222 381.613 507.485 380.791 507.084C379.933 506.666 379.599 505.879 380.007 505.025C380.416 504.169 381.223 504 382.057 504.295ZM433.2 576.68C433.634 575.816 433.461 575.104 432.536 574.578C431.702 574.283 430.894 574.452 430.485 575.307C430.078 576.161 430.413 576.949 431.271 577.368C432.092 577.768 432.784 577.504 433.2 576.68ZM363.837 442.164C364.678 442.521 364.935 443.217 364.582 444.071C364.216 444.96 363.566 445.305 362.565 444.951C361.791 444.513 361.39 443.792 361.767 442.923C362.143 442.055 362.959 441.79 363.837 442.164ZM406.493 546.943C406.932 546.093 406.813 545.325 405.917 544.876C405.058 544.446 404.234 544.687 403.806 545.521C403.37 546.369 403.746 547.107 404.508 547.598C405.387 547.952 406.066 547.769 406.493 546.943ZM451.309 590.931C452.204 591.468 452.355 592.186 451.911 593.038C451.482 593.862 450.779 594.1 449.97 593.688C449.121 593.255 448.797 592.459 449.226 591.614C449.651 590.772 450.46 590.606 451.309 590.931ZM414.727 560.333C415.273 559.307 414.71 558.761 414.06 558.462C413.23 558.079 412.345 558.343 412.023 559.209C411.679 560.134 412.202 560.917 413.107 561.242C414.012 561.566 414.524 561.016 414.727 560.333ZM374.048 490.796C374.994 491.16 375.303 491.83 374.902 492.664C374.591 493.312 373.997 493.81 373.195 493.305C372.307 492.966 371.878 492.452 372.293 491.505C372.654 490.683 373.187 490.465 374.048 490.796ZM359.234 419.903C359.58 419.178 359.511 418.4 358.594 418.121C357.694 417.652 357.055 417.774 356.645 418.695C356.269 419.541 356.56 420.036 357.347 420.456C358.218 420.923 358.875 420.655 359.234 419.903ZM361.168 453.24C361.784 453.462 361.954 454.227 361.625 454.963C361.305 455.675 360.609 455.901 359.81 455.534C359.003 455.164 358.675 454.606 359.046 453.758C359.418 452.913 360.059 452.76 361.168 453.24ZM441.366 590.306C441.637 589.616 441.424 588.914 440.576 588.568C439.747 588.228 439.127 588.362 438.746 589.197C438.359 590.043 438.694 590.614 439.489 590.976C440.348 591.385 441.06 591.084 441.366 590.306ZM421.884 572.256C422.678 572.629 422.973 573.293 422.626 574.008C422.275 574.733 421.604 575.074 420.728 574.634C419.914 574.225 419.687 573.651 420.025 572.804C420.463 572.032 421.072 571.873 421.884 572.256ZM366.739 479.098C367.057 478.351 366.807 477.71 366.061 477.388C365.316 477.065 364.677 477.319 364.349 478.064C364.019 478.816 364.326 479.397 365.017 479.803C365.782 480.026 366.416 479.855 366.739 479.098ZM355.873 428.693C356.69 428.998 356.745 429.621 356.527 430.332C356.167 431.017 355.717 431.474 354.9 431.102C354.115 430.745 353.797 430.087 354.136 429.319C354.449 428.61 355.129 428.415 355.873 428.693ZM387.614 530.401C387.906 529.743 387.869 529.163 387.167 528.783C386.389 528.362 385.683 528.567 385.291 529.283C384.874 530.044 385.298 530.661 385.816 531.032C386.759 531.41 387.287 531.132 387.614 530.401ZM395.364 542.315C396.071 542.69 396.114 543.27 395.821 543.93C395.497 544.66 394.973 544.946 394.109 544.607C393.466 544.222 393.095 543.581 393.492 542.828C393.873 542.106 394.584 541.903 395.364 542.315ZM403.553 557.73C403.93 556.955 403.906 556.369 403.157 556.006C402.422 555.65 401.736 555.834 401.387 556.521C401.032 557.221 401.33 557.884 402.048 558.236C402.75 558.581 403.296 558.357 403.553 557.73ZM371.281 501.713C372.032 502.081 372.042 502.668 371.66 503.458C371.409 504.071 370.858 504.282 370.16 503.936C369.444 503.581 369.148 502.915 369.509 502.218C369.862 501.535 370.546 501.352 371.281 501.713ZM379.712 516.718C380.032 516.046 379.786 515.401 379.121 515.067C378.44 514.725 377.87 515.03 377.437 515.58C377.174 516.31 377.315 516.949 377.963 517.299C378.676 517.685 379.364 517.447 379.712 516.718ZM429.627 585.731C430.271 585.983 430.535 586.561 430.298 587.217C430.038 587.933 429.456 588.149 428.706 587.935C428.112 587.613 427.821 587.096 428.059 586.44C428.319 585.723 428.923 585.456 429.627 585.731ZM358.878 465.437C359.187 464.72 358.893 464.212 358.177 463.989C357.467 463.582 357.036 463.781 356.711 464.49C356.371 465.232 356.63 465.602 357.308 465.913C358.013 466.236 358.568 466.159 358.878 465.437ZM352.933 439.695C353.662 440.023 353.904 440.513 353.549 441.215C353.177 441.952 352.606 441.892 351.933 441.581C351.202 441.242 351.081 440.784 351.451 440.144C351.764 439.334 352.282 439.402 352.933 439.695ZM363.843 489.818C364.078 489.222 363.834 488.74 363.224 488.453C362.561 488.141 362.001 488.255 361.701 488.917C361.4 489.58 361.684 490.088 362.357 490.373C363.028 490.657 363.58 490.487 363.843 489.818ZM410.87 569.536C411.536 569.766 411.881 570.246 411.675 570.927C411.458 571.645 410.877 571.747 410.318 571.587C409.556 571.275 409.23 570.8 409.49 570.113C409.725 569.492 410.242 569.319 410.87 569.536ZM376.858 527.476C377.07 526.957 377.184 526.49 376.5 526.198C375.828 525.911 375.259 526.016 374.967 526.671C374.706 527.26 374.977 527.746 375.566 528.061C376.276 528.44 376.595 528.037 376.858 527.476ZM419.018 583.055C419.708 583.352 419.577 583.821 419.37 584.335C419.105 584.899 418.784 585.297 418.074 584.913C417.487 584.595 417.218 584.107 417.484 583.52C417.779 582.868 418.348 582.766 419.018 583.055ZM355.698 476.161C355.942 475.622 356.142 475.068 355.571 474.881C354.739 474.521 354.176 474.624 353.883 475.2C353.555 475.842 353.837 476.353 354.485 476.685C355.127 477.016 355.46 476.687 355.698 476.161ZM384.268 539.821C385.015 540.093 384.966 540.59 384.572 541.457C384.445 541.783 384.071 542.086 383.394 541.711C382.811 541.389 382.562 540.896 382.836 540.307C383.108 539.719 383.642 539.593 384.268 539.821ZM392.625 554.502C392.791 553.944 392.599 553.447 392.022 553.255C391.517 553.086 391.109 553.33 390.867 553.703C390.712 554.351 390.891 554.843 391.404 555.063C391.935 555.29 392.446 555.106 392.625 554.502ZM368.227 512.731C368.809 512.92 369.001 513.415 368.841 513.973C368.667 514.577 368.155 514.766 367.624 514.545C367.109 514.329 366.926 513.837 367.08 513.18C367.316 512.818 367.716 512.566 368.227 512.731ZM360.782 500.341C361.054 499.787 360.85 499.461 360.329 499.215C359.837 498.983 359.426 498.932 359.213 499.352C358.876 500.043 359.057 500.388 359.594 500.624C360.079 500.838 360.496 500.926 360.782 500.341ZM352.258 485.758C352.69 485.946 352.803 486.266 352.616 486.696C352.424 487.139 352.155 487.428 351.617 487.172C351.176 486.953 350.967 486.592 351.177 486.125C351.386 485.662 351.79 485.554 352.258 485.758ZM373.678 538.218C373.892 537.779 373.911 537.394 373.391 537.155C372.923 536.94 372.563 537.08 372.283 537.497C372.144 537.976 372.266 538.343 372.733 538.562C373.16 538.763 373.472 538.64 373.678 538.218ZM407.94 580.582C408.46 580.821 408.441 581.206 408.226 581.646C408.021 582.067 407.709 582.19 407.282 581.989C406.814 581.77 406.693 581.404 406.832 580.924C407.112 580.507 407.471 580.367 407.94 580.582ZM400.509 567.875C400.685 567.41 400.518 567.02 400.064 566.81C399.549 566.572 399.154 566.751 398.892 567.229C398.704 567.774 398.853 568.188 399.376 568.396C399.905 568.607 400.314 568.395 400.509 567.875ZM365.676 523.881C365.96 523.988 365.817 524.306 365.691 524.589L365.664 524.649C365.654 524.671 365.645 524.694 365.635 524.717C365.512 525.002 365.364 525.348 364.951 525.151C364.541 524.956 364.215 524.588 364.45 524.106C364.646 523.703 365.072 523.699 365.676 523.881ZM381.572 551.563C381.721 551.278 381.912 550.914 381.499 550.713C381.096 550.517 380.597 550.511 380.368 550.989C380.173 551.397 380.442 551.726 380.799 551.97C381.221 552.246 381.383 551.931 381.524 551.655C381.529 551.645 381.534 551.635 381.539 551.626C381.544 551.616 381.549 551.606 381.554 551.596L381.572 551.563ZM389.214 564.325C389.745 564.435 389.608 564.778 389.495 565.059C389.486 565.08 389.478 565.1 389.471 565.12C389.458 565.151 389.447 565.183 389.434 565.216C389.316 565.535 389.177 565.913 388.674 565.636C388.305 565.431 388.104 565.115 388.201 564.652C388.444 564.281 388.795 564.238 389.214 564.325ZM357.841 510.898C357.96 510.615 358.104 510.27 357.585 510.142C357.171 510.041 356.817 510.086 356.561 510.458C356.457 510.91 356.65 511.225 357.017 511.439C357.515 511.732 357.659 511.362 357.782 511.045C357.795 511.012 357.808 510.979 357.821 510.947C357.828 510.931 357.835 510.915 357.841 510.898Z" fill="#125A45"/>
<g filter="url(#filter0_f_4_4646)">
<path d="M300.939 442.325C300.939 507.123 353.468 559.652 418.266 559.652C483.064 559.652 535.593 507.123 535.593 442.325C535.593 377.527 483.064 324.998 418.266 324.998C353.468 324.998 300.939 377.527 300.939 442.325Z" fill="#AAD9D9" fill-opacity="0.6"/>
</g>
<defs>
<filter id="filter0_f_4_4646" x="-23.061" y="0.998047" width="882.654" height="882.654" filterUnits="userSpaceOnUse" color-interpolation-filters="sRGB">
<feFlood flood-opacity="0" result="BackgroundImageFix"/>
<feBlend mode="normal" in="SourceGraphic" in2="BackgroundImageFix" result="shape"/>
<feGaussianBlur stdDeviation="162" result="effect1_foregroundBlur_4_4646"/>
</filter>
</defs>
</svg>
