<svg width="209" height="168" viewBox="0 0 209 168" fill="none" xmlns="http://www.w3.org/2000/svg">
<path opacity="0.25" fill-rule="evenodd" clip-rule="evenodd" d="M45.12 46.3065C44.5434 46.09 44.2366 45.8558 44.0491 45.9297C43.7809 46.0336 43.5566 46.3383 43.4094 46.6094C43.3655 46.6886 43.6986 47.1146 43.7634 47.0917C44.0579 46.9931 44.319 46.7907 45.12 46.3065ZM170.156 44.5055C170.166 44.6357 170.175 44.766 170.184 44.8963C170.724 44.8646 171.262 44.833 171.8 44.8013C171.791 44.6498 171.784 44.4984 171.773 44.3487C171.235 44.3998 170.696 44.4526 170.156 44.5055ZM42.6557 88.2859C42.4208 88.0183 42.2648 87.6962 42.1053 87.6944C41.9213 87.6926 41.732 87.9725 41.5445 88.1292C41.7215 88.337 41.8705 88.5888 42.0896 88.7244C42.1527 88.7649 42.4191 88.4761 42.6557 88.2859ZM127.021 85.3951C126.899 85.4144 126.778 85.4338 126.655 85.4532C126.739 86.0113 126.823 86.5694 126.907 87.1275C127.03 87.1028 127.154 87.0782 127.277 87.0535C127.193 86.5007 127.107 85.9479 127.021 85.3951ZM201.799 69.5797C201.764 69.7628 201.731 69.9476 201.696 70.1308C202.199 70.1308 202.702 70.1308 203.205 70.1308C203.212 70.0533 203.219 69.9758 203.226 69.9001C202.751 69.7927 202.274 69.6871 201.799 69.5797ZM80.0658 141.253C80.2796 141.19 80.497 141.126 80.7108 141.065C80.4829 140.443 80.2533 139.824 80.0255 139.202C79.8572 139.258 79.6889 139.317 79.5207 139.375C79.7012 140.001 79.8835 140.628 80.0658 141.253ZM84.5843 137.869C84.6877 137.721 84.7929 137.574 84.8963 137.426C84.4108 137.183 83.9253 136.94 83.4398 136.697C83.3767 136.808 83.3136 136.919 83.2505 137.03C83.6957 137.309 84.1391 137.589 84.5843 137.869ZM189.294 54.9141C189.451 54.7908 189.607 54.671 189.765 54.5496C189.394 54.245 189.026 53.9369 188.64 53.6517C188.626 53.6412 188.328 53.9792 188.337 53.9862C188.643 54.3084 188.969 54.6095 189.294 54.9141ZM42.1194 96.8723C42.3192 97.6558 42.4646 98.2209 42.6101 98.7896C42.8134 98.596 43.015 98.404 43.2183 98.2086C42.8888 97.8072 42.5575 97.4058 42.1194 96.8723ZM60.3845 95.8001C60.4125 95.8847 58.5318 96.2033 60.1479 97.2016C60.2705 96.4692 60.3705 95.8794 60.3845 95.8001ZM46.375 46.6692C46.5643 46.9333 46.7518 47.1992 46.9393 47.465C47.3249 47.1358 47.7158 46.8136 48.0716 46.4562C48.0909 46.4351 47.7193 45.9245 47.665 45.9474C47.218 46.1463 46.8009 46.4192 46.375 46.6692ZM67.9405 46.2414C67.2955 44.6251 66.7101 44.6938 65.5708 45.523C66.4261 45.7818 66.9274 45.935 67.9405 46.2414ZM77.647 44.9773C77.7505 45.1287 77.8521 45.2801 77.9538 45.4333C78.3236 45.1921 78.6917 44.9491 79.0615 44.7062C78.9476 44.5389 78.8371 44.3734 78.725 44.2061C78.3657 44.4632 78.0063 44.7203 77.647 44.9773ZM57.5398 44.0213C57.3943 44.2062 57.2471 44.391 57.1016 44.5759C57.4539 44.8364 57.7939 45.1234 58.176 45.3312C58.2251 45.3593 58.4898 44.9913 58.6545 44.8082C58.283 44.5459 57.9114 44.2819 57.5398 44.0213ZM87.9075 42.1903C87.3413 43.4702 87.0311 44.2132 88.3264 44.6322C88.4122 44.2484 88.5718 43.9033 88.5385 43.5776C88.5104 43.2678 88.2808 42.9773 87.9075 42.1903ZM75.7138 144.524C75.7804 144.757 75.8452 144.991 75.9101 145.223C76.4184 145.03 76.9267 144.838 77.4349 144.644C77.3771 144.468 77.3175 144.292 77.2579 144.116C76.7444 144.251 76.2273 144.387 75.7138 144.524ZM77.3789 141.218C77.3789 142.033 77.2895 142.628 77.3946 142.665C77.7872 142.803 78.243 142.758 79.1369 142.806C78.4165 142.155 78.1027 141.873 77.3789 141.218ZM25.0449 73.3808C24.0432 73.1678 23.679 72.9688 23.4325 73.0674C23.1291 73.1889 22.9251 73.5586 22.6787 73.8209C22.756 73.9336 22.8361 74.0481 22.9143 74.1608C23.4113 73.9777 23.9091 73.7963 25.0449 73.3808ZM8.44465 71.1396C8.48777 70.923 8.53159 70.7083 8.57611 70.4917C8.03942 70.3984 7.50397 70.3016 6.96711 70.2065C6.9289 70.423 6.89051 70.6378 6.85073 70.8526C7.38215 70.9477 7.9134 71.0445 8.44465 71.1396ZM14.8169 66.6008C15.7882 68.0744 16.3901 68.21 17.2302 66.9793C16.5319 66.8702 15.9656 66.7804 14.8169 66.6008ZM194.816 66.629C195.123 64.5726 195.123 64.5726 193.244 65.1078C193.807 65.6536 194.207 66.0374 194.816 66.629ZM165.783 90.4004C165.891 90.6504 165.998 90.8987 166.105 91.1487C166.629 90.8811 167.152 90.6117 167.676 90.344C167.59 90.1574 167.506 89.9708 167.421 89.786C166.875 89.9902 166.33 90.1945 165.783 90.4004ZM18.2427 63.4881C18.0512 62.4405 17.6575 61.768 16.5216 62.7539C17.2507 63.0655 17.7464 63.2768 18.2427 63.4881ZM32.4829 76.7506C31.9017 76.6062 31.6011 76.4284 31.406 76.5094C31.1664 76.6079 31.015 76.9214 30.8248 77.145C30.9089 77.2436 30.9931 77.3422 31.0767 77.4425C31.4546 77.2559 31.8332 77.0692 32.4829 76.7506ZM24.5751 52.796C24.7791 52.59 24.9839 52.384 25.1886 52.1763C24.7443 51.84 24.3028 51.5038 23.8434 51.1886C23.8323 51.1816 23.5188 51.5372 23.5447 51.5707C23.8672 51.995 24.226 52.3929 24.5751 52.796ZM190.158 50.326C188.735 51.2415 188.735 51.2414 188.721 52.583C189.083 52.0126 189.471 51.4052 190.158 50.326ZM144.217 92.8036C144.252 92.9251 144.286 93.0466 144.321 93.1698C144.932 93.0114 145.544 92.8529 146.157 92.6945C146.119 92.5571 146.082 92.4215 146.045 92.2877C145.435 92.4585 144.827 92.6311 144.217 92.8036ZM73.6228 140.609C73.635 140.401 73.6491 140.193 73.6631 139.984C73.1075 140.126 72.3573 138.507 71.9244 140.471C72.5291 140.519 73.0759 140.563 73.6228 140.609ZM119.092 87.3388C119.116 87.1803 119.141 87.0201 119.166 86.8616C118.51 86.6539 117.856 86.4443 117.202 86.2366C117.157 86.3986 117.113 86.5606 117.067 86.7226C117.742 86.9285 118.417 87.1328 119.092 87.3388ZM150.254 84.5852C150.355 85.7683 150.355 85.7683 151.824 85.8C151.319 85.4091 150.844 85.0429 150.254 84.5852ZM24.634 81.4901C23.842 81.4901 23.1251 81.4901 22.1515 81.4901C23.9829 82.6415 23.9829 82.6415 24.634 81.4901ZM175.331 78.5481C174.9 79.1432 174.525 79.6573 174.038 80.3299C175.726 80.3598 175.277 79.3492 175.331 78.5481ZM41.4831 51.2379C42.7626 50.3558 42.4296 49.6992 41.5304 49.0865C41.4323 49.0214 41.2202 49.127 40.8679 49.1833C41.0625 49.8365 41.2518 50.465 41.4831 51.2379ZM55.6749 44.6568C55.2981 45.0952 54.9335 45.3347 54.944 45.5512C54.9616 45.8364 55.277 46.1041 55.4646 46.3787C55.7275 46.1657 56.1201 45.9949 56.2095 45.7238C56.2778 45.5195 55.9571 45.1833 55.6749 44.6568ZM60.3459 44.6182C61.9829 45.3435 62.1109 44.3945 62.3581 43.6727C62.3808 43.6058 62.1407 43.4473 61.9602 43.2695C61.5255 43.6322 61.0768 44.0072 60.3459 44.6182ZM138.866 37.2113C138.289 38.8856 138.289 38.8856 138.866 39.8346C138.866 38.817 138.866 38.0124 138.866 37.2113ZM153.505 40.9895C151.819 39.1656 151.819 39.1656 150.583 40.5512C151.451 40.6815 152.187 40.7923 153.505 40.9895ZM159.666 87.6099C159.405 87.5342 159.143 87.4602 158.88 87.3845C158.772 87.9391 158.654 88.4919 158.589 89.0518C158.588 89.0747 159.077 89.1575 159.338 89.2121C159.447 88.6786 159.557 88.1451 159.666 87.6099ZM197.316 59.2574C199.423 58.3771 199.216 57.3999 198.802 55.7749C198.234 57.1024 197.887 57.9158 197.316 59.2574ZM85.6938 112.712C88.0266 112.67 88.0267 112.67 87.3536 110.813C86.812 111.432 86.3248 111.989 85.6938 112.712ZM144.729 96.8318C145.316 96.3565 145.744 96.0132 146.524 95.3829C145.526 95.2878 145.013 95.2367 144.34 95.1734C144.477 95.7508 144.575 96.1716 144.729 96.8318ZM89.4779 94.2931C89.0573 95.4551 89.3727 96.1611 90.682 96.2438C90.2807 95.5942 89.8793 94.9427 89.4779 94.2931ZM200.916 71.5375C200.285 70.865 199.693 70.4002 199.216 71.372C199.072 71.6696 199.498 72.2488 199.742 72.9125C200.246 72.321 200.574 71.9389 200.916 71.5375ZM177.058 83.9056C177.058 83.0429 177.058 82.1785 177.058 81.1133C175.686 82.0658 176.196 83.0253 177.058 83.9056ZM57.2962 111.295C58.8105 109.561 57.2664 109.468 56.4338 109.031C56.6845 109.691 56.9369 110.351 57.2962 111.295ZM194.24 79.9126C195.106 78.3263 194.492 77.8104 192.69 77.7259C193.371 78.6855 193.803 79.2981 194.24 79.9126ZM83.1646 134.526C83.0875 134.848 83.0104 135.17 82.9332 135.494C83.5169 135.663 84.0971 135.857 84.6947 135.959C84.7403 135.968 84.8945 135.357 84.9979 135.035C84.388 134.866 83.7763 134.695 83.1646 134.526ZM192.491 57.5919C192.699 57.6359 192.908 57.6799 193.118 57.7239C193.369 56.8753 193.621 56.0249 193.933 54.9756C191.767 55.3453 192.342 56.5514 192.491 57.5919ZM12.3883 71.9019C12.793 73.9636 12.793 73.9635 14.9811 74.5692C14.7655 73.0216 13.1216 73.1924 12.3883 71.9019ZM44.0754 106.434C43.7985 105.019 43.7985 105.019 41.3552 105.776C42.4331 106.036 43.1798 106.218 44.0754 106.434ZM33.0923 82.3404C32.5618 81.9355 32.2741 81.5464 31.9764 81.5394C31.6477 81.5306 31.3101 81.8703 30.9775 82.0587C31.28 82.4284 31.5306 82.888 31.9154 83.1186C32.0529 83.2013 32.5179 82.7348 33.0923 82.3404ZM66.2018 94.7737C65.4744 93.9427 64.9801 92.6575 63.8812 93.654C63.7182 93.8019 63.8426 94.6047 63.9022 94.6118C64.6611 94.7191 65.4323 94.735 66.2018 94.7737ZM192.531 53.8524C193.469 53.2767 193.914 52.6746 193.172 51.9879C192.608 51.4686 191.818 50.9299 191.073 51.7961C190.817 52.0936 190.734 52.5425 190.503 53.0848C191.18 52.8735 191.598 52.7415 192.028 52.6077C192.196 53.0267 192.329 53.3524 192.531 53.8524ZM147.279 88.6503C146.178 88.2489 145.502 88.0042 144.918 87.7912C144.016 88.7331 143.782 89.4937 144.697 90.2525C145.458 89.7807 146.163 89.3423 147.279 88.6503ZM131.259 92.2138C131.683 89.7508 131.501 89.506 129.584 89.1662C130.141 90.1803 130.7 91.198 131.259 92.2138ZM198.361 65.0462C196.767 65.5638 196.061 66.5779 196.073 68.1976C196.718 67.93 197.246 67.5304 197.593 67.0075C197.91 66.5304 198.029 65.9247 198.361 65.0462ZM92.8887 43.3628C91.3691 42.7272 90.4436 44.0794 89.2238 44.4527C90.7819 45.2168 91.7109 43.8769 92.8887 43.3628ZM177.375 44.8734C176.669 44.9456 175.331 45.0812 173.817 45.2344C175.393 48.3242 176.597 43.9015 177.375 44.8734ZM182.025 58.2891C185.101 58.7222 185.101 58.7222 185.182 57.0866C184.083 57.5056 183.054 57.8982 182.025 58.2891ZM88.57 40.1497C89.881 39.6656 90.2105 43.2132 91.9037 40.9367C91.4462 40.3734 90.9993 39.8258 90.4962 39.2096C89.8039 39.5476 89.187 39.8487 88.57 40.1497ZM193.108 80.7207C191.541 77.2577 191.541 77.2576 189.544 78.3862C190.626 79.0922 191.707 79.8035 193.108 80.7207ZM42.4436 100.23C41.6917 101.353 42.5873 101.76 43.3358 102.342C43.7143 102.635 43.8581 103.235 44.2156 103.894C44.3944 103.788 44.9377 103.629 45.1586 103.269C45.283 103.066 44.957 102.445 44.6801 102.168C44 101.49 43.2306 100.902 42.4436 100.23ZM23.842 79.5623C23.7652 79.6978 23.6893 79.8351 23.6118 79.9707C24.8936 80.5077 26.1752 81.0446 27.5986 81.6397C27.3288 80.7999 27.0933 80.0675 26.8838 79.4126C25.8487 79.4637 24.8456 79.5112 23.842 79.5623ZM68.0579 93.1416C68.0561 90.5184 67.8931 90.2807 65.8985 90.2454C66.6189 91.2895 65.9634 93.1258 68.0579 93.1416ZM148.995 91.0043C148.785 89.3581 148.595 87.8652 148.401 86.344C146.764 87.5606 148.094 88.9849 147.945 90.2332C147.454 90.4603 147.074 90.6381 146.285 91.0043C147.391 91.0043 148.019 91.0043 148.995 91.0043ZM199.773 77.2453C199.027 74.8703 197.111 75.8351 195.919 75.2523C195.844 75.2154 195.658 75.4055 195.465 75.5252C195.931 76.1925 196.396 76.8545 196.885 77.5499C197.751 77.4583 198.562 77.3721 199.773 77.2453ZM13.0757 60.5215C11.6933 61.2081 11.0683 62.2944 11.3675 63.7821C11.9932 64.1923 12.5671 64.5656 13.1325 64.9353C13.3947 64.0603 13.6529 63.1976 13.9747 62.1236C13.7624 61.7433 13.4119 61.1201 13.0757 60.5215ZM195.376 57.3331C195.872 55.7908 196.447 54.6341 196.581 53.4263C196.759 51.8453 194.622 52.3312 194.359 50.9879C194.182 51.0724 194.003 51.1569 193.826 51.2414C194.296 53.0883 194.766 54.9351 195.376 57.3331ZM13.822 54.6112C12.7047 54.157 11.8714 53.7819 11.1423 54.671C10.35 55.6376 10.1646 56.694 10.9491 57.7767C11.5906 57.7767 12.2123 57.7767 12.8861 57.7767C13.1859 56.7626 13.4625 55.826 13.822 54.6112ZM180.807 49.1305C181.93 49.4985 182.875 49.8083 183.625 50.0565C184.009 50.9703 184.309 51.6869 184.723 52.6781C185.49 52.1006 186.018 51.7045 186.75 51.1517C185.739 50.5619 184.996 50.127 184.277 49.7079C184.693 48.6357 185.236 47.7643 183.999 47.0266C183.133 46.5107 182.376 45.8048 181.443 45.0847C179.519 46.0231 181.193 47.7661 180.807 49.1305ZM60.111 101.742C59.3924 102.739 58.7474 103.631 57.7554 105.004C59.4117 104.545 60.5194 104.239 61.6587 103.923C62.0758 106.186 59.8604 106.063 58.8929 107.505C59.6904 107.267 60.0094 107.172 60.565 107.005C60.1882 107.878 59.8692 108.612 59.5134 109.434C60.3617 109.83 60.9366 110.834 62.0058 109.922C62.2161 109.74 62.8506 109.677 62.9592 109.818C63.96 111.121 64.6155 109.748 64.6874 109.348C64.8522 108.415 64.9135 107.198 64.4438 106.471C63.3361 104.758 62.5018 102.71 60.111 101.742ZM65.0958 103.746C65.0835 105.274 65.9126 106.397 66.9379 107.939C67.4742 105.642 66.2193 104.746 65.0853 103.788C65.0257 103.152 64.9643 102.519 64.9082 101.925C67.2481 101.107 68.3891 99.7579 67.5303 98.9551C67.15 99.0854 66.7714 99.2174 66.3683 99.3565C66.0195 96.7015 64.5577 95.7649 61.338 96.1029C61.6394 97.3881 61.9374 98.6594 62.2196 99.8636C62.833 99.6435 63.3904 99.4445 64.0389 99.2121C64.2545 99.9445 64.4087 100.469 64.5419 100.92C63.9635 101.1 63.4202 101.269 62.9697 101.408C63.4675 102.07 63.8391 102.617 64.272 103.114C64.4929 103.365 64.8259 103.52 65.0958 103.746ZM170.198 87.2648C170.257 86.2912 170.564 85.2437 170.305 84.3669C170.049 83.5007 171.959 82.4038 170.052 81.8527C169.362 82.3387 168.696 82.8052 168.035 83.2718C168.659 81.9936 167.048 82.5781 166.924 81.925C166.904 81.8352 166.903 81.7383 166.864 81.6591C166.854 81.6362 166.741 81.6608 166.657 81.6661C166.657 82.2894 166.657 82.9126 166.657 83.6573C167.236 83.4742 167.669 83.3369 168.103 83.1996C167.502 84.6239 168.447 85.9355 168.179 87.388C168.918 87.388 169.444 87.388 169.97 87.388C170.18 87.631 170.389 88.0782 170.601 88.08C171.433 88.0888 172.499 87.0359 172.888 88.6997C173.13 88.6029 173.433 88.5641 173.588 88.3898C173.71 88.2489 173.754 87.8158 173.656 87.7366C172.585 86.8757 173.333 86.1698 173.928 85.3792C173.393 84.9602 172.911 84.5799 172.296 84.0993C171.938 84.7683 171.248 85.5095 171.407 85.8528C172.143 87.4444 170.599 86.8212 170.198 87.2648ZM17.8552 50.5249C17.335 50.671 16.8146 50.8154 16.2902 50.9615C15.9246 50.3735 15.5816 49.8206 15.1118 49.0654C14.3504 50.171 14.5415 50.8418 15.3768 51.3312C15.9999 51.6974 16.6817 51.9615 17.3383 52.2697C17.4999 52.4616 17.6615 52.6517 17.8238 52.8436C19.0178 53.215 20.2119 53.5848 21.4709 53.9774C21.1971 52.9404 20.9507 52.0073 20.6979 51.0531C19.9742 51.3171 19.4142 51.5214 18.8549 51.7239C19.0746 49.5935 18.6802 49.1041 16.788 49.1552C16.7804 49.245 16.7303 49.3753 16.7729 49.4193C17.1241 49.7978 17.4924 50.1587 17.8552 50.5249ZM191.078 59.6289C192.503 60.0567 192.503 60.0567 192.494 58.5602C192.007 58.9405 191.513 59.3261 191.02 59.7117C190.85 58.9423 190.903 57.9985 190.466 57.4404C189.611 56.3506 189.153 56.9299 189.104 57.6517C189.9 58.4546 190.486 59.0444 191.078 59.6289ZM186.051 79.1344C185.413 78.9055 184.775 78.6749 184.085 78.4267C184.027 78.9302 183.979 79.3528 183.883 80.219C184.815 79.7489 185.422 79.4425 186.004 79.1274C186.125 78.6133 186.316 78.101 186.339 77.5816C186.353 77.2735 186.162 76.8967 185.944 76.6608C185.827 76.5341 185.269 76.5675 185.236 76.6555C185.087 77.0446 184.887 77.5464 185.024 77.8756C185.222 78.3562 185.695 78.7207 186.051 79.1344ZM91.9685 119.756C92.1859 119.501 92.5347 118.991 92.603 119.026C93.5162 119.498 94.3925 120.045 95.2268 120.543C94.6344 121.575 94.0683 122.561 93.4811 123.582C93.9298 124.094 94.3417 124.566 94.9569 125.267C93.9509 126.054 93.0359 126.769 91.6741 127.836C91.5514 126.595 91.5093 125.758 91.3726 124.938C91.2499 124.205 91.0203 123.492 90.8643 122.871C89.5778 122.776 89.7215 125.2 88.3141 123.728C88.0319 124.031 87.4553 124.422 87.5149 124.624C87.7602 125.461 87.9916 126.529 88.6121 126.978C89.6076 127.698 89.6584 128.559 89.8548 129.575C88.9311 129.871 88.1563 130.121 87.3799 130.371C87.7287 129.975 88.0757 129.579 88.4315 129.172C87.8409 128.415 87.3536 127.788 86.7875 127.061C86.2354 127.721 85.9602 128.049 85.6605 128.41C87.1082 129.117 87.1082 129.117 87.3887 130.371C88.8907 130.357 87.8041 131.799 88.4473 132.269L88.5297 132.184C87.1047 132.801 86.8138 131.355 85.9041 130.331C85.1785 131.5 84.1146 132.093 84.5177 133.612C85.1241 133.38 85.5869 133.2 86.3388 132.913C86.1197 133.795 85.8638 134.399 85.8726 135C85.8761 135.223 86.4913 135.438 86.8278 135.658L86.7244 135.574C86.7016 135.936 86.8085 136.383 86.635 136.64C86.0671 137.482 84.735 138.067 85.9181 139.387C85.9812 139.457 85.7674 139.855 85.6079 140.037C85.0155 140.716 84.388 141.369 83.7132 142.1C83.8937 142.785 84.0935 143.544 84.3004 144.331C83.3557 143.929 82.5582 143.591 81.3716 143.089C81.7642 144.75 82.0376 145.91 82.4302 147.568C82.3163 147.774 81.8886 148.542 81.4627 149.313C79.6785 148.709 80.39 147.482 80.8107 146.586C81.5503 145.005 80.8685 144.23 79.5698 143.595C77.5419 147.452 77.8784 147.13 75.6034 146.618C75.84 147.273 76.0643 147.887 76.3658 148.725C74.1135 148.598 74.3186 146.931 74.1223 145.792C73.905 144.517 74.0732 143.176 74.0732 141.69C72.4117 142.304 70.6169 143.616 67.9773 142.662C69.2568 142.104 70.1647 141.693 69.9719 140.318C69.8141 139.199 70.0542 138.096 68.5855 137.693C68.4312 137.649 68.4943 136.806 68.759 136.294C68.8782 136.637 68.9956 136.978 69.2217 137.639C69.9421 136.702 70.5257 135.94 71.2741 134.968C70.5695 134.625 70.0542 134.373 69.7913 134.244C69.1656 132.461 68.6047 130.869 68.0246 129.22C67.3813 129.058 66.6592 128.876 65.6076 128.612C66.1579 127.862 66.5313 127.478 66.7451 127.021C66.9186 126.653 66.8993 126.191 66.9642 125.772C66.5541 125.709 66.1387 125.568 65.7373 125.603C65.3902 125.633 64.9486 126.07 64.7523 125.961C64.3877 125.756 64.1721 125.285 63.5411 124.468C64.9801 124.646 65.8179 124.751 66.5225 124.837C66.3928 121.482 66.1597 118.26 66.1913 115.043C66.2053 113.746 66.7994 112.452 67.1272 111.158C67.0273 110.448 66.9274 109.74 66.8292 109.033C66.3683 109.325 66.1439 109.637 66.2228 109.797C66.4647 110.283 66.8222 110.709 67.1342 111.159C66.6978 111.651 66.0878 112.073 65.8617 112.649C65.4937 113.591 65.059 114.035 63.9986 113.786C63.8268 113.746 63.4991 114.367 63.1538 114.79C62.7997 113.969 62.656 112.77 62.1039 112.534C60.8928 112.013 59.4748 111.982 58.0691 111.739C57.8553 113.957 59.0612 114.237 60.6316 114.337C59.6571 114.737 58.8351 115.07 57.9938 115.415C57.6835 114.827 57.347 114.186 56.8615 113.262C56.4899 114.929 56.213 116.167 55.9255 117.447C56.7388 117.999 57.4592 118.491 58.5406 119.228C57.2208 119.637 56.3059 119.918 55.3121 120.226C55.1894 119.799 55.0422 119.547 55.058 119.306C55.1211 118.429 55.7696 117.098 54.4585 117.017C53.6715 116.968 52.0117 116.952 51.8452 118.603C52.6462 119.232 53.4332 119.848 54.2184 120.464C54.1693 120.6 54.1167 120.735 54.0677 120.871C53.4665 120.825 52.8653 120.779 52.0398 120.716C52.1379 121.341 52.229 121.91 52.3482 122.663C51.8592 122.57 51.2318 122.637 51.0477 122.38C50.5149 121.642 50.1573 120.772 49.6824 119.86C48.0751 120.112 46.4468 120.367 44.8168 120.623C44.7554 120.427 44.6959 120.232 44.6345 120.036C45.9385 119.244 47.2408 118.454 48.813 117.499C48.4975 117.082 48.0979 116.529 47.6702 116.001C47.2969 115.542 46.8903 115.107 46.3154 114.452C46.091 114.922 45.8982 115.322 45.581 115.989C44.6748 115.818 43.7056 115.637 42.7135 115.448C42.6347 114.728 42.5663 114.101 42.4822 113.337C43.362 113.337 44.1858 113.337 45.1358 113.337C44.9132 112.272 44.7327 111.402 44.5749 110.644C43.2113 109.953 41.2009 110.052 40.8556 108.409C40.6278 107.327 38.3177 106.258 40.5489 104.969C40.0844 104.644 39.7181 104.39 39.2694 104.075C39.4412 103.786 39.5253 103.439 39.6918 103.395C40.9626 103.054 40.9976 102.256 40.5419 101.205C40.1353 101.392 39.7304 101.578 39.0819 101.876C39.0293 101.036 38.9837 100.314 38.9399 99.5925C37.7656 99.647 36.6894 99.6963 35.6133 99.7456L35.4552 99.64C35.2154 98.9868 34.9751 98.3336 34.63 97.397C36.076 97.4498 37.3222 98.7403 38.2511 97.4005C37.9759 96.1751 37.7183 95.0272 37.4431 93.8054C39.5797 93.3019 40.0336 96.0272 41.8424 95.867C41.3219 94.2737 40.8013 92.6803 40.2807 91.0853L40.2054 91.161C40.5717 90.6927 40.9345 90.2261 41.3762 89.661C40.6488 89.5377 40.137 89.4515 39.6252 89.3634L39.7024 89.4127C38.8155 88.8018 38.8172 87.9127 39.0311 87.013C39.2169 86.2349 39.5078 85.4831 39.5989 84.6045C39.0153 86.5852 37.8164 87.7402 35.6203 87.7578C35.6203 87.2613 35.6203 86.6803 35.6203 86.0183C34.7465 85.8652 33.9583 85.7243 33.0765 85.5693C32.6843 86.2471 32.2796 86.9443 31.8765 87.6415L31.9641 87.543C31.4341 88.08 30.9049 88.6187 30.3742 89.1557L30.4133 89.2279C30.5063 88.4374 30.6008 87.6468 30.6741 87.0324C29.9874 86.3845 29.2637 85.7067 28.4229 84.9144C28.5687 85.5218 28.6846 85.9989 28.82 86.5588C27.5206 86.9373 26.7865 86.6504 26.4642 85.3405C26.076 83.7718 26.0329 83.8704 24.1282 84.0904C23.5051 84.1626 22.6827 83.8193 22.1851 83.3897C21.1533 82.5024 20.3406 81.3615 19.3198 80.4601C18.4694 79.7101 17.4219 79.432 16.2565 79.8668C14.9448 80.3545 15.4282 81.0183 15.926 81.7701C16.6497 81.3986 17.3246 80.7665 17.9292 80.8281C18.49 80.8862 19.3417 81.6292 19.4251 82.1714C19.6833 83.844 20.8329 84.4391 22.2351 84.8563C21.7406 86.5746 20.5111 85.4584 19.6736 85.7524C19.6183 86.3827 19.5608 87.0201 19.5047 87.6574C19.3212 87.6627 19.1391 87.668 18.957 87.6733C18.8521 87.1574 18.7494 86.6416 18.5645 85.7314C17.9073 86.5712 17.4787 87.1205 16.9769 87.7631C16.0424 85.5483 19.0979 85.7313 18.8823 83.7348C18.1106 83.6345 17.2391 83.3687 16.3936 83.4356C13.6694 83.6486 12.9846 83.0499 13.0319 80.4003C13.0566 78.9689 12.5588 78.2646 11.9364 77.3421C9.94885 77.9213 9.97426 77.9038 8.63781 75.9601C8.44133 75.6767 7.87432 75.6484 7.48609 75.497C7.76758 74.916 7.92094 74.2119 8.35369 73.8069C8.70423 73.4794 9.39025 73.5164 10.0508 73.3633C9.18413 72.1291 8.33792 72.4794 7.59301 73.041C6.62288 73.7717 7.0041 74.6343 7.54779 75.4495C7.3883 76.5674 6.24832 77.52 7.41283 78.8879C7.85662 79.4073 7.3478 80.807 7.12871 81.7736C7.09032 81.9461 6.34069 81.9549 5.91969 82.0394L6.00049 82.1027C4.40113 80.9161 5.95667 79.7876 6.10793 78.6978C5.46433 77.6168 4.85981 76.601 4.15452 75.4178C4.94394 74.9689 5.5411 74.6308 6.16753 74.2752C5.50062 72.46 4.85297 70.6941 4.12857 68.7223C2.87222 69.3667 2.35868 66.8473 0.677293 67.8191C0.612792 67.2117 0.451368 66.5973 0.514291 66.0058C0.567749 65.5286 0.794371 64.8085 1.1188 64.6941C1.49669 64.5603 2.1664 64.849 2.52781 65.1641C3.15301 65.7082 3.63624 66.4142 4.38115 67.2874C5.19389 66.5885 5.98611 65.9071 6.81375 65.1941C7.79965 64.8877 7.52238 67.1695 8.85199 66.2786C9.36011 66.7293 8.49741 68.0621 9.90783 67.9335L9.84473 67.8631C10.9793 68.3895 12.1138 68.9177 13.344 69.4882C13.5598 67.6712 13.1428 66.3614 12.376 65.6553C10.8855 65.9388 9.83929 66.1378 8.7938 66.3367C8.93962 65.6342 9.37781 64.4229 9.18746 64.3138C7.95179 63.6042 9.08686 63.2698 9.20113 62.7047C9.31068 62.1518 8.72544 61.4581 8.50705 60.9687C9.22795 59.5479 11.657 62.1536 11.5098 59.15C10.8184 59.3085 10.1364 59.3859 9.5161 59.6253C7.46629 60.4194 6.16963 59.2205 4.94062 57.9141C4.24567 57.1764 4.37782 56.1693 5.03579 55.6429C6.07165 54.8154 7.33273 54.2732 8.69863 53.4967C8.6159 52.7098 8.713 51.5813 7.01163 51.5725C6.66933 51.5707 6.33245 50.745 5.69709 49.9122C7.94548 50.2995 9.54151 50.6288 10.5048 52.3401C10.6596 52.6165 11.4332 52.539 11.9207 52.6253C12.0179 52.4175 12.1145 52.2133 12.2102 52.0056C11.5673 51.3242 10.9244 50.6394 10.1557 49.8225C10.8669 48.877 11.5195 47.8805 13.0634 48.7784C13.357 48.9492 13.8597 48.759 14.2656 48.7344C14.1088 48.2978 13.978 47.8471 13.7864 47.4245C13.6241 47.0636 13.3914 46.7343 13.1893 46.391L13.1867 46.3769C14.2088 45.4561 12.4752 45.3276 12.6903 44.6392C14.7161 44.6639 14.6421 44.6939 15.1653 46.5108C15.374 47.2361 16.0362 47.8312 16.7154 48.8031C17.8559 47.5724 18.785 46.5671 19.8121 45.458C19.1945 44.7643 18.818 43.8664 19.7895 42.9562L19.7318 43.0054C20.6534 43.4121 21.5764 43.8188 22.7006 44.3153C22.0009 45.9984 21.3552 47.5495 20.6152 49.3294C22.3027 49.8576 23.6337 50.2748 25.3146 50.8013C24.0686 48.2801 23.8577 46.1639 24.7518 43.6428C25.8288 44.4632 26.6633 45.0988 27.6384 45.84C28.1265 43.8012 26.3554 42.9931 25.4529 41.4966C27.1441 41.0406 28.6064 40.6463 30.5433 40.1251C29.7388 41.8206 29.1138 43.1428 28.5736 44.2819C29.9292 44.9967 31.161 45.6463 32.5733 46.3893C33.0238 44.8277 34.1392 44.259 35.8218 44.8488C35.913 45.6921 36.0094 46.5653 36.1145 47.5371C37.1556 47.6762 38.1091 47.8048 39.1012 47.9386C39.1187 45.8435 37.2152 47.9897 36.8612 46.5108C37.3029 46.2731 38.0513 45.6339 38.2791 45.7836C40.4753 47.2396 41.7916 45.1621 43.369 44.5019C45.106 43.7766 46.6466 42.5794 47.8998 41.8135C49.4948 42.5195 50.7761 43.0864 52.0573 43.6551C51.8943 44.5266 51.7295 45.3963 51.4421 46.9157C52.4254 45.8769 52.9932 45.2766 53.6014 44.634C52.9319 44.259 52.4569 43.9931 51.9819 43.7273C51.9486 43.1128 51.9153 42.4984 51.8715 41.692C52.5586 41.9526 53.0125 42.1252 53.7907 42.4209C53.7907 41.259 53.817 40.2766 53.7855 39.2959C53.6961 36.6269 54.1886 36.2254 56.7406 36.9244L56.7318 36.942C57.4749 36.824 58.5108 36.3152 57.9868 37.8979C57.2944 38.0159 56.5933 38.1251 55.8975 38.2325C55.4155 39.0565 54.9388 39.8681 54.4217 40.7536C56.1587 40.7167 57.3558 39.6638 57.9272 37.8275C59.2855 38.9015 59.9866 40.2096 59.1926 42.1762C60.1005 42.3241 60.8454 42.4455 61.9461 42.6251C61.699 41.7061 61.5483 41.1462 61.338 40.361C63.2537 39.3469 64.6313 37.0018 67.5882 38.0793C66.9099 38.6445 66.1912 39.1691 65.5603 39.7801C64.4 40.9016 64.4333 41.7819 65.8039 42.6886C67.4111 43.7555 68.6521 45.3822 70.6011 45.9156C71.02 46.0301 71.4792 45.9949 72.3363 46.0618C71.7912 45.3857 71.4442 44.6639 71.197 44.6956C69.3163 44.9474 68.4891 43.3435 67.32 42.4773C66.165 41.6216 66.3683 41.0459 67.6302 39.9244C67.9475 39.6427 68.2314 39.2818 68.4154 38.8998C69.0289 37.6357 69.9736 36.8768 71.5984 36.7342C72.3713 37.8117 73.2039 38.9719 74.1118 40.2377C74.4764 39.2272 75.8417 38.4983 75.3983 36.7888C75.2423 36.192 75.698 35.4331 75.8382 34.8856C77.8661 34.7641 76.2606 38.1761 78.9563 36.7853C78.3394 38.4877 77.8819 39.7518 77.4612 40.9121C76.825 41.2378 75.7383 39.3223 75.6489 41.4138C75.6472 41.4385 74.5307 41.4174 73.5772 41.4174C75.2756 42.5829 74.5587 44.5953 75.8137 46.5442C76.1853 44.546 76.4061 43.0371 78.6513 43.4157C79.3647 43.5371 80.327 42.1815 81.1753 41.5002C81.3225 43.4298 82.6774 43.1252 83.9604 43.1445C83.601 41.3434 82.2917 41.5846 81.1244 41.5494C81.3786 41.1251 81.6345 40.7026 81.8886 40.28L81.8098 40.3558C83.9341 39.7096 84.1567 39.5054 84.9016 37.3663C85.2556 37.7484 85.5343 38.0494 85.8918 38.435C88.1143 36.773 90.5997 39.0406 93.1534 37.949C93.0868 39.1497 93.0342 40.1004 92.9851 40.993C94.0508 41.5089 95.2864 40.0389 96.0524 41.5301C96.6325 40.9174 98.1925 42.1304 98.217 40.3029C98.2222 39.9561 99.1266 39.6181 99.84 39.1198C100.152 41.0142 100.538 42.5476 98.3257 43.0917C98.1819 43.1269 98.1381 43.567 98.0487 43.817C96.778 43.9843 95.5055 44.1534 94.2348 44.3206C95.651 44.884 97.0444 45.2467 97.9961 43.7572C99.3177 43.8576 100.639 43.9579 102.178 44.0741C101.957 42.8628 101.705 41.4244 103.31 40.5213C103.757 40.8329 104.266 41.1832 104.774 41.5353C104.723 41.9719 104.672 42.4121 104.623 42.8505C103.594 42.4896 103.552 43.1903 103.596 43.8734C103.603 44.002 103.992 44.1058 104.204 44.222C104.345 43.7836 104.485 43.3435 104.625 42.9051C105.366 43.0107 106.031 42.0019 106.918 43.0547C107.708 43.9931 108.884 43.7308 109.86 42.8734C110.379 42.4192 111.047 42.1374 111.848 41.6568C111.14 41.4209 110.574 41.2308 110.029 41.0494C109.424 41.9403 108.905 43.4386 107.831 42.3223C106.783 41.2325 105.833 41.4526 104.711 41.597C105.38 40.1286 106.052 38.6603 106.721 37.192L106.716 37.2184C107.065 37.4402 107.412 37.662 107.601 37.7835C107.554 38.817 107.506 39.8152 107.461 40.7659C109.552 41.1409 109.866 40.0248 109.911 38.7395C110.705 38.5124 111.408 38.3082 112.228 38.0723C112.454 38.2765 112.723 38.5089 112.984 38.7501C113.879 39.5723 114.531 41.0864 116.174 39.8241C116.259 39.7572 116.92 40.4438 117.157 40.6463C117.436 39.773 117.592 38.7642 118.065 37.9385C118.529 37.1304 119.318 36.5124 119.965 35.8117C121.379 37.2765 119.395 37.3451 119.402 38.3663C120.012 38.4525 120.589 38.5335 121.239 38.6268C121.143 37.5599 121.057 36.6145 120.966 35.6233C123.362 35.0511 122.359 38.6093 124.76 37.9033C124.515 37.0599 124.238 36.118 123.921 35.0317C124.999 33.9384 125.957 35.4191 127.177 35.8645C127.305 34.8592 127.405 34.0687 127.54 33C128.558 33.5299 129.463 33.9983 130.264 34.412C130.469 36.3698 129.459 37.8258 128.763 39.5494C130.281 38.0036 131.939 38.3346 133.652 38.729C134.833 39.0001 136.035 39.0459 137.017 37.5758C135.816 37.4649 134.689 37.6198 133.832 37.2078C133.003 36.8117 132.451 35.8328 131.612 34.9296C132.304 34.5141 131.499 32.7113 133.364 33.0951L133.319 33.0352C133.319 33.7219 133.319 34.4103 133.319 35.118C135.559 35.9279 138.307 34.155 140.012 36.6268C140.862 36.0969 141.476 35.7149 142.088 35.3346C142.401 35.53 142.715 35.7272 143.029 35.9226C142.855 36.5388 142.682 37.1568 142.475 37.8892C143.157 38.037 143.754 38.1656 144.293 38.28C145.542 36.6955 144.652 35.4349 144.035 34.1514L143.989 34.2077C144.38 33.9894 144.771 33.7694 145.398 33.4173C146.077 35.5406 146.71 37.5159 147.334 39.4702C148.119 39.0723 148.119 39.0723 147.504 37.7519C148.298 37.2184 149.114 36.6673 149.921 36.1286C149.891 37.6726 149.891 37.6726 151.184 37.5599C150.708 37.0529 150.29 36.611 149.875 36.1673C150.026 35.736 150.175 35.3046 150.355 34.7835C151.289 35.7782 152.175 36.7272 152.888 37.4895C153.985 37.6761 154.914 37.8328 155.839 37.993C156.151 39.0282 155.45 39.4772 154.783 40.0388C153.962 40.7307 154.332 41.4174 155.093 42.0336C154.865 40.604 157.002 39.6533 155.768 38.0635C155.829 37.6427 155.892 37.2237 155.997 36.523C157.441 37.5142 158.016 39.5916 160.523 38.1568C160.078 39.3716 159.89 39.8874 159.702 40.405C162.721 42.398 162.999 42.3646 163.681 39.9315C164.133 39.9315 164.587 39.9315 165.075 39.9315C165.246 38.9878 165.416 38.0547 165.583 37.1392C165.995 37.185 166.252 37.1339 166.342 37.2343C167.641 38.6868 167.611 38.6603 169.216 37.4085C169.584 37.1233 170.187 37.1427 170.836 36.9825C170.51 36.4578 170.277 36.0828 169.928 35.5229C170.548 35.5881 171.058 35.7377 171.53 35.662C171.908 35.6004 172.243 35.2641 172.962 34.831C172.748 35.8064 172.794 36.8451 172.429 37.0211C171.372 37.53 171.674 39.5564 169.902 39.1691C169.251 39.0247 168.685 39.2818 168.421 40.0652C168.363 40.2378 167.632 40.1762 167.064 40.2396C167.206 40.6691 167.367 41.1445 167.525 41.6234C167.663 42.0424 167.798 42.4667 168.066 43.2977C168.591 42.2731 168.78 41.4456 169.297 41.0125C169.858 40.5442 170.724 40.4455 171.57 40.1462C171.837 40.368 172.236 40.7008 172.634 41.0335L172.576 40.9244C172.659 42.5988 174.204 42.5125 175.2 43.0195C175.516 43.1815 176.122 42.7695 176.595 42.6216L176.527 42.6727C177.061 42.53 177.608 42.2431 178.132 42.2819C178.89 42.3382 179.631 42.6287 180.739 42.9103C181.138 42.7889 182.029 42.5178 182.921 42.2449L182.84 42.1709C182.632 44.2026 184.288 44.759 185.583 45.4262C187.672 46.502 187.721 46.4104 189.585 45.1798C189.944 45.7889 190.298 46.3911 190.834 47.303C189.267 47.5354 187.998 47.7238 186.51 47.9474C187.729 49.4157 189.281 48.5601 190.557 48.8436C190.852 49.2344 191.167 49.9685 191.437 49.9527C192.484 49.8928 193.512 49.5935 194.55 49.3805L194.455 49.4403C195.398 49.6463 196.34 49.8524 197.354 50.076C197.538 51.0777 197.715 52.0372 197.893 52.9897C199.65 52.8136 201.247 52.8981 202.245 54.59L202.29 54.532C201.652 55.5937 201.011 56.6553 200.336 57.775C200.776 57.7521 201.193 57.7275 201.782 57.694C201.782 58.3771 201.782 59.0479 201.782 59.9546C201.133 59.5409 200.713 59.2715 200.064 58.8578C200.064 59.5127 200.064 59.9863 200.064 60.5866C198.911 60.6694 197.791 60.7469 196.687 60.8261C196.758 63.0603 197.344 63.1008 200.886 61.1272C201.224 61.6483 201.564 62.1712 201.996 62.8332C203.356 61.592 203.785 60.1448 203.931 58.5602L203.859 58.6412C204.488 58.6694 205.115 58.6976 206.099 58.7433C205.634 60.0039 205.261 61.0233 204.79 62.305C205.571 62.5515 206.463 62.8331 207.688 63.2169C207.569 64.1571 207.422 65.3297 207.261 66.5022C207.25 66.5744 207.159 66.6694 207.089 66.687C207.031 66.7011 206.951 66.6114 206.865 66.5674C206.409 65.9142 207.569 64.6553 205.916 64.3895C205.052 64.2522 204.497 62.775 203.235 63.7926C204.162 65.2398 202.686 67.3279 204.811 68.8209C204.56 67.724 204.367 66.886 204.06 65.5426C205.275 65.9722 206.097 66.2628 206.917 66.5533C206.563 66.5357 206.209 66.518 205.822 66.4987C205.822 67.8649 205.79 69.2311 205.834 70.5956C205.86 71.4037 205.3 72.1326 206.532 72.9601C207.568 73.6537 205.634 74.3227 205.326 75.1502C205.871 76.0305 206.398 76.8826 207.022 77.8914C207.482 77.7611 207.99 77.6168 208.5 77.4741L208.421 77.3826C208.188 78.2048 207.953 79.027 207.615 80.219C206.327 79.0763 205.042 78.7524 205.024 77.0728C205.012 75.8333 204.001 75.8421 202.588 76.5076C203.682 75.196 204.388 74.3492 205.119 73.4706C203.578 73.2259 202.089 72.3139 200.532 73.7999C200.841 74.1291 201.142 74.5041 201.496 74.821C202.369 75.6027 202.073 76.2946 201.319 76.8826C200.108 77.8298 198.853 78.7206 197.617 79.6379C196.948 79.1273 196.443 78.7435 195.526 78.0463C195.807 79.4742 196.01 80.5218 196.229 81.6468C195.882 81.9038 195.37 82.2823 194.818 82.689C196.064 82.9954 197.19 83.2718 198.313 83.5464C198.574 84.5993 198.04 84.7261 197.134 84.8581C196.508 84.9479 195.966 85.6204 195.362 86.0518C194.403 85.212 192.79 85.1204 192.661 83.4109C192.13 83.3721 191.59 83.3317 191.309 83.3106C190.817 84.0007 190.403 84.5817 189.935 85.2366C190.044 85.4215 190.303 85.8616 190.564 86.3018C190.479 86.4021 190.394 86.5007 190.307 86.6011C189.613 86.2314 188.919 85.8634 188.137 85.4461C187.62 85.8475 186.917 86.1503 187.438 87.138C187.615 87.4725 187.532 87.9444 187.569 88.3546L187.653 88.2877C186.309 88.7173 184.966 89.1451 183.454 89.6275C183.471 90.4726 183.079 91.5871 184.525 92.0554C184.547 92.0624 184.335 92.8018 184.125 93.624C182.556 91.6381 180.947 90.1768 181.906 87.4532C183.084 87.6697 184.2 87.874 185.318 88.08C185.361 87.9726 185.401 87.8634 185.443 87.7542C184.02 87.2173 182.597 86.682 180.979 86.0711C180.723 86.4989 180.43 86.9937 180.036 87.6539C179.792 87.4303 179.492 87.1521 179.159 86.8422C178.45 87.1574 177.719 87.4814 176.993 87.8036C176.962 87.249 176.926 86.6944 176.867 85.7578C176.078 86.3264 175.652 86.6363 174.888 87.1856C175.894 87.4426 176.478 87.5923 177.061 87.7419C178.665 88.742 179.471 90.1821 179.426 92.3124C178.113 92.242 176.8 92.1716 175.447 92.0994C175.13 91.0307 174.807 89.9479 174.362 88.4514C173.921 89.5729 173.652 90.256 173.302 91.1504C172.667 90.6504 172.206 90.2859 171.416 89.6627C170.941 90.6627 170.526 91.5377 170.112 92.4092C168.489 91.5712 168.489 91.5712 167.104 92.9321C165.963 94.0536 165.963 94.0536 164.884 92.5219C164.34 93.4409 163.802 94.3547 163.266 95.2666L163.275 95.2772C162.929 95.0008 162.584 94.7226 162.267 94.4673C162.875 92.5923 165.173 91.492 164.221 88.9021C162.833 90.3282 162.708 92.5993 160.365 93.4515C160.519 92.58 160.63 91.9621 160.735 91.3652C159.021 91.5712 158.346 89.8793 156.812 89.0148C156.684 90.2789 156.57 91.4128 156.446 92.654C156.25 92.7261 155.846 92.8741 155.433 93.0237C156.057 95.3459 157.987 92.9815 159.101 94.3072C158.919 94.772 158.681 95.3775 158.384 96.1364C158.313 96.0378 158.376 96.2139 158.493 96.2737C160.174 97.1276 160.188 97.2245 158.958 98.4516C158.242 99.1629 158.202 100.673 156.64 100.379C155.536 98.6839 157.261 97.441 157.378 95.7526C156.467 95.5114 155.522 95.2649 154.264 94.9357C153.976 94.3001 153.538 93.3388 153.056 92.2755C150.92 93.7684 153.568 95.5202 152.669 97.2016C152.041 96.6769 151.494 96.0959 150.837 95.6997C150.217 95.3247 149.386 94.9198 148.907 95.8635C148.529 96.6047 148.408 97.4463 149.582 97.7385C149.658 97.7561 149.665 98.0554 149.722 98.2966C148.776 98.5607 147.651 98.5854 146.913 99.1347C145.467 100.212 144.068 101.388 144.526 103.684C144.754 104.821 145.186 106.288 143.777 107.251C143.626 107.353 143.842 107.948 143.832 108.313C143.774 110.524 144.144 112.783 142.91 114.857C142.726 115.163 142.996 115.991 143.316 116.304C144.137 117.1 144.671 117.804 143.758 118.873C143.632 119.02 143.648 119.547 143.744 119.591C145.982 120.665 143.455 121.417 143.581 122.582C143.982 123.144 144.505 123.876 145.071 124.67C144.578 124.86 144.191 125.008 143.804 125.158C143.825 125.262 143.847 125.364 143.868 125.466C144.713 125.302 145.558 125.137 146.669 124.918C146.199 126.077 146.063 127.218 144.992 127.904C143.767 128.69 143.732 129.924 143.9 131.133C144.126 132.739 144.494 134.32 143.96 135.926C143.931 136.012 143.898 136.167 143.937 136.195C145.993 137.699 143.86 139.447 144.222 141.044C144.897 140.968 144.897 140.968 146.701 144.94C144.741 145.244 145.442 142.898 144.147 142.544C143.826 143.97 144.478 145.112 144.855 146.403C145.129 147.347 144.163 148.655 143.542 150.37C144.825 149.889 145.456 149.651 146.036 149.435C146.312 150.04 146.587 150.646 147.008 151.572C146.044 151.421 145.144 151.28 144.102 151.116C144.249 151.716 144.594 152.318 144.452 152.764C144.307 153.22 143.684 153.524 143.274 153.894C143.532 155.306 146.429 154.734 145.511 157.058C144.859 156.708 144.189 156.348 142.878 155.646C144.112 159.109 142.953 161.54 141.749 163.917C142.4 164.445 142.98 164.919 143.56 165.393C143.492 165.491 143.423 165.59 143.357 165.69C142.72 165.426 141.974 164.806 141.472 164.967C140.196 165.373 138.831 165.778 137.869 166.803C137.701 166.982 137.986 167.592 138.063 168L138.097 167.952C137.623 167.868 137.15 167.783 136.679 167.699L136.737 167.75C136.737 167.211 136.737 166.673 136.737 165.931C136.33 165.819 135.834 165.634 135.32 165.553C134.891 165.484 134.442 165.539 133.925 165.539C133.475 164.458 133.429 163.275 132.12 162.412C131.186 161.797 131.135 159.919 130.539 158.678C129.894 157.329 129.365 156.128 129.689 154.473C130.097 152.378 129.994 150.174 130.02 148.017C130.031 147.192 129.852 146.348 129.65 145.542C129.342 144.301 128.979 143.07 128.564 141.859C128.267 140.991 127.852 140.162 127.563 139.489C127.633 137.454 127.666 135.514 127.778 133.579C127.873 131.945 127.426 130.204 128.669 128.765C128.823 128.588 128.904 128.144 128.791 127.964C127.778 126.338 129.053 125.079 129.391 123.66C129.747 122.168 129.95 120.64 130.222 119.128C130.039 119.04 129.859 118.952 129.677 118.864C129.144 119.248 128.613 119.633 128.094 120.008C127.335 119.339 127.899 118.281 129.11 117.917C129.461 117.811 129.806 117.693 130.479 117.475C130.479 115.142 130.199 112.716 130.541 110.381C131.107 106.527 129.983 102.522 131.645 98.7772C131.899 98.2033 131.845 97.4885 131.915 96.8371C132.213 94.1046 131.778 93.7649 128.879 94.617C129.254 92.1064 125.474 91.4427 126.751 88.5835C125.479 88.5835 124.559 88.5835 123.866 88.5835C122.348 87.1486 122.944 85.8352 123.365 84.3281C122.629 84.9338 121.895 85.5412 120.999 86.2806C121.519 87.0975 121.949 87.7701 122.454 88.5623C122.299 89.0412 122.101 89.6469 121.845 90.4304C121.325 90.3969 120.568 90.5624 120.314 90.2772C119.914 89.83 119.858 89.0764 119.635 88.3933C117.718 88.6468 117.548 89.0042 117.339 93.9163C116.254 94.1909 114.747 92.6786 113.921 95.2121C113.252 93.1751 112.733 91.7367 112.347 90.2666C112.29 90.0448 112.85 89.6592 113.124 89.3493C113.786 89.9567 114.445 90.5624 115.495 91.5272C115.073 89.8705 114.764 88.6644 114.47 87.469C115.252 87.7736 116.016 88.0676 116.947 88.4268C116.408 86.682 115.45 87.1204 114.509 87.4866C114.063 88.1292 113.62 88.7737 113.175 89.418C112.248 89.242 111.243 89.5835 110.61 88.3036C110.097 87.2666 109.163 87.4338 108.476 88.499C107.992 89.249 107.293 89.8546 106.772 90.5853C106.174 91.4215 105.908 92.3793 105 93.1504C104.327 93.7244 104.961 95.242 106.109 95.8652L106.05 95.7966C105.403 96.4956 104.758 97.1927 104.029 97.9797C103.892 97.7033 103.677 97.2684 103.342 96.5977C103.002 97.066 102.735 97.4322 102.453 97.8248C100.916 97.265 99.3755 96.7051 97.3021 95.9515C96.6308 95.1628 97.7613 93.8828 97.7893 92.5817C99.6332 93.0994 99.5403 90.8176 100.918 90.462C101.219 90.6504 101.593 90.8828 101.966 91.117C101.021 91.8212 100.078 92.5236 99.1337 93.2279C100.371 94.5694 100.63 96.323 102.297 95.36C102.445 93.8829 102.579 92.5184 102.718 91.1257C102.431 91.1416 102.164 91.1574 101.898 91.1733C102.064 90.4638 103.132 89.6416 101.906 89.1046C101.403 88.881 100.224 89.1487 100.001 89.5536C99.3878 90.6733 97.7735 91.0853 97.8612 92.6469C96.4275 93.3582 95.5791 94.5994 95.006 96.1188C94.1594 95.978 93.4636 95.8635 92.7695 95.7456C92.7117 95.8829 92.6521 96.0167 92.5925 96.1505C93.4671 96.6381 94.34 97.1241 95.2549 97.6347C95.0358 98.3231 93.1884 98.5238 94.2173 99.5079C95.9963 99.8055 97.4546 100.05 99.0986 100.325C99.2196 99.9128 99.4141 99.2508 99.6069 98.5977C100.727 98.4128 101.007 100.821 100.287 102.973C99.06 103.603 98.068 104.112 96.8972 104.712C95.8771 103.316 94.7851 104.293 93.5425 105.29C94.0017 105.825 94.4539 106.357 95.0516 107.054C94.5976 107.325 94.1244 107.804 93.9053 107.707C92.9974 107.3 92.1648 106.719 91.2885 106.191C89.6882 107.221 89.6882 107.221 89.5656 109.098C90.4174 108.691 91.2359 108.3 92.0562 107.908C92.1035 108.008 92.1526 108.107 92.1999 108.205C91.4445 108.922 90.689 109.638 89.9441 110.346C91.8406 111.154 93.4776 111.85 95.155 112.564C95.3776 113.707 95.6142 114.918 95.9314 116.55C95.7141 117.05 95.2987 117.994 94.9394 118.815C94.0402 118.457 93.1323 118.094 91.965 117.63C92.0194 116.402 93.1306 114.668 91.6723 113.137C90.2053 113.195 90.3911 114.469 90.0879 115.355C89.3447 115.096 88.5875 114.83 87.7936 114.554C86.94 118.711 86.94 118.711 88.7979 119.351C88.7505 119.892 88.6787 120.434 88.6699 120.976C88.6664 121.109 88.861 121.248 89.187 121.672C89.6234 120.873 89.9897 120.2 90.3981 119.452C90.8661 119.521 91.4585 119.605 92.0439 119.695C91.9738 120.174 91.9089 120.651 91.7985 121.457C92.5978 121.061 93.0675 120.827 93.9999 120.364C92.9588 120.052 92.4645 119.904 91.9685 119.756Z" fill="url(#paint0_linear_64_19)"/>
<path d="M106.274 31.3847C108.404 31.3847 110.19 30.6773 111.634 29.2626C113.077 27.848 113.799 26.0951 113.799 24.004C113.799 21.9128 113.079 20.1586 111.638 18.7413C110.197 17.324 108.412 16.6153 106.282 16.6153C104.152 16.6153 102.365 17.3226 100.922 18.7372C99.4781 20.1518 98.7564 21.9048 98.7564 23.996C98.7564 26.0871 99.4768 27.8413 100.918 29.2586C102.358 30.676 104.144 31.3847 106.274 31.3847ZM106.27 36C102.804 36 99.9022 34.8526 97.5635 32.5578C95.2249 30.263 94.0556 27.4195 94.0556 24.0272C94.0556 20.7014 95.2242 17.8654 97.5615 15.5192C99.8988 13.173 102.795 12 106.25 12C109.638 12 112.526 13.1674 114.916 15.5024C117.305 17.8372 118.5 20.6725 118.5 24.0081C118.5 27.4104 117.311 30.2596 114.933 32.5557C112.555 34.8519 109.667 36 106.27 36ZM63.5101 25.3847C66.3944 25.3847 68.8767 24.3885 70.9568 22.3961C73.0369 20.4038 74.077 17.935 74.077 14.9899C74.077 12.1581 73.0481 9.7211 70.9904 7.6788C68.9327 5.6365 66.434 4.61535 63.4945 4.61535C60.5052 4.61535 57.996 5.6255 55.9668 7.6458C53.9376 9.666 52.923 12.1192 52.923 15.0054C52.923 17.9402 53.9376 20.4038 55.9668 22.3961C57.996 24.3885 60.5104 25.3847 63.5101 25.3847ZM63.507 30C59.2167 30 55.5967 28.5572 52.6468 25.6715C49.6971 22.7859 48.2222 19.2411 48.2222 15.0372C48.2222 10.9047 49.6917 7.36535 52.6308 4.41915C55.5699 1.47305 59.1803 0 63.462 0C67.6711 0 71.276 1.4636 74.2768 4.3908C77.2775 7.318 78.7778 10.8521 78.7778 14.993C78.7778 19.2054 77.2871 22.7596 74.3057 25.6557C71.3243 28.5519 67.7247 30 63.507 30ZM34.3547 56.25C34.3547 60.0213 36.1548 64.216 39.7548 68.8343C43.3549 73.4525 50.5257 80.5346 61.2672 90.0807L63.5 92.0423L65.968 89.7347C76.0944 80.732 83.0722 73.8651 86.9014 69.134C90.7306 64.4029 92.6453 60.1082 92.6453 56.25C92.6453 52.5997 91.4294 49.5429 88.9975 47.0796C86.5658 44.6163 83.5667 43.3847 80 43.3847C77.887 43.3847 75.9152 43.8731 74.0846 44.85C72.254 45.8269 70.5866 47.0308 69.0823 48.4616L63.0299 54.8769H63.9701L57.7649 48.4616C56.2606 47.0308 54.6017 45.8269 52.788 44.85C50.9742 43.8731 49.0436 43.3847 46.996 43.3847C43.3736 43.3847 40.3611 44.6157 37.9586 47.0779C35.556 49.5403 34.3547 52.5976 34.3547 56.25ZM29.6538 56.25C29.6538 51.7192 31.4362 47.673 35.001 44.1115C38.5658 40.5499 42.5655 38.7691 47 38.7691C49.8713 38.7691 52.6079 39.4692 55.2098 40.8692C57.8118 42.2691 60.0467 44.0923 61.9145 46.3385L63.4422 48.0692L64.97 46.2231C66.9161 44.0538 69.1771 42.2691 71.7529 40.8692C74.3286 39.4692 77.0777 38.7691 80 38.7691C84.3327 38.7691 88.3069 40.5546 91.9226 44.1256C95.5384 47.6965 97.3462 51.738 97.3462 56.25C97.3462 60.9346 95.4835 65.7173 91.7581 70.5981C88.0326 75.4789 80.7757 82.7539 69.9872 92.4231L63.5 98.3078L57.2479 92.7693C46.099 82.6923 38.7127 75.2769 35.0891 70.5231C31.4656 65.7692 29.6538 61.0115 29.6538 56.25ZM20.7181 31.3847C22.848 31.3847 24.6348 30.6773 26.0783 29.2626C27.5219 27.848 28.2436 26.0951 28.2436 24.004C28.2436 21.9128 27.5232 20.1586 26.0824 18.7413C24.6416 17.324 22.8563 16.6153 20.7263 16.6153C18.5964 16.6153 16.8097 17.3226 15.3661 18.7372C13.9226 20.1518 13.2008 21.9048 13.2008 23.996C13.2008 26.0871 13.9212 27.8413 15.362 29.2586C16.8028 30.676 18.5882 31.3847 20.7181 31.3847ZM63.9583 102V97.3847H113.799V56.3076C113.799 55.3076 113.427 54.4423 112.683 53.7116C111.938 52.9808 111.057 52.6154 110.039 52.6154H94.5727V48H110.039C112.305 48 114.282 48.8284 115.969 50.4851C117.656 52.1418 118.5 54.0826 118.5 56.3076V102H63.9583ZM13.2008 97.3847H63.9583V102H8.5V56.3394C8.5 54.074 9.32948 52.1178 10.9884 50.4707C12.6475 48.8236 14.6385 48 16.9614 48H32.3922V52.6154H16.9614C15.8646 52.6154 14.9636 52.9808 14.2585 53.7116C13.5534 54.4423 13.2008 55.3076 13.2008 56.3076V97.3847ZM20.714 36C17.2487 36 14.3467 34.8526 12.0079 32.5578C9.66931 30.263 8.5 27.4195 8.5 24.0272C8.5 20.7014 9.66865 17.8654 12.0059 15.5192C14.3432 13.173 17.2394 12 20.6946 12C24.082 12 26.9705 13.1674 29.3601 15.5024C31.7497 17.8372 32.9444 20.6725 32.9444 24.0081C32.9444 27.4104 31.7554 30.2596 29.3772 32.5557C26.9991 34.8519 24.1113 36 20.714 36Z" fill="url(#paint1_linear_64_19)"/>
<defs>
<linearGradient id="paint0_linear_64_19" x1="103.998" y1="119.129" x2="104.114" y2="32.9995" gradientUnits="userSpaceOnUse">
<stop stop-color="#FCCD24"/>
<stop offset="1" stop-color="#FCCD24" stop-opacity="0"/>
</linearGradient>
<linearGradient id="paint1_linear_64_19" x1="57.4589" y1="31.8605" x2="97.1504" y2="141.725" gradientUnits="userSpaceOnUse">
<stop stop-color="white"/>
<stop offset="1" stop-color="white" stop-opacity="0"/>
</linearGradient>
</defs>
</svg>
