<svg width="86" height="78" viewBox="0 0 86 78" fill="none" xmlns="http://www.w3.org/2000/svg">
<g filter="url(#filter0_d_82_539)">
<ellipse cx="42.9998" cy="35.0198" rx="19.2" ry="19.2" fill="white"/>
</g>
<g opacity="0.7">
<path fill-rule="evenodd" clip-rule="evenodd" d="M50.1594 29.6989C50.5343 29.324 50.5343 28.7161 50.1594 28.3412C49.7845 27.9663 49.1766 27.9663 48.8017 28.3412L43.0006 34.1424L37.1994 28.3412C36.8245 27.9663 36.2166 27.9663 35.8417 28.3412C35.4668 28.7161 35.4668 29.324 35.8417 29.6989L41.6429 35.5001L35.8417 41.3012C35.4668 41.6761 35.4668 42.284 35.8417 42.6589C36.2166 43.0338 36.8245 43.0338 37.1994 42.6589L43.0006 36.8577L48.8017 42.6589C49.1766 43.0338 49.7845 43.0338 50.1594 42.6589C50.5343 42.284 50.5343 41.6761 50.1594 41.3012L44.3582 35.5001L50.1594 29.6989Z" fill="#20263D"/>
</g>
<defs>
<filter id="filter0_d_82_539" x="4.59979" y="0.459815" width="76.7999" height="76.7999" filterUnits="userSpaceOnUse" color-interpolation-filters="sRGB">
<feFlood flood-opacity="0" result="BackgroundImageFix"/>
<feColorMatrix in="SourceAlpha" type="matrix" values="0 0 0 0 0 0 0 0 0 0 0 0 0 0 0 0 0 0 127 0" result="hardAlpha"/>
<feOffset dy="3.84"/>
<feGaussianBlur stdDeviation="9.60001"/>
<feComposite in2="hardAlpha" operator="out"/>
<feColorMatrix type="matrix" values="0 0 0 0 0 0 0 0 0 0 0 0 0 0 0 0 0 0 0.2 0"/>
<feBlend mode="normal" in2="BackgroundImageFix" result="effect1_dropShadow_82_539"/>
<feBlend mode="normal" in="SourceGraphic" in2="effect1_dropShadow_82_539" result="shape"/>
</filter>
</defs>
</svg>
