<svg width="178" height="178" viewBox="0 0 178 178" fill="none" xmlns="http://www.w3.org/2000/svg">
<g filter="url(#filter0_d_1_5983)">
<circle cx="89.0001" cy="88.7999" r="38.4" fill="#FF7A00"/>
</g>
<g clip-path="url(#clip0_1_5983)">
<rect x="50.6001" y="50.3999" width="76.8" height="76.8" rx="38.4" fill="#FF7A00"/>
<g filter="url(#filter1_d_1_5983)">
<rect x="47.4001" y="47.2" width="83.2" height="83.2" rx="41.6" fill="white"/>
<mask id="mask0_1_5983" style="mask-type:alpha" maskUnits="userSpaceOnUse" x="64" y="66" width="50" height="54">
<path fill-rule="evenodd" clip-rule="evenodd" d="M69.9527 103.675C69.4827 103.593 69.1253 103.184 69.1253 102.69V68.3999C69.1253 67.2953 70.0207 66.3999 71.1253 66.3999H75.1955C76.1832 66.3999 77.1076 66.886 77.6673 67.6998L87.4349 81.9006C88.2305 83.0573 89.939 83.0558 90.7326 81.8977L100.458 67.7041C101.018 66.8879 101.944 66.3999 102.933 66.3999H107C108.105 66.3999 109 67.2953 109 68.3999V102.69C109 103.204 108.613 103.627 108.115 103.684L107.944 104.059L107.527 105.694L108.182 105.993C108.69 106.224 109.306 106.16 110.914 105.709C112.056 105.388 113.296 105.135 113.669 105.146C114.042 105.157 113.595 105.355 112.677 105.586C110.672 106.089 109.629 107.046 109.873 108.157C110.009 108.775 109.956 108.741 109.514 107.932C109.075 107.125 108.686 106.88 106.971 106.323C104.672 105.577 104.158 105.65 105.804 106.49C107.314 107.26 108.151 108.361 107.944 109.303C107.678 110.517 108.22 111.398 109.804 112.321C111.481 113.298 111.425 113.492 109.716 112.62C108.142 111.818 107.997 112.078 109.085 113.753C109.481 114.363 109.454 114.355 108.866 113.679C108.168 112.877 107.249 110.317 107.249 109.17C107.249 108.166 105.033 106.637 104.475 107.255C104.357 107.385 104.19 107.875 104.102 108.345C103.954 109.139 104.024 109.229 105.109 109.653L106.275 110.109L105.092 109.947C103.758 109.765 103.675 109.889 104.466 110.894C105.33 111.993 105.121 112.481 104.219 111.471C103.531 110.701 103.352 110.624 102.974 110.938C102.227 111.558 102.144 112.927 102.772 114.31C103.084 114.998 103.343 115.94 103.346 116.403C103.35 116.924 103.69 117.665 104.239 118.351L105.125 119.458L104.263 118.664L103.401 117.869L102.941 118.664C102.689 119.101 102.563 119.207 102.662 118.901C103.17 117.336 103.119 116.545 102.411 114.997C102.01 114.123 101.682 113.235 101.682 113.023C101.682 112.545 101.406 112.512 101.112 112.976C100.991 113.168 100.639 113.962 100.544 114.727L100.369 116.118L100.331 114.866C100.302 113.904 100.483 113.327 101.112 112.38C101.562 111.701 101.867 111.043 101.79 110.918C101.545 110.523 100.583 111.234 100.406 111.941C100.329 112.073 100.263 112.191 100.202 112.3L100.202 112.3L100.202 112.301C100.06 112.552 99.9469 112.755 99.7953 112.976C99.539 113.185 99.6959 112.695 100.17 111.805C100.717 110.78 101.184 110.246 101.586 110.189C102.355 110.079 102.961 108.593 102.828 107.143C102.795 106.785 100.984 106.654 100.203 106.954C99.9759 107.04 99.1863 107.865 98.4473 108.786C97.7086 109.707 96.8505 110.582 96.5404 110.731C96.0436 110.969 96.0508 110.936 96.6028 110.454C97.4183 109.741 97.3924 109.579 96.4636 109.576C95.8026 109.573 95.888 109.483 97.0899 108.913C97.9669 108.496 98.6575 107.93 98.9572 107.382C99.503 106.383 100.408 105.961 101.999 105.961C102.914 105.961 103.097 105.873 103.016 105.474C102.905 104.927 102.587 104.92 100.152 105.411C98.7265 105.699 98.3388 105.684 97.5074 105.309L96.5332 104.87L98.2227 105.028C98.8967 105.028 99.1279 104.409 99.172 103.615C98.8101 103.465 98.5551 103.109 98.554 102.693L98.5151 87.902C98.5137 87.3404 97.8106 87.0884 97.4527 87.5212L92.2591 93.8029C91.6892 94.4922 90.8414 94.8913 89.947 94.8913H88.1855C87.2869 94.8913 86.4357 94.4885 85.8659 93.7937L80.6326 87.413C80.2752 86.9772 79.5687 87.2299 79.5687 87.7934V102.69C79.5687 103.07 79.3571 103.4 79.0455 103.569C78.7777 104.15 78.5633 104.561 78.3917 104.844L78.4995 104.886C79.0879 105.12 79.6832 105.085 81.0741 104.738C83.6462 104.096 84.0111 104.205 81.9447 105C79.7957 105.827 78.7464 105.854 76.9093 105.13L75.5074 104.577V105.235C75.5074 105.833 75.6493 105.904 77.0852 106.022L77.2023 106.032L77.2024 106.032C77.7668 106.079 78.1185 106.107 78.4256 106.24C78.9331 106.459 79.3186 106.961 80.3411 108.292L80.469 108.458C81.0557 109.221 81.2778 109.305 82.8348 109.35C84.514 109.399 84.5216 109.403 83.1616 109.506C81.3808 109.641 81.0602 109.969 82.1554 110.536C83.1477 111.049 83.2766 111.262 82.466 111.051C81.825 110.883 80.1355 109.235 79.472 108.129C78.9192 107.209 77.8334 106.726 76.5842 106.845C75.7712 106.923 75.6554 107.027 75.7144 107.63C75.8578 109.1 76.0997 109.583 76.8985 109.996C77.3527 110.231 77.9147 110.79 78.1468 111.239C78.7547 112.415 78.6656 112.941 78.0338 111.905C77.4346 110.922 77.0045 110.575 76.7988 110.907C76.7226 111.03 77.009 111.65 77.4351 112.285C77.9935 113.116 78.2537 113.918 78.3659 115.156C78.4872 116.494 78.6807 117.04 79.2412 117.624C79.637 118.037 79.9607 118.482 79.9607 118.612C79.9607 118.984 78.5588 117.304 78.271 116.587C78.1287 116.233 78.0124 115.519 78.0124 115C78.0124 113.983 77.5117 112.64 77.1326 112.64C77.0043 112.64 76.899 112.813 76.899 113.023C76.899 113.235 76.5717 114.122 76.1715 114.996C75.46 116.55 75.4111 117.417 75.9318 119.225C76.0128 119.506 75.8227 119.186 75.5096 118.514C74.8766 117.156 74.9409 116.219 75.8236 113.952C76.2909 112.751 76.3023 112.526 75.9388 111.656C75.7172 111.126 75.4586 110.692 75.364 110.692C74.8246 110.692 74.1343 111.351 73.8655 112.122C73.6954 112.61 73.4891 112.941 73.407 112.859C73.1949 112.647 74.1243 110.413 74.4244 110.413C74.5607 110.413 74.6723 110.272 74.6723 110.099C74.6723 109.891 74.276 109.839 73.4894 109.945L72.3065 110.104L73.1415 109.715C73.6008 109.501 74.1416 109.32 74.3431 109.313C74.5599 109.305 74.6506 109.101 74.5652 108.813C74.4856 108.545 74.3408 107.992 74.2437 107.584C74.0828 106.909 73.9968 106.866 73.2904 107.112C72.0421 107.547 71.4333 108.468 70.9518 110.65C70.6701 111.926 70.2379 113.007 69.8029 113.524C68.9787 114.503 68.8571 114.296 69.6584 113.277C70.4564 112.263 70.0829 111.999 68.7853 112.661C67.1573 113.492 67.1784 113.147 68.8097 112.259C70.2526 111.473 70.6265 110.855 70.5374 109.399C70.4695 108.287 71.4654 107.063 73.07 106.285C74.6868 105.501 73.8407 105.539 71.4715 106.358C69.7956 106.937 69.4547 107.17 69.0338 108.026C68.3817 109.353 68.2005 109.29 68.6887 107.908L69.0817 106.793L68.0499 106.358C67.4824 106.118 66.3918 105.751 65.6264 105.542C64.861 105.333 64.493 105.154 64.8087 105.144C65.1243 105.134 66.371 105.385 67.5792 105.701C69.2456 106.137 69.9303 106.206 70.4152 105.985L71.054 105.694L69.9527 103.675Z" fill="white"/>
</mask>
<g mask="url(#mask0_1_5983)">
<circle cx="88.4796" cy="88.3544" r="36.5914" fill="#FF6E05"/>
<g filter="url(#filter2_f_1_5983)">
<path d="M89.2677 56.24C92.2206 63.5684 71.1918 87.2521 62.9168 90.5865C54.6418 93.9208 45.5398 90.683 42.5869 83.3546C39.6339 76.0262 43.9483 67.3823 52.2233 64.048C60.4983 60.7136 86.3148 48.9116 89.2677 56.24Z" fill="#7011AA"/>
</g>
<g filter="url(#filter3_f_1_5983)">
<path d="M131.82 69.9181C131.82 81.9657 139.454 104.821 127.486 104.821C115.518 104.821 88.4797 81.9657 88.4797 69.9181C88.4797 57.8705 98.1818 48.104 110.15 48.104C122.118 48.104 131.82 57.8705 131.82 69.9181Z" fill="#10D3D5"/>
</g>
<g filter="url(#filter4_f_1_5983)">
<path d="M128.73 112.431C128.73 122.204 120.721 130.126 110.841 130.126C100.961 130.126 88.4797 132.71 88.4797 122.938C88.4797 113.165 103.533 82.8621 117.55 84.7835C127.336 86.1251 128.73 102.659 128.73 112.431Z" fill="#F4A90F"/>
</g>
<g filter="url(#filter5_f_1_5983)">
<path d="M95.7978 116.697C95.7978 125.785 72.9951 124.924 62.2308 124.924C51.4664 124.924 42.7402 117.557 42.7402 108.469C42.7402 99.3812 51.4664 92.0139 62.2308 92.0139C72.9951 92.0139 95.7978 107.609 95.7978 116.697Z" fill="#C50018"/>
</g>
</g>
</g>
</g>
<defs>
<filter id="filter0_d_1_5983" x="0.600098" y="0.399902" width="176.8" height="176.8" filterUnits="userSpaceOnUse" color-interpolation-filters="sRGB">
<feFlood flood-opacity="0" result="BackgroundImageFix"/>
<feColorMatrix in="SourceAlpha" type="matrix" values="0 0 0 0 0 0 0 0 0 0 0 0 0 0 0 0 0 0 127 0" result="hardAlpha"/>
<feOffset/>
<feGaussianBlur stdDeviation="25"/>
<feComposite in2="hardAlpha" operator="out"/>
<feColorMatrix type="matrix" values="0 0 0 0 0 0 0 0 0 0 0 0 0 0 0 0 0 0 0.25 0"/>
<feBlend mode="normal" in2="BackgroundImageFix" result="effect1_dropShadow_1_5983"/>
<feBlend mode="normal" in="SourceGraphic" in2="effect1_dropShadow_1_5983" result="shape"/>
</filter>
<filter id="filter1_d_1_5983" x="23.4001" y="26.4" width="131.2" height="131.2" filterUnits="userSpaceOnUse" color-interpolation-filters="sRGB">
<feFlood flood-opacity="0" result="BackgroundImageFix"/>
<feColorMatrix in="SourceAlpha" type="matrix" values="0 0 0 0 0 0 0 0 0 0 0 0 0 0 0 0 0 0 127 0" result="hardAlpha"/>
<feOffset dy="3.2"/>
<feGaussianBlur stdDeviation="12"/>
<feComposite in2="hardAlpha" operator="out"/>
<feColorMatrix type="matrix" values="0 0 0 0 0 0 0 0 0 0 0 0 0 0 0 0 0 0 0.15 0"/>
<feBlend mode="normal" in2="BackgroundImageFix" result="effect1_dropShadow_1_5983"/>
<feBlend mode="normal" in="SourceGraphic" in2="effect1_dropShadow_1_5983" result="shape"/>
</filter>
<filter id="filter2_f_1_5983" x="20.8572" y="33.0835" width="89.4923" height="79.6154" filterUnits="userSpaceOnUse" color-interpolation-filters="sRGB">
<feFlood flood-opacity="0" result="BackgroundImageFix"/>
<feBlend mode="normal" in="SourceGraphic" in2="BackgroundImageFix" result="shape"/>
<feGaussianBlur stdDeviation="10.4" result="effect1_foregroundBlur_1_5983"/>
</filter>
<filter id="filter3_f_1_5983" x="67.6797" y="27.304" width="87.3393" height="98.3168" filterUnits="userSpaceOnUse" color-interpolation-filters="sRGB">
<feFlood flood-opacity="0" result="BackgroundImageFix"/>
<feBlend mode="normal" in="SourceGraphic" in2="BackgroundImageFix" result="shape"/>
<feGaussianBlur stdDeviation="10.4" result="effect1_foregroundBlur_1_5983"/>
</filter>
<filter id="filter4_f_1_5983" x="67.6797" y="63.896" width="81.8505" height="87.3393" filterUnits="userSpaceOnUse" color-interpolation-filters="sRGB">
<feFlood flood-opacity="0" result="BackgroundImageFix"/>
<feBlend mode="normal" in="SourceGraphic" in2="BackgroundImageFix" result="shape"/>
<feGaussianBlur stdDeviation="10.4" result="effect1_foregroundBlur_1_5983"/>
</filter>
<filter id="filter5_f_1_5983" x="21.9402" y="71.2139" width="94.6576" height="74.5324" filterUnits="userSpaceOnUse" color-interpolation-filters="sRGB">
<feFlood flood-opacity="0" result="BackgroundImageFix"/>
<feBlend mode="normal" in="SourceGraphic" in2="BackgroundImageFix" result="shape"/>
<feGaussianBlur stdDeviation="10.4" result="effect1_foregroundBlur_1_5983"/>
</filter>
<clipPath id="clip0_1_5983">
<rect x="50.6001" y="50.3999" width="76.8" height="76.8" rx="38.4" fill="white"/>
</clipPath>
</defs>
</svg>
