<svg width="94" height="750" viewBox="0 0 94 750" fill="none" xmlns="http://www.w3.org/2000/svg">
<g filter="url(#filter0_d_0_839)">
<path d="M76.4409 273.124C91.2104 353.193 29.3638 460.247 23.0747 518.6C17.3263 572.012 45.5835 643.728 79.2625 686.959C112.946 730.209 170.782 742.871 207.071 704.739C222.858 688.138 233.323 664.166 248.914 647.252C298.825 593.116 375.477 630.472 438.335 609.102C510.789 584.471 553.593 484.64 567.089 387.872C575.676 326.331 575.15 259.545 552.055 204.249C528.961 148.966 478.681 109.8 432.689 125.836C391.247 140.287 351.77 194.965 313.121 169.479C286.088 151.67 280.097 105.286 262.73 72.7209C235.513 21.7088 177.809 9.09531 135.563 35.7931C93.3177 62.5068 61.9542 97.1127 61.3778 159.005C61.109 187.889 71.2443 244.961 76.4409 273.124Z" stroke="#FCCD24" stroke-width="4.04179" stroke-miterlimit="10" shape-rendering="crispEdges"/>
</g>
<defs>
<filter id="filter0_d_0_839" x="0.306885" y="0.136719" width="593.91" height="749.303" filterUnits="userSpaceOnUse" color-interpolation-filters="sRGB">
<feFlood flood-opacity="0" result="BackgroundImageFix"/>
<feColorMatrix in="SourceAlpha" type="matrix" values="0 0 0 0 0 0 0 0 0 0 0 0 0 0 0 0 0 0 127 0" result="hardAlpha"/>
<feOffset/>
<feGaussianBlur stdDeviation="10"/>
<feComposite in2="hardAlpha" operator="out"/>
<feColorMatrix type="matrix" values="0 0 0 0 0.988235 0 0 0 0 0.803922 0 0 0 0 0.141176 0 0 0 1 0"/>
<feBlend mode="normal" in2="BackgroundImageFix" result="effect1_dropShadow_0_839"/>
<feBlend mode="normal" in="SourceGraphic" in2="effect1_dropShadow_0_839" result="shape"/>
</filter>
</defs>
</svg>
