<svg width="135" height="999" viewBox="0 0 135 999" fill="none" xmlns="http://www.w3.org/2000/svg">
<path fill-rule="evenodd" clip-rule="evenodd" d="M105.878 314.318C110.069 341.627 109.448 369.667 108.853 396.559C108.257 423.489 107.687 449.266 112 472C113.549 480.165 116.259 489.672 119.258 500.198C127.951 530.7 139.081 569.757 131.5 609.5C126.6 635.185 120.471 663.809 111.312 693.544C118.794 765.926 105.628 828.101 91.685 876.722C88.1433 887.516 78.9242 897.215 67.568 905.772C67.5702 905.8 67.5725 905.827 67.5749 905.856C67.4993 905.895 67.4233 905.921 67.3469 905.939C66.7199 906.409 66.0864 906.876 65.4472 907.34C65.4557 907.501 65.5407 907.524 65.6578 907.555C65.7514 907.58 65.8656 907.611 65.9777 907.722C65.9715 907.716 66.1009 907.878 66.2355 908.049L66.1969 908.699C65.8923 909.054 65.6413 908.886 65.3757 908.708L65.3753 908.707C65.281 908.644 65.1848 908.58 65.0837 908.537C65.0667 908.628 65.049 908.717 65.0305 908.811C65.0177 908.875 65.0044 908.942 64.9906 909.013C65.0889 909.06 65.1835 909.103 65.2782 909.146C65.358 909.182 65.4379 909.219 65.5202 909.257C65.5101 909.282 65.5003 909.314 65.4906 909.346C65.4716 909.408 65.453 909.469 65.4343 909.47C65.2358 909.473 65.0546 909.487 64.9173 909.678C64.8292 909.798 64.726 909.801 64.6225 909.804C64.5385 909.806 64.4543 909.808 64.3777 909.873C64.3558 909.904 64.3559 909.955 64.3559 910.015C64.3559 910.12 64.356 910.254 64.2354 910.356C64.1504 910.337 64.0738 910.267 63.9974 910.197C63.8412 910.053 63.6861 909.911 63.4632 910.21L63.4975 910.259C63.57 910.362 63.6438 910.468 63.7396 910.603C63.6435 910.627 63.5584 910.65 63.4782 910.671C63.423 910.686 63.3702 910.7 63.3177 910.715C63.235 910.622 63.1607 910.538 63.077 910.444L62.9751 910.329C62.8597 910.485 62.7402 910.646 62.5452 910.907L62.7019 911.039L62.9838 911.275C63.058 911.212 63.1619 911.122 63.3084 910.998L63.3356 911.151C63.3568 911.27 63.3746 911.369 63.3903 911.455C63.3086 911.594 63.1962 911.696 63.0863 911.795C62.9302 911.936 62.7793 912.072 62.729 912.305C62.5708 912.391 62.4124 912.48 62.2385 912.575C62.1749 912.492 62.087 912.374 61.9971 912.258C61.9009 912.328 61.8202 912.421 61.7399 912.514C61.5939 912.683 61.4489 912.85 61.2135 912.875L61.2437 912.367L61.0896 912.275L61.071 912.264C60.9381 912.185 60.806 912.106 60.6819 912.033C60.6126 911.792 60.7236 911.667 60.838 911.538C60.8973 911.471 60.9575 911.404 60.994 911.318C60.6369 911.128 60.2696 911.144 59.8844 911.207C59.976 911.452 59.976 911.452 60.3183 911.51L60.3282 911.584C60.3473 911.727 60.3688 911.889 60.3934 912.081C59.7877 912.108 59.4868 912.459 59.3504 913.016L59.3271 913.023L58.8142 913.184C58.8786 913.289 58.9368 913.386 58.9955 913.484L59.0389 913.556L59.1504 913.742C59.0749 913.841 59.0069 913.932 58.9423 914.017L58.7782 914.234C58.8429 914.316 58.9076 914.398 58.9724 914.478L58.9738 914.485C59.0378 914.789 59.1022 915.096 58.868 915.349C58.7164 915.239 58.5684 915.13 58.4205 915.021L58.4187 915.02C58.4392 914.812 58.3281 914.701 58.2179 914.59C58.15 914.522 58.0823 914.454 58.0461 914.364C57.7084 914.323 57.3791 914.284 57.0256 914.24C57.0222 914.044 57.0206 913.896 57.0199 913.766C57.2186 913.597 57.4183 913.629 57.6147 913.66C57.7567 913.682 57.8971 913.705 58.034 913.65C58.2241 913.559 58.231 913.393 58.2402 913.172C58.245 913.056 58.2505 912.926 58.2827 912.784C58.3383 912.747 58.4112 912.7 58.4889 912.648C58.6081 912.57 58.7387 912.484 58.8351 912.421L58.8717 912.133C58.8822 912.051 58.8907 911.987 58.901 911.913C59.0913 911.825 59.2999 911.731 59.5057 911.635C59.4956 911.586 59.4824 911.532 59.4666 911.475C58.378 912.195 57.2788 912.905 56.1715 913.606C56.1733 913.615 56.1751 913.623 56.177 913.631C56.2079 913.771 56.2394 913.915 56.3282 914.037C56.4829 914.249 56.4395 914.633 56.1947 914.909C56.1122 915.001 56.0647 915.133 56.0165 915.266C55.9942 915.328 55.9717 915.39 55.9456 915.449C55.7654 915.557 55.5827 915.522 55.4021 915.487C55.3523 915.477 55.3027 915.468 55.2534 915.461C55.1193 915.298 54.9918 915.135 54.8614 914.974C54.8725 914.786 54.8836 914.599 54.8813 914.417C54.6823 914.541 54.483 914.665 54.2836 914.788C54.2953 915.049 54.4461 915.199 54.594 915.348C54.7126 915.466 54.8295 915.583 54.8715 915.753C55.0914 915.791 55.2851 915.825 55.4949 915.863L55.6377 915.888C55.656 916.038 55.6715 916.189 55.6879 916.324C55.6103 916.4 55.5359 916.473 55.4669 916.541C55.4028 916.604 55.3433 916.663 55.2901 916.716L55.1969 916.808C55.1168 916.803 55.0589 916.8 55.0053 916.783C54.8663 916.738 54.7566 916.602 54.3619 916.112L54.3616 916.112C54.2378 916.221 54.0868 916.296 53.9349 916.372C53.5781 916.549 53.2165 916.728 53.1928 917.362C53.1315 917.311 53.0779 917.26 53.0283 917.213C52.9257 917.116 52.8406 917.036 52.7423 917.005C52.5541 916.946 52.3482 916.981 52.3509 917.299L51.9418 917.274L51.8237 917.163L51.7773 917.119L51.6569 917.005L51.5557 916.908C51.5 916.913 51.4563 916.913 51.4221 916.913C51.3885 916.913 51.364 916.913 51.3463 916.917C51.3357 916.92 51.3276 916.924 51.3214 916.93C51.0269 917.213 50.7358 917.501 50.4455 917.789L50.4399 917.794L50.2349 917.997C50.3704 918.194 50.5369 918.191 50.7035 918.188C50.7877 918.187 50.872 918.185 50.9523 918.21C51.0227 918.388 51.0959 918.57 51.1765 918.771L51.2992 919.076C51.2822 919.097 51.2605 919.123 51.2351 919.154L51.2334 919.156C51.1868 919.212 51.1279 919.283 51.0625 919.36L51.3195 919.708C51.4076 919.828 51.4967 919.949 51.586 920.071C51.4585 920.207 51.2883 920.203 51.1182 920.198C50.8988 920.193 50.6795 920.188 50.5524 920.483L49.9241 920.446C49.7606 920.226 49.5897 919.997 49.41 919.756C49.2723 919.572 49.1294 919.381 48.9806 919.183L49.0545 917.937C49.0569 917.935 49.0594 917.932 49.0618 917.929C48.809 918.077 48.556 918.225 48.3029 918.372C48.4328 918.569 48.4119 918.82 48.3879 919.109L48.3827 919.172C48.5033 919.34 48.6397 919.529 48.7831 919.728L48.9721 919.99C48.8978 920.119 48.8289 920.239 48.758 920.363C48.6911 920.48 48.6224 920.601 48.5454 920.737C48.6378 920.889 48.7395 921.06 48.854 921.252L48.7586 922.86C48.8204 922.938 48.8815 923.015 48.9426 923.092L48.9535 923.106C48.9618 923.119 48.9728 923.133 48.984 923.147C49.0074 923.176 49.0312 923.206 49.0295 923.234C48.9963 923.889 48.9555 924.543 48.9218 925.111C49.0898 925.412 49.1581 925.742 49.225 926.064C49.3095 926.473 49.3918 926.87 49.6707 927.184C49.6417 927.218 49.6124 927.253 49.5827 927.287L49.4647 927.425L49.389 927.513C49.4455 927.593 49.5054 927.675 49.5676 927.76L49.6487 927.871L49.3757 932.47C49.4379 932.546 49.5046 932.626 49.5476 932.677C49.5646 932.704 49.5823 932.727 49.5979 932.747C49.6044 932.755 49.6106 932.763 49.6162 932.771C49.6345 932.796 49.6469 932.817 49.6461 932.838C49.6037 933.6 49.5583 934.365 49.5146 935.1L49.5145 935.103C49.5837 935.199 49.6442 935.285 49.712 935.382C49.7496 935.435 49.7895 935.492 49.8343 935.556C49.7813 935.652 49.7256 935.751 49.6495 935.887C49.5956 935.983 49.5314 936.097 49.4506 936.242L49.0103 943.66C48.9707 943.699 48.9364 943.733 48.9051 943.764L48.8988 943.77C48.8588 943.81 48.8235 943.845 48.788 943.88C48.7642 943.904 48.7402 943.928 48.7147 943.955L48.6392 945.227C48.5292 945.353 48.4294 945.468 48.3112 945.607L48.2747 946.221C48.1632 946.343 48.0589 946.454 47.9524 946.571C48.0257 947.025 47.8112 947.368 47.6014 947.703L47.6007 947.705C47.5433 947.796 47.4862 947.888 47.4356 947.98C47.3487 948.137 47.2118 948.256 47.0737 948.376C46.9725 948.464 46.8707 948.553 46.7875 948.657C46.7152 948.747 46.664 948.858 46.613 948.968C46.5575 949.089 46.5023 949.209 46.4205 949.299C46.4045 949.317 46.3885 949.336 46.3725 949.354L46.3307 949.402C46.0953 949.675 45.8527 949.957 45.4639 949.951C45.3775 950.124 45.229 950.156 45.0788 950.189C44.9471 950.217 44.814 950.246 44.7202 950.37C44.5246 950.626 44.1662 950.554 44.0431 950.444C43.8384 950.258 43.596 950.12 43.3548 949.983C42.9183 949.734 42.4853 949.487 42.2846 948.965C42.0874 948.456 41.8071 948.067 41.4979 947.671C41.4099 947.56 41.378 947.423 41.3457 947.284C41.3083 947.124 41.2704 946.961 41.1446 946.832C41.0797 946.764 41.0986 946.595 41.1185 946.418C41.1275 946.337 41.1368 946.254 41.1383 946.178C41.1014 946.127 41.061 946.072 41.0186 946.014C40.9723 945.951 40.9236 945.885 40.8742 945.817L40.9123 945.175C40.8193 945.048 40.7251 944.924 40.6296 944.793L40.6878 943.813C40.4862 943.63 40.3529 943.408 40.442 943.11C40.4991 942.92 40.4091 942.79 40.3194 942.661C40.2344 942.538 40.1496 942.415 40.19 942.242C40.2576 941.959 40.2022 941.704 39.9605 941.518L40.0372 940.226C39.943 940.088 39.8574 939.963 39.7574 939.812L39.9876 935.933C39.9537 935.849 39.8995 935.778 39.8465 935.708C39.7379 935.565 39.6346 935.429 39.7217 935.205C39.6316 935.095 39.5091 935.029 39.3855 934.962C39.171 934.847 38.9533 934.729 38.896 934.379L38.9319 933.773C39.0178 933.744 39.1017 933.716 39.1884 933.687C39.2847 933.654 39.3843 933.62 39.4938 933.584L39.6745 930.539C39.5712 930.374 39.4369 930.379 39.3055 930.385C39.2416 930.387 39.1784 930.39 39.1197 930.373C39.117 930.082 39.2699 930.073 39.4255 930.063C39.5042 930.058 39.5836 930.053 39.6438 930.012C39.7698 929.878 39.7648 929.714 39.7597 929.549C39.7567 929.451 39.7537 929.353 39.7777 929.261C39.6066 929.15 39.5636 928.968 39.5174 928.773C39.4883 928.65 39.4579 928.522 39.3936 928.402L38.4975 928.349C38.3435 928.186 38.3631 928.028 38.3806 927.886C38.3854 927.848 38.3899 927.811 38.3909 927.775C38.3915 927.754 38.3907 927.733 38.3878 927.712C38.2309 927.78 38.0726 927.87 37.9106 927.961L37.904 927.965L37.8604 927.909L37.8201 927.859L37.6785 927.681C37.4977 927.654 37.2668 927.618 37.0946 927.592C36.9083 927.437 36.7662 927.316 36.6292 927.202L36.4848 927.299C36.3408 927.395 36.2206 927.474 36.1009 927.553C35.9565 927.589 35.8537 927.489 35.7479 927.386C35.6002 927.242 35.4463 927.093 35.1643 927.297C35.1562 927.384 35.1464 927.484 35.1359 927.591C35.123 927.722 35.1091 927.863 35.0961 928.004C34.9735 928.162 34.8308 928.149 34.6785 928.134C34.5792 928.125 34.4758 928.115 34.3713 928.152C34.3354 928.209 34.2944 928.269 34.2516 928.331C34.1461 928.483 34.0299 928.651 33.9519 928.839C33.8829 929 33.8559 929.18 33.8288 929.361C33.8169 929.44 33.8049 929.52 33.7894 929.598C33.7316 929.656 33.6736 929.714 33.6154 929.773L33.569 929.82C33.499 929.89 33.4288 929.961 33.3587 930.031L33.0357 930.011C32.6639 929.754 32.4582 929.611 32.2633 929.475C32.3857 929.263 32.4792 929.099 32.5713 928.938L32.7392 928.644C32.7058 928.588 32.6714 928.53 32.6351 928.468C32.598 928.404 32.559 928.336 32.5175 928.264L32.4365 928.124L32.4728 927.513C32.5244 927.458 32.5784 927.401 32.6335 927.344L32.6344 927.343L32.6379 927.339C32.6863 927.289 32.7354 927.237 32.7844 927.185L32.8045 926.848C32.4141 927.051 32.025 927.253 31.6373 927.454C31.5104 927.57 31.3887 927.681 31.2736 927.786L31.1825 927.87L31.0053 928.032C30.9605 928.163 30.9249 928.266 30.8928 928.359L30.8493 928.484L30.8192 928.572C30.6975 928.444 30.6486 928.279 30.6011 928.118C30.59 928.08 30.5789 928.043 30.5671 928.006C29.6652 928.47 28.7712 928.928 27.8865 929.38L28.9532 929.443C28.9791 929.481 29.0024 929.511 29.0216 929.536C29.0534 929.576 29.0739 929.602 29.0764 929.63C29.081 929.703 29.0752 929.776 29.0678 929.869C29.0643 929.914 29.0604 929.963 29.0571 930.019C29.3265 930.086 29.5941 930.153 29.8514 930.219C30.012 930.628 29.8383 930.766 29.6564 930.91C29.5434 931 29.4272 931.092 29.3859 931.253L29.2344 931.126L29.0233 930.948L28.8786 930.826C28.6514 930.933 28.3751 931.062 28.0997 931.19L28.06 931.857C28.088 931.895 28.116 931.932 28.1439 931.97C28.1811 932.02 28.218 932.071 28.2544 932.12L28.327 932.219L28.2882 932.872C28.1336 933.024 27.9859 933.17 27.8381 933.317C27.6023 933.317 27.3675 933.314 27.0886 933.312L26.8269 937.722C26.7456 937.802 26.6863 937.861 26.6217 937.925L26.4974 938.048L25.7167 951.199L25.6185 951.297L25.5449 951.37C25.5043 951.411 25.467 951.448 25.4262 951.489L25.133 956.428C25.1808 956.494 25.2398 956.578 25.3062 956.673L25.3851 956.786L25.0345 962.693L24.8617 962.876L24.7257 963.02L24.4528 967.617C24.4229 967.647 24.3929 967.676 24.363 967.706C24.319 967.749 24.2751 967.792 24.2322 967.834C24.2211 967.863 24.2081 967.892 24.1951 967.921C24.1651 967.987 24.1354 968.053 24.1308 968.119C24.0114 970.035 23.8997 971.949 23.787 973.847C23.8648 973.946 23.9294 974.028 24.0423 974.168L23.5738 982.06L23.6815 982.196C23.7393 982.269 23.7918 982.335 23.865 982.426L23.8064 983.413C23.8491 983.466 23.8852 983.512 23.918 983.553C23.972 983.621 24.0175 983.677 24.0697 983.742L23.4445 994.275C23.4059 994.318 23.3544 994.378 23.2893 994.454C23.2475 994.503 23.2 994.559 23.1467 994.621C23.144 994.668 23.1439 994.719 23.1438 994.774C23.1435 994.911 23.1432 995.068 23.1005 995.21C23.08 995.277 23.0192 995.331 22.9589 995.384C22.8957 995.439 22.833 995.494 22.8173 995.564L22.8116 995.59C22.7669 995.793 22.7289 995.964 22.5684 996.117C22.5075 996.175 22.4783 996.275 22.4429 996.395C22.4302 996.438 22.4168 996.484 22.4008 996.532C22.3935 996.553 22.3858 996.575 22.3773 996.597C22.0987 996.875 21.7634 997.206 21.4549 997.512C21.3259 997.571 21.2005 997.63 21.0771 997.689C20.8076 997.816 20.5476 997.939 20.2817 998.044C20.0466 998.139 19.8062 998.212 19.4919 998.307L19.4871 998.308C19.342 998.352 19.1813 998.401 18.998 998.459L17.4494 998.367C17.4041 998.319 17.3496 998.259 17.2858 998.189L17.2814 998.185C17.2406 998.14 17.196 998.091 17.1476 998.038C17.1181 998.036 17.0856 998.037 17.0515 998.039C17.0285 998.041 17.0047 998.043 16.9806 998.044C16.8428 998.055 16.6933 998.067 16.6054 997.991C16.4113 997.823 16.1945 997.695 15.9794 997.568C15.7499 997.432 15.5223 997.298 15.3259 997.117C15.2963 997.089 15.2655 997.062 15.2341 997.034C15.0078 996.834 14.755 996.61 14.7527 996.233C14.7509 995.995 14.6181 995.854 14.4817 995.71C14.3439 995.563 14.2025 995.413 14.1889 995.156C14.1823 995.021 14.1319 994.89 14.0798 994.755C14.0051 994.561 13.9268 994.358 13.9686 994.119C13.981 994.046 13.9132 993.956 13.837 993.854C13.7985 993.802 13.7579 993.748 13.7243 993.692L14.1502 986.516C14.0953 986.44 14.0416 986.366 13.9871 986.289C13.9487 986.235 13.9099 986.18 13.8701 986.123L14.2003 980.561C14.1449 980.488 14.0916 980.417 14.0383 980.344C13.9986 980.29 13.9589 980.236 13.9184 980.18L14.1718 975.913C14.1275 975.859 14.0849 975.805 14.0246 975.729C13.9929 975.689 13.9563 975.643 13.912 975.587C13.9083 975.232 13.9347 974.857 13.9618 974.473C13.9901 974.071 14.0192 973.658 14.0154 973.245C13.9507 973.163 13.8859 973.083 13.7733 972.938L13.9099 970.637C13.833 970.543 13.7786 970.475 13.7173 970.399L13.7165 970.397L13.6185 970.275L13.9702 964.351C13.939 964.313 13.9115 964.279 13.8857 964.247L13.8261 964.173C13.7813 964.117 13.7366 964.061 13.6797 963.989L14.0505 957.742C13.9473 957.611 13.8842 957.533 13.8152 957.447L13.7978 957.426L14.0307 953.501C13.9731 953.422 13.9161 953.345 13.8587 953.266C13.8227 953.217 13.7866 953.167 13.7502 953.115L13.8025 952.233C13.7096 952.012 13.627 951.814 13.5373 951.598C13.4657 951.426 13.3895 951.243 13.2999 951.029L13.3714 949.825C13.32 949.759 13.2785 949.707 13.2379 949.656C13.1889 949.594 13.1412 949.535 13.0785 949.457L13.2152 947.154C13.1594 947.085 13.1156 947.03 13.0718 946.975L13.0704 946.973L13.0648 946.966C13.0223 946.913 12.9793 946.859 12.9248 946.791L13.2783 940.836C13.0616 940.734 12.8954 940.653 12.7017 940.561L13.0235 940.222L13.1813 940.055L13.3423 939.884L13.534 936.654C9.17632 938.896 5.46979 940.894 2.73517 942.643C-60.6122 983.12 -141.715 990.115 -214.638 971.832C-287.559 953.545 -352.934 911.962 -409.125 862.037C-453.029 822.997 -492.865 777.332 -514.088 722.561C-534.824 669.049 -536.581 610.317 -536.937 552.916C-537.401 479.094 -535.806 403.991 -513.583 333.576C-495.485 276.158 -454.766 217.074 -394.786 211.809C-369.477 209.595 -344.853 217.427 -320.245 225.253C-296.351 232.852 -272.473 240.446 -248 238.834C-245.588 234.849 -243.132 230.89 -240.626 226.961C-219.043 193.103 -192.241 160.893 -162.364 136.699C-159.755 130.995 -157.158 125.239 -154.561 119.484C-131.465 68.2895 -108.421 17.2086 -77.118 4.27362C0.355286 -27.7612 92.0642 129.028 107.319 183.957C117.012 218.858 114.141 266.277 105.878 314.318ZM38.5006 923.839C37.45 924.403 36.404 924.959 35.3647 925.507C35.4198 925.523 35.4645 925.576 35.4859 925.695C35.3338 925.882 35.2012 926.043 35.082 926.183L34.5755 926.153C34.2183 926.329 33.9685 926.453 33.6975 926.588C33.707 926.68 33.716 926.775 33.7237 926.861C33.728 926.909 33.7319 926.955 33.7353 926.996C33.9643 927.159 34.1059 927.056 34.2471 926.954C34.2993 926.916 34.3515 926.878 34.408 926.854L34.4597 926.831L34.4612 926.831C34.6587 926.745 34.8476 926.662 35.0418 926.543C35.1688 926.464 35.3447 926.479 35.4988 926.493C35.5625 926.499 35.6225 926.504 35.6738 926.502L35.9543 926.225C36.0664 926.246 36.1822 926.244 36.298 926.242C36.5191 926.238 36.7403 926.234 36.9357 926.391C36.9578 926.485 36.9801 926.577 37.001 926.663L37.0012 926.664C37.0227 926.753 37.0429 926.836 37.06 926.909C37.3542 926.764 37.6049 926.64 37.8605 926.513L37.8994 925.858C37.7244 925.625 37.5442 925.383 37.365 925.141C37.4382 925.069 37.5089 925 37.5782 924.931L37.5968 924.913C37.6722 924.838 37.7462 924.765 37.8201 924.693C38.0489 924.614 38.1661 924.759 38.2836 924.905C38.3258 924.957 38.3679 925.009 38.4152 925.051C38.4971 925.036 38.5814 925.05 38.6657 925.064C38.8203 925.089 38.9748 925.114 39.1139 924.962C38.9997 924.829 38.9556 924.654 38.9114 924.479C38.8563 924.26 38.8012 924.042 38.6101 923.905C38.5704 923.877 38.5277 923.853 38.5006 923.839ZM33.4047 926.535C33.2981 926.591 33.1916 926.646 33.0851 926.702C33.1579 926.7 33.235 926.698 33.3198 926.696L33.4121 926.693C33.4094 926.638 33.407 926.586 33.4047 926.535ZM38.3878 927.712C38.6386 927.63 38.8124 927.44 38.983 927.254C39.083 927.144 39.182 927.036 39.2946 926.952C39.2328 926.813 39.1706 926.676 39.1083 926.539L38.9759 926.249L38.909 926.103C38.9456 926.411 38.7804 926.557 38.6183 926.7C38.5529 926.757 38.4881 926.815 38.4371 926.882L38.3878 927.712ZM52.2753 916.017C52.1087 916.118 51.942 916.218 51.7753 916.319C51.8133 916.355 51.8529 916.392 51.8944 916.431L51.8996 916.436L52.0997 916.624L52.272 916.634C52.3078 916.55 52.3457 916.461 52.3916 916.354L52.4608 916.192C52.4001 916.134 52.3392 916.077 52.2753 916.017ZM53.0022 915.575C52.9406 915.613 52.879 915.651 52.8174 915.688C52.8491 915.698 52.8838 915.71 52.9217 915.723C52.946 915.679 52.973 915.629 53.0022 915.575ZM62.8274 909.199C62.6081 909.351 62.3881 909.503 62.1677 909.655C62.2519 909.76 62.3377 909.868 62.4256 909.978C62.5128 909.81 62.5984 909.644 62.6818 909.482L62.796 909.26L62.8274 909.199ZM64.3777 909.873C64.3591 909.718 64.3763 909.572 64.3925 909.435C64.4216 909.187 64.4474 908.968 64.2538 908.778C64.0275 909.109 63.9795 909.427 64.3777 909.873ZM61.3351 910.638L61.3961 910.724C61.6302 911.057 61.8439 911.36 62.0568 911.664C62.2437 911.587 62.3641 911.536 62.4335 911.507L61.4862 910.213C61.4198 910.397 61.371 910.538 61.3351 910.638Z" fill="url(#paint0_linear_0_1135)" fill-opacity="0.7"/>
<defs>
<linearGradient id="paint0_linear_0_1135" x1="17.0493" y1="103.65" x2="124.619" y2="905.236" gradientUnits="userSpaceOnUse">
<stop stop-color="#0B6547"/>
<stop offset="1" stop-color="#61ADAD"/>
</linearGradient>
</defs>
</svg>
