<svg width="432" height="1356" viewBox="0 0 432 1356" fill="none" xmlns="http://www.w3.org/2000/svg">
<g filter="url(#filter0_f_0_677)">
<path d="M883 603.5C883 757.864 757.864 883 603.5 883C449.137 883 324 757.864 324 603.5C324 449.136 449.137 324 603.5 324C757.864 324 883 449.136 883 603.5Z" fill="#AAD9D9" fill-opacity="0.6"/>
</g>
<path opacity="0.5" fill-rule="evenodd" clip-rule="evenodd" d="M561.565 542.994C558.649 546.808 553.991 546.91 550.523 543.23C547.107 539.603 546.788 534.188 549.77 530.353C552.624 526.679 557.383 526.469 560.757 529.866C564.163 533.299 564.521 539.124 561.565 542.994ZM538.45 563.032C535.784 566.338 530.557 566.349 527.552 563.074C525.079 560.378 523.902 553.917 526.562 550.429C529.198 546.969 534.445 546.489 537.505 550.572C541.039 554.315 541.421 559.356 538.45 563.032ZM499.909 1127.1C496.457 1123.48 492.16 1123.46 489.328 1127.05C486.671 1130.42 487.103 1136.47 490.232 1139.76C493.351 1143.03 498.55 1142.86 501.114 1139.41C503.847 1135.72 503.357 1130.71 499.909 1127.1ZM448.984 959.803C446.488 963.076 441.697 963.218 438.562 960.11C435.358 956.936 434.797 951.046 437.375 947.667C439.869 944.395 444.663 944.255 447.797 947.361C450.999 950.535 451.562 956.424 448.984 959.803ZM454.688 1035.64C457.8 1038.92 462.782 1038.87 465.366 1035.53C467.946 1032.19 467.473 1026.38 464.351 1023.09C461.241 1019.8 456.26 1019.85 453.673 1023.2C451.095 1026.54 451.568 1032.34 454.688 1035.64ZM516.591 582.315C514.245 585.911 508.76 586.15 505.83 582.823C502.458 578.997 502.495 573.074 505.413 569.646C507.765 566.885 512.069 567.154 515.319 570.54C519.042 574.559 519.118 578.434 516.591 582.315ZM471.541 1111.97C474.902 1115.48 478.608 1115.39 481.426 1111.74C484.537 1107.71 484.307 1103.31 480.799 1099.69C477.463 1096.25 473.734 1096.31 470.997 1099.87C467.772 1104.06 467.958 1108.24 471.541 1111.97ZM517.074 1215.7C514.489 1219.18 510.407 1219.39 507.239 1216.21C504.007 1212.97 503.46 1208.16 505.933 1204.72C508.756 1200.8 513.405 1200.44 516.494 1203.89C519.493 1207.25 519.731 1212.12 517.074 1215.7ZM526.136 1243.27C529.329 1246.64 533.258 1246.66 535.916 1243.33C538.997 1239.48 538.853 1234.69 535.548 1231.14C532.541 1227.9 528.223 1227.98 525.58 1231.32C522.547 1235.16 522.759 1239.72 526.136 1243.27ZM457.888 671.174C454.54 667.628 454.344 663.043 457.382 659.22C459.999 655.922 464.41 655.866 467.352 659.089C470.653 662.706 470.777 667.421 467.672 671.291C465.014 674.604 461.081 674.556 457.888 671.174ZM564.378 1287.7C561.476 1291.4 561.64 1295.92 564.799 1299.37C568.097 1302.97 572.081 1303.05 574.837 1299.56C577.868 1295.71 577.664 1290.78 574.333 1287.36C571.192 1284.14 567.06 1284.28 564.378 1287.7ZM461.765 1083.91C459.158 1087.32 455.063 1087.42 451.907 1084.15C448.738 1080.87 448.293 1076.08 450.841 1072.66C453.607 1068.93 457.965 1068.58 461.155 1071.82C464.307 1075.02 464.571 1080.25 461.765 1083.91ZM435.845 1007.76C439.039 1011.18 442.983 1011.27 445.64 1008C448.796 1004.1 448.714 999.539 445.419 995.792C442.583 992.569 438.022 992.576 435.436 995.81C432.376 999.631 432.534 1004.22 435.845 1007.76ZM545.262 1271.63C541.951 1268.09 541.794 1263.5 544.854 1259.68C547.44 1256.45 552.001 1256.44 554.837 1259.66C558.133 1263.41 558.214 1267.97 555.057 1271.86C552.401 1275.14 548.458 1275.05 545.262 1271.63ZM425.852 835.274C429.136 838.906 433.153 839.029 435.897 835.587C438.966 831.734 438.811 826.912 435.504 823.387C432.47 820.154 428.189 820.246 425.537 823.603C422.611 827.307 422.734 831.827 425.852 835.274ZM432.681 883.378C430.113 886.63 425.83 886.631 422.751 883.379C419.571 880.02 419.242 874.871 421.993 871.534C424.607 868.364 428.908 868.487 431.946 871.819C434.951 875.109 435.268 880.099 432.681 883.378ZM531.111 502.463C528.499 505.838 528.759 510.914 531.71 514.159C534.596 517.331 539.264 517.243 541.834 513.963C544.322 510.787 544.077 504.505 541.009 502.071C537.953 499.646 533.186 498.537 531.111 502.463ZM442.266 739.103C439.737 742.377 435.036 742.516 432.15 739.404C429.189 736.209 428.886 731.053 431.463 727.708C433.936 724.499 439.034 724.354 441.663 727.419C444.383 730.588 444.661 736.001 442.266 739.103ZM427.879 775.684C425.342 779.002 425.736 783.979 428.792 787.243C431.86 790.516 436.148 790.548 438.728 787.316C441.423 783.942 441.015 778.788 437.791 775.474C434.68 772.275 430.416 772.366 427.879 775.684ZM483.594 603.029C480.517 599.773 480.1 594.808 482.621 591.473C485.142 588.138 489.414 588.019 492.528 591.194C495.768 594.498 496.202 599.648 493.524 603.035C490.956 606.288 486.672 606.284 483.594 603.029ZM419.212 931.797C422.158 934.738 426.781 934.488 429.136 931.261C431.621 927.857 431.095 923.263 427.842 919.954C424.673 916.731 420.603 916.833 418.142 920.196C415.8 923.397 416.308 928.9 419.212 931.797ZM497.357 1187.87C494.938 1191.02 490.258 1191.14 487.407 1188.12C484.535 1185.09 484.153 1179.67 486.586 1176.52C489.154 1173.18 493.116 1173.2 496.31 1176.56C499.485 1179.9 499.914 1184.55 497.357 1187.87ZM508.447 523.39C506.282 526.427 506.824 532.046 509.547 534.791C512.298 537.563 517.073 537.388 519.313 534.434C521.986 530.911 521.543 526.537 518.169 523.092C514.808 519.663 511.021 519.781 508.447 523.39ZM460.935 622.91C457.857 619.884 457.672 614.404 460.525 610.767C462.786 607.883 466.371 608.112 469.471 611.34C473.111 614.634 473.051 619.041 470.605 622.426C468.354 625.547 463.764 625.693 460.935 622.91ZM434.775 679.029C432.013 682.573 432.091 687.676 434.956 690.891C437.658 693.924 442.57 693.878 444.895 690.646C447.368 687.205 447.165 682.972 444.007 679.814C440.611 676.418 437.12 676.017 434.775 679.029ZM478.048 1159.29C475.751 1162.41 471.164 1162.5 468.369 1159.67C465.412 1156.69 465.161 1151.38 467.807 1147.8C470.104 1144.68 473.791 1144.85 477.003 1148.2C480.641 1151.54 480.505 1155.96 478.048 1159.29ZM432.797 1055.58C435.571 1058.42 440.169 1058.35 442.479 1055.25C444.941 1051.94 445.114 1047.52 441.476 1044.16C438.253 1040.78 434.58 1040.6 432.276 1043.71C429.622 1047.29 429.851 1052.57 432.797 1055.58ZM425.983 979.766C423.599 982.814 419.004 982.767 416.263 979.669C413.595 976.648 413.259 971.564 415.537 968.652C417.83 965.717 422.176 965.634 424.985 968.467C427.874 971.384 428.348 976.741 425.983 979.766ZM449.033 1131.33C452.147 1134.56 455.404 1134.42 458.053 1130.93C460.73 1127.4 460.486 1123.36 457.406 1120.18C454.388 1117.06 450.876 1117.29 448.223 1120.79C445.593 1124.25 445.885 1128.06 449.033 1131.33ZM406.816 807.01C403.619 803.61 403.499 800.062 406.451 796.285C409.014 793.005 412.352 792.926 415.369 796.071C418.601 799.44 418.744 803.258 415.783 807.051C413.126 810.454 410.04 810.439 406.816 807.01ZM486.112 543.623C483.438 547.156 483.696 550.723 486.869 554.055C490.154 557.507 493.212 557.359 496.041 553.607C498.71 550.064 498.414 546.129 495.234 542.92C492.065 539.721 488.878 539.967 486.112 543.623ZM412.633 855.013C410.233 858.089 406.224 858.067 403.366 854.96C400.532 851.876 400.258 847.205 402.736 844.181C405.102 841.292 408.956 841.317 411.757 844.236C414.663 847.267 415.042 851.921 412.633 855.013ZM438.79 642.849C441.722 645.883 445.407 645.676 447.879 642.339C450.064 639.388 449.712 634.303 447.145 631.695C444.478 628.985 440.143 629.365 437.826 632.509C435.529 635.626 435.927 639.88 438.79 642.849ZM400.9 903.467C398.036 900.576 397.535 896.075 399.733 892.992C402.051 889.748 406.041 889.611 408.956 892.675C411.768 895.634 412.161 900.105 409.878 903.153C407.596 906.2 403.743 906.336 400.9 903.467ZM409.679 758.964C412.514 761.884 416.35 761.811 418.668 758.794C421.07 755.667 420.609 751.008 417.6 748.032C414.744 745.206 410.89 745.402 408.634 748.488C406.398 751.549 406.845 756.046 409.679 758.964ZM472.859 563.487C475.653 566.305 475.879 571.366 473.348 574.433C471.031 577.242 466.92 577.242 464.358 574.435C461.599 571.407 461.548 566.736 464.24 563.394C466.249 560.899 470.341 560.945 472.859 563.487ZM523.58 1279.94C520.913 1283.27 520.996 1287.98 523.775 1290.98C526.362 1293.78 530.447 1293.74 532.757 1290.9C535.189 1287.9 535.065 1283.39 532.464 1280.23C530.182 1277.46 525.685 1277.31 523.58 1279.94ZM513.121 1263.02C510.809 1265.87 506.742 1265.93 504.142 1263.14C501.353 1260.15 501.256 1255.43 503.914 1252.1C506.023 1249.46 510.492 1249.59 512.795 1252.35C515.404 1255.49 515.541 1260.02 513.121 1263.02ZM413.452 1027.29C416.258 1030.2 420.202 1030.08 422.45 1027.01C424.678 1023.98 424.18 1019.36 421.313 1016.52C418.576 1013.8 414.778 1013.92 412.559 1016.79C410.252 1019.77 410.642 1024.38 413.452 1027.29ZM406.462 950.818C404.239 953.636 399.977 953.668 397.443 950.883C394.895 948.08 394.641 943.174 396.902 940.377C399.469 937.198 402.54 937.296 405.656 940.654C408.737 943.974 409.022 947.567 406.462 950.818ZM429.754 1102.79C432.345 1105.55 436.554 1105.45 438.758 1102.57C441.259 1099.31 440.927 1095.69 437.827 1092.41C434.692 1089.1 431.625 1089.05 429.083 1092.29C426.859 1095.12 427.172 1100.03 429.754 1102.79ZM493.647 1234.91C491.526 1237.86 487.333 1238.11 484.671 1235.46C482.021 1232.83 481.568 1227.87 483.712 1224.96C486.183 1221.62 489.265 1221.55 492.428 1224.76C495.628 1228.01 496.055 1231.57 493.647 1234.91ZM465.407 1206.76C467.631 1209.21 472.098 1209.09 474.169 1206.6C476.371 1203.96 476.215 1199.83 473.813 1197.18C470.204 1193.2 467.638 1192.89 465.007 1196.14C461.963 1198.44 463.488 1204.65 465.407 1206.76ZM424.741 652.379C427.638 655.425 428.032 659.029 425.805 662.109C423.818 664.856 419.152 665.123 416.829 662.533C414.874 660.355 413.737 654.723 416.153 652.111C418.984 649.048 421.433 648.899 424.741 652.379ZM450.742 594.801C452.782 592.208 452.494 587.627 450.121 584.916C447.694 582.144 443.501 582.084 441.372 584.791C439.332 587.384 439.62 591.965 441.993 594.678C444.42 597.448 448.613 597.508 450.742 594.801ZM412.805 710.827C410.27 707.966 409.997 703.398 412.196 700.613C414.48 697.715 418.582 697.791 421.228 700.778C423.865 703.755 424.038 708.535 421.61 711.275C419.287 713.896 415.344 713.695 412.805 710.827ZM395.853 778.948C397.963 776.276 397.642 771.843 395.14 769.149C392.643 766.461 388.836 766.455 386.72 769.135C384.608 771.808 384.932 776.243 387.433 778.934C389.928 781.622 393.738 781.63 395.853 778.948ZM498.196 496.165C500.671 498.801 501.103 503.002 499.175 505.641C497.067 508.526 492.72 508.704 490.278 505.999C487.809 503.27 487.61 498.465 489.846 495.688C491.932 493.101 495.513 493.307 498.196 496.165ZM393.352 988.838C391.142 991.685 391.434 996.497 393.975 999.144C396.412 1001.68 400.451 1001.54 402.63 998.847C404.689 996.302 404.25 991.784 401.682 989.09C398.999 986.273 395.429 986.167 393.352 988.838ZM419.453 1075.12C417.205 1077.78 413.159 1077.85 410.786 1075.26C408.286 1072.54 408.058 1067.76 410.295 1064.95C412.371 1062.35 415.969 1062.52 418.64 1065.36C421.233 1068.11 421.602 1072.56 419.453 1075.12ZM383.602 816.436C381.364 819.232 381.579 824.02 384.067 826.747C386.528 829.446 390.863 829.25 392.961 826.344C394.85 823.728 394.395 819.473 391.947 816.872C389.28 814.038 385.672 813.848 383.602 816.436ZM454.764 1179.31C452.703 1181.88 449.052 1181.94 446.556 1179.44C443.952 1176.83 443.511 1172.36 445.585 1169.59C447.654 1166.82 451.5 1166.76 454.04 1169.45C456.584 1172.15 456.912 1176.62 454.764 1179.31ZM381.382 875.047C383.912 877.747 387.76 877.702 389.841 874.945C391.836 872.301 391.538 868.046 389.171 865.376C386.711 862.605 382.846 862.52 380.688 865.192C378.534 867.863 378.848 872.343 381.382 875.047ZM399.133 720.551C401.752 723.392 401.847 727.063 399.384 730.227C397.158 733.086 394.181 733.149 391.527 730.396C388.729 727.497 388.483 724.033 390.857 720.948C393.27 717.813 396.468 717.658 399.133 720.551ZM377.747 913.122C375.36 916.206 375.58 919.68 378.346 922.571C381.003 925.347 383.99 925.315 386.21 922.484C388.702 919.307 388.635 915.671 386.03 912.805C383.394 909.907 380.139 910.033 377.747 913.122ZM475.748 516.274C478.592 519.206 478.692 522.893 476.018 526.238C473.812 528.996 470.79 528.951 468.136 526.116C465.439 523.24 465.286 519.756 467.717 516.664C469.987 513.772 473.171 513.619 475.748 516.274ZM427.935 613.597C430.503 610.499 430.185 607.396 427.49 603.944C425.229 601.048 421.705 601.369 419.52 604.166C417.114 607.252 417.319 611.046 420.039 613.834C422.551 616.41 425.715 616.277 427.935 613.597ZM434.949 1151.01C432.754 1153.72 429.559 1153.8 427.052 1151.2C424.361 1148.41 424.178 1144.61 426.582 1141.53C428.751 1138.76 432.134 1138.67 434.607 1141.31C437.197 1144.08 437.336 1148.06 434.949 1151.01ZM391.395 1047.03C393.838 1049.67 397.252 1049.62 399.434 1046.91C401.562 1044.26 401.407 1039.94 399.089 1037.31C397.028 1034.97 393.062 1035 391.106 1037.38C388.742 1040.25 388.864 1044.3 391.395 1047.03ZM401.857 672.208C404.179 674.819 404.344 679.165 402.224 681.806C400.041 684.527 396.634 684.59 394.186 681.955C391.648 679.224 391.518 675.176 393.878 672.302C395.793 669.966 399.823 669.92 401.857 672.208ZM407.077 1113.53C405.164 1116.12 405.491 1120.22 407.807 1122.68C410.117 1125.13 413.655 1125.1 415.662 1122.62C417.871 1119.89 417.583 1116.27 414.934 1113.47C412.252 1110.64 409.199 1110.66 407.077 1113.53ZM452.685 536.122C455.43 538.883 455.819 542.432 453.68 545.27C451.748 547.834 448.24 548.001 445.851 545.642C443.364 543.184 443.008 538.844 445.076 536.207C447.178 533.523 450.068 533.491 452.685 536.122ZM370.23 846.079C372.005 843.718 371.658 839.544 369.492 837.225C367.233 834.806 363.418 834.923 361.662 837.467C359.965 839.92 360.428 844.108 362.643 846.316C364.875 848.543 368.46 848.432 370.23 846.079ZM382.538 961.445C385.058 963.927 385.458 968.239 383.408 970.837C381.447 973.325 377.941 973.352 375.588 970.896C373.235 968.439 372.857 964.355 374.742 961.79C376.628 959.225 380.124 959.069 382.538 961.445ZM482.403 1283.13C484.567 1285.24 488.429 1285.01 490.215 1282.67C492.139 1280.15 491.791 1276.53 489.377 1273.98C486.702 1271.15 483.862 1270.95 481.977 1273.45C479.85 1276.27 480.052 1280.84 482.403 1283.13ZM470.931 1254.33C469.077 1256.63 465.204 1256.77 463.105 1254.6C460.786 1252.21 460.67 1247.72 462.851 1244.92C464.68 1242.57 467.473 1242.74 469.989 1245.35C472.552 1248 472.953 1251.82 470.931 1254.33ZM373.738 798.172C375.662 795.66 375.318 792.017 372.912 789.473C370.238 786.646 367.399 786.439 365.514 788.933C363.38 791.754 363.576 796.321 365.927 798.618C368.086 800.731 371.945 800.51 373.738 798.172ZM366.151 886.044C369.514 889.418 368.768 892.083 367.139 894.663C365.479 897.299 361.579 897.342 359.404 895.094C357.065 892.675 356.981 888.194 359.223 885.397C360.882 883.326 363.779 883.6 366.151 886.044ZM376.465 749.621C378.638 746.142 378.045 743.618 375.406 740.997C373.035 738.566 370.136 738.322 368.487 740.416C366.255 743.258 366.363 747.724 368.726 750.114C370.915 752.328 374.827 752.243 376.465 749.621ZM404.452 624.995C407.084 627.615 407.68 630.144 405.501 633.621C403.86 636.242 399.945 636.32 397.761 634.104C395.401 631.708 395.296 627.238 397.53 624.404C399.181 622.312 402.08 622.561 404.452 624.995ZM443.473 1226.45C445.678 1228.86 449.138 1228.86 450.997 1226.45C452.769 1224.16 452.544 1220.36 450.497 1217.98C448.364 1215.5 444.889 1215.36 442.952 1217.69C441.025 1220 441.263 1224.03 443.473 1226.45ZM395.618 1094.05C393.34 1097.03 391.219 1097.07 388.514 1094.2C385.99 1091.51 385.817 1089.04 387.955 1086.2C390.358 1083 392.591 1082.79 395.231 1085.51C397.936 1088.3 398.052 1090.87 395.618 1094.05ZM372.32 1009.64C369.918 1012.7 369.99 1015.17 372.564 1017.93C375.275 1020.85 377.416 1020.84 379.676 1017.9C382.097 1014.76 382.006 1012.11 379.386 1009.36C376.827 1006.67 374.585 1006.76 372.32 1009.64ZM430.485 556.781C433.072 559.565 433.12 562.149 430.647 565.326C428.492 568.095 426.359 568.146 423.792 565.49C421.067 562.672 420.888 560.21 423.186 557.206C425.619 554.021 427.806 553.895 430.485 556.781ZM379.235 701.739C381.364 699.085 381.21 695.439 378.871 693.104C376.854 691.095 373.7 691.214 371.971 693.371C369.706 696.193 369.744 699.079 372.08 701.702C374.485 704.401 377.088 704.414 379.235 701.739ZM431.297 1197.95C429.145 1200.79 426.644 1200.94 424.181 1198.38C421.698 1195.8 421.52 1192.89 423.667 1190.06C425.512 1187.62 428.684 1187.42 430.798 1189.6C432.991 1191.87 433.203 1195.43 431.297 1197.95ZM363.546 941.993C365.364 939.563 365.098 935.78 362.96 933.649C360.814 931.514 357.667 931.763 355.839 934.207C353.716 937.046 353.928 939.97 356.443 942.532C358.907 945.047 361.408 944.855 363.546 941.993ZM405.185 1170.16C403.316 1167.86 403.375 1164.08 405.317 1161.82C406.914 1159.96 410.494 1159.96 412.181 1161.81C414.168 1164 414.268 1168.18 412.383 1170.41C410.535 1172.59 407.068 1172.47 405.185 1170.16ZM407.778 585.114C409.509 582.954 409.423 579.094 407.597 576.805C406.012 574.818 402.109 574.822 400.477 576.811C398.599 579.1 398.656 582.934 400.6 585.162C402.559 587.404 405.964 587.381 407.778 585.114ZM376.653 1057.76C378.535 1059.88 378.718 1063.88 377.038 1066.07C375.246 1068.4 371.899 1068.54 369.879 1066.36C367.865 1064.18 367.709 1060.32 369.543 1058C371.198 1055.91 374.896 1055.79 376.653 1057.76ZM360.267 989.585C362.016 987.159 361.657 984.628 359.201 982.077C356.569 979.344 354.548 979.349 352.523 982.085C350.878 984.315 351.203 988.315 353.19 990.271C355.239 992.287 358.547 991.969 360.267 989.585ZM349.404 809.793C351.853 812.346 352.198 814.884 350.429 817.305C348.693 819.677 345.381 819.975 343.346 817.94C341.37 815.965 341.068 811.987 342.723 809.752C344.743 807.028 346.761 807.039 349.404 809.793ZM353.315 770.01C354.891 768.02 354.692 764.415 352.884 762.3C351.006 760.102 347.683 760.024 346.003 762.14C344.337 764.241 344.674 768.099 346.701 770.131C348.645 772.075 351.72 772.019 353.315 770.01ZM346.582 858.232C348.721 860.527 349.299 862.997 347.536 865.608C345.967 867.93 342.769 868.229 340.71 866.261C338.688 864.328 338.339 860.502 339.981 858.239C341.685 855.888 344.362 855.855 346.582 858.232ZM381.899 653.466C383.564 651.32 383.271 647.611 381.265 645.486C379.266 643.365 376.08 643.387 374.414 645.538C372.749 647.684 373.044 651.393 375.048 653.518C377.05 655.638 380.233 655.617 381.899 653.466ZM392.892 1142.01C391.317 1144.32 388.108 1144.6 386.061 1142.62C384.044 1140.66 383.714 1136.84 385.367 1134.59C387.078 1132.26 389.765 1132.25 391.971 1134.63C394.11 1136.93 394.655 1139.41 392.892 1142.01ZM356.114 721.182C357.577 718.914 358.146 716.384 355.342 713.923C352.979 711.416 350.863 711.351 348.972 713.87C347.264 716.146 347.562 719.575 349.644 721.632C351.685 723.647 354.56 723.587 356.114 721.182ZM384.369 597.903C387.192 600.458 386.618 602.974 385.118 605.217C383.524 607.609 380.673 607.631 378.641 605.582C376.576 603.497 376.316 600.097 378.049 597.82C379.917 595.365 382.072 595.461 384.369 597.903ZM343.893 913.458C345.4 911.237 346.015 908.728 342.991 905.911C340.893 903.664 338.759 903.546 336.882 905.993C335.131 908.269 335.363 911.64 337.411 913.751C339.412 915.811 342.29 915.821 343.893 913.458ZM356.448 1030.45C358.576 1032.17 358.547 1035.42 356.788 1037.73C354.999 1040.06 352.974 1040.17 350.768 1037.99C348.641 1035.89 348.56 1033.08 350.455 1030.67C352.176 1027.93 354.463 1028.85 356.448 1030.45ZM372.573 1114.13C374.794 1111.82 374.269 1108.95 372.472 1106.9C370.875 1105.08 368.389 1104.12 366.528 1106.66C364.58 1108.93 364.513 1111.91 366.479 1114C368.593 1116.25 370.596 1116.18 372.573 1114.13ZM340.139 954.955C342.007 956.98 342.57 959.807 340.416 962.181C338.506 964.289 336.509 964.472 334.341 962.277C332.289 960.202 332.282 957.255 334.2 954.931C335.989 952.319 338.462 953.137 340.139 954.955ZM359.061 673.416C360.679 671.252 360.544 668.794 358.623 666.621C356.581 664.311 354.358 664.186 352.531 666.398C350.693 668.619 351.044 671.097 353.079 673.73C355.158 675.391 357.289 675.793 359.061 673.416ZM329.943 783.27C331.737 785.241 331.944 787.751 330.474 789.767C328.886 791.953 326.773 791.751 324.603 790.044C322.895 787.739 322.444 785.288 324.117 783.193C325.769 781.122 328.012 781.147 329.943 783.27ZM327.141 837.626C328.656 835.349 328.57 833.173 326.708 831.105C324.773 828.953 322.7 828.57 320.977 830.77C319.33 832.871 319.413 835.53 321.327 837.613C323.264 839.719 325.413 839.346 327.141 837.626ZM336.084 1002.96C338.141 1004.92 338.763 1007.27 337.143 1009.58C335.586 1011.79 333.328 1012.02 331.312 1010.09C329.247 1008.12 329.351 1005.58 330.46 1003.4C332.241 1001.29 334.083 1001.05 336.084 1002.96ZM323.906 885.297C325.506 882.741 325.086 880.486 323.022 878.476C321.051 876.555 319.081 876.571 317.58 878.651C316.012 880.823 316.136 883.475 318.122 885.487C320.112 887.503 322.249 887.086 323.906 885.297ZM361.45 618.603C363.511 620.613 363.934 622.867 362.332 625.425C360.677 627.212 358.538 627.633 356.549 625.617C354.565 623.605 354.44 620.95 356.008 618.778C357.508 616.7 359.48 616.685 361.45 618.603ZM353.339 1085.4C354.938 1083.43 354.736 1081.13 352.883 1079.05C350.955 1076.89 348.988 1076.62 347.002 1078.77C345.659 1080.91 345.545 1083.44 347.475 1085.53C349.401 1087.62 351.671 1087.47 353.339 1085.4ZM332.348 734.556C334.403 736.522 335.021 738.877 333.4 741.179C331.842 743.388 329.578 743.613 327.57 741.684C325.525 739.719 325.556 737.164 326.808 734.89C328.503 732.879 330.349 732.645 332.348 734.556ZM388.148 557.074C389.666 554.518 389.181 552.272 387.112 550.307C385.111 548.404 383.144 548.505 381.686 550.606C380.157 552.809 380.318 555.476 382.342 557.438C384.355 559.395 386.492 558.967 388.148 557.074ZM336.346 686.598C338.866 688.95 338.158 691.16 336.947 692.755C335.406 694.794 332.971 695.026 331.176 692.881C329.261 690.593 329.594 687.742 331.386 685.786C333.176 683.833 335.055 684.85 336.346 686.598ZM320.574 933.319C322.418 931.205 322.37 928.921 320.425 926.959C318.915 925.433 316.9 924.66 315.57 927.018C313.836 928.996 313.412 930.964 315.524 933.236C317.36 935.209 318.897 935.242 320.574 933.319ZM368.508 1154.94C370.192 1156.65 370.943 1158.97 369.071 1160.81C367.461 1163.18 365.782 1163.54 363.714 1161.34C361.816 1159.31 361.932 1157.56 363.324 1155.46C364.865 1153.13 366.759 1153.17 368.508 1154.94ZM333.884 1056.37C335.1 1055.04 334.607 1052.63 332.95 1050.88C331.344 1049.17 329.406 1049.3 327.92 1051.26C326.417 1053.23 326.287 1055.22 328.177 1057.25C330.065 1059.28 331.786 1059 333.884 1056.37ZM365.008 570.038C366.472 571.729 366.788 573.998 365.159 575.95C363.568 577.863 361.923 578.172 360.023 576.185C358.098 574.17 358.229 572.143 359.712 570.204C361.291 568.058 363.358 568.131 365.008 570.038ZM339.488 644.09C340.954 642.119 340.881 639.869 339.206 638.192C337.509 636.49 335.496 636.256 333.911 638.509C332.436 640.606 332.57 642.522 334.377 644.592C336.339 646.331 337.988 646.11 339.488 644.09ZM316.8 975.345C318.445 977.148 318.599 979.282 317.188 981.052C315.779 982.821 313.945 982.802 312.281 981.017C310.601 979.213 310.655 977.189 311.836 975.239C313.411 973.736 315.134 973.519 316.8 975.345ZM350.083 1133.29C351.686 1131.49 351.083 1129.63 349.721 1127.82C348.052 1126.24 346.432 1125.43 344.909 1127.42C343.443 1129.33 343.455 1131.59 345.173 1133.43C346.761 1135.13 348.625 1134.93 350.083 1133.29ZM306.497 803.574C307.974 805.146 308.57 806.867 307.331 808.753C305.958 810.842 304.02 811.042 302.235 809.411C300.339 807.678 300.63 805.419 301.436 803.764C303.256 801.614 304.852 801.826 306.497 803.574ZM311.073 760.425C312.33 758.546 311.749 756.824 310.268 755.242C308.631 753.495 307.037 753.257 305.36 755.205C304.269 757.039 304.133 759.309 305.973 761.041C307.739 762.704 309.686 762.493 311.073 760.425ZM312.578 706.661C314.397 708.48 315.029 710.202 313.66 712.09C312.313 713.945 310.45 714.184 308.803 712.589C307.126 710.963 307.059 708.71 308.37 706.886C309.65 705.102 311.223 705.138 312.578 706.661ZM301.071 904.854C302.439 902.948 301.772 901.238 299.924 899.384C298.598 897.893 297.027 897.901 295.759 899.685C294.458 901.514 294.531 903.77 296.219 905.383C297.87 906.961 299.73 906.723 301.071 904.854ZM303.638 852.004C305.199 853.588 305.368 855.731 304.164 857.443C302.932 859.196 301.205 858.954 299.518 857.848C298.024 856.031 297.612 854.027 298.754 852.287C300.013 850.369 301.946 850.287 303.638 852.004ZM342.209 596.438C343.459 594.985 343.41 593.017 342.07 591.388C340.602 589.608 338.95 589.636 337.4 591.098C336.355 592.696 336.264 594.516 337.608 596.148C339.078 597.929 340.842 598.022 342.209 596.438ZM314.018 1023.67C315.604 1025.39 315.497 1027.2 314.039 1028.64C312.814 1030.62 311.544 1030.52 309.927 1028.84C308.238 1027.08 308.422 1025.71 309.686 1024.05C310.997 1022.33 312.421 1021.93 314.018 1023.67ZM330.064 1104.78C331.427 1103.01 331.431 1101.32 329.751 1099.69C327.991 1097.98 326.688 1098.79 325.441 1100.44C324.084 1102.24 324.333 1103.71 325.975 1105.14C327.681 1107.13 328.845 1106.36 330.064 1104.78ZM297.22 947.597C298.486 949.057 298.467 950.724 297.341 952.236C296.116 953.885 294.636 954.182 293.137 952.605C291.632 951.025 291.716 949.237 292.997 947.658C294.275 946.084 295.8 945.957 297.22 947.597ZM316.245 664.313C317.572 662.9 317.835 661.125 316.539 659.389C315.172 657.556 313.656 657.912 312.501 659C311.039 660.757 310.816 662.498 312.25 664.192C313.545 665.726 314.992 665.646 316.245 664.313ZM284.114 824.099C285.235 825.361 286.059 826.582 284.758 828.196C283.485 829.779 281.994 830.115 280.522 828.547C279.201 827.139 279.278 825.429 280.323 823.858C281.581 821.963 282.821 822.77 284.114 824.099ZM319.886 616.078C321.192 614.444 320.326 613.237 319.222 611.981C317.921 610.649 316.681 609.858 315.43 611.766C314.395 613.343 314.324 615.056 315.652 616.454C317.13 618.008 318.616 617.665 319.886 616.078ZM293.749 996.227C294.969 997.513 296.101 998.887 294.951 1000.07C293.376 1002.05 291.903 1002.38 290.521 1001.04C288.978 999.552 289.054 997.759 290.217 996.071C291.37 994.394 292.558 994.973 293.749 996.227ZM287.367 780.087C288.839 778.462 288.136 777.08 286.169 775.013C285.48 774.214 284.224 773.758 283.041 775.601C282.021 777.187 282.003 778.891 283.355 780.289C284.7 781.683 286.131 781.447 287.367 780.087ZM290.142 728.256C291.198 729.683 291.322 731.335 290.162 732.541C289.147 733.594 287.88 733.347 286.861 732.539C285.725 730.841 285.575 729.216 286.548 728.003C287.556 726.752 288.999 726.713 290.142 728.256ZM280.756 876.42C281.93 875.219 281.81 873.573 280.768 872.14C279.638 870.588 278.188 870.616 277.172 871.851C276.19 873.051 276.33 874.681 277.473 876.408C278.466 877.189 279.725 877.47 280.756 876.42ZM277.474 920.601C278.78 921.897 278.674 923.07 277.711 924.365C276.805 925.589 275.877 926.195 274.872 925.22C273.247 923.601 273.275 922.399 274.288 921.115C275.199 919.953 276.097 919.231 277.474 920.601ZM274.182 972.334C274.999 971.305 274.891 970.253 273.937 969.22C272.954 968.155 271.969 967.621 270.978 968.963C270.178 970.093 270.101 971.371 271.155 972.485C272.203 973.59 273.3 973.449 274.182 972.334ZM263.822 796.602C264.854 797.633 265.355 798.725 264.387 799.999C263.515 801.146 262.487 801.145 261.324 800.252C260.425 799.022 260.286 797.826 261.151 796.668C261.939 795.608 262.833 795.615 263.822 796.602ZM296.195 635.659C297.163 634.384 296.664 633.292 295.63 632.262C294.641 631.275 293.747 631.27 292.958 632.328C292.093 633.486 292.234 634.682 293.131 635.912C294.297 636.805 295.323 636.805 296.195 635.659ZM293.321 680.739C294.291 681.889 294.35 683.204 293.507 684.319C292.55 685.586 291.391 685.512 290.199 684.422C289.104 683.058 288.976 681.693 289.986 680.506C291.008 679.301 292.239 679.456 293.321 680.739ZM261.498 847.039C262.053 846.411 261.335 845.65 260.698 844.975L260.696 844.973C260.652 844.925 260.608 844.879 260.564 844.832C260.515 844.78 260.465 844.725 260.414 844.669L260.412 844.667C259.783 843.98 259.02 843.147 258.26 844.179C257.506 845.205 257.156 846.635 258.287 847.765C259.232 848.709 260.261 848.241 261.498 847.039ZM267.059 749.157C267.755 749.814 268.639 750.651 267.886 751.696C267.148 752.715 265.958 753.294 264.846 752.169C263.897 751.208 264.154 749.952 264.724 748.847C265.412 747.575 266.172 748.306 266.838 748.945C266.885 748.991 266.932 749.036 266.978 749.08L267.059 749.157ZM270.377 703.68C271.523 702.765 270.79 701.929 270.187 701.241C270.143 701.191 270.1 701.141 270.058 701.093C269.992 701.017 269.926 700.937 269.858 700.856C269.198 700.064 268.417 699.128 267.538 700.495C266.892 701.499 266.783 702.639 267.56 703.869C268.582 704.671 269.475 704.4 270.377 703.68ZM257.976 893.371C258.594 894.057 259.348 894.895 258.252 895.845C257.375 896.603 256.472 896.869 255.421 896.082C254.636 894.891 254.731 893.763 255.358 892.732C256.21 891.327 256.992 892.236 257.66 893.013C257.732 893.095 257.801 893.177 257.87 893.253C257.904 893.292 257.94 893.331 257.976 893.371Z" fill="url(#paint0_linear_0_677)" fill-opacity="0.3"/>
<defs>
<filter id="filter0_f_0_677" x="0.000244141" y="0" width="1207" height="1207" filterUnits="userSpaceOnUse" color-interpolation-filters="sRGB">
<feFlood flood-opacity="0" result="BackgroundImageFix"/>
<feBlend mode="normal" in="SourceGraphic" in2="BackgroundImageFix" result="shape"/>
<feGaussianBlur stdDeviation="162" result="effect1_foregroundBlur_0_677"/>
</filter>
<linearGradient id="paint0_linear_0_677" x1="404.746" y1="1248.84" x2="396.624" y2="560.348" gradientUnits="userSpaceOnUse">
<stop stop-color="#0B6547"/>
<stop offset="1" stop-color="#61ADAD"/>
</linearGradient>
</defs>
</svg>
