<svg width="140" height="40" viewBox="0 0 140 40" fill="none" xmlns="http://www.w3.org/2000/svg">
<path fill-rule="evenodd" clip-rule="evenodd" d="M5.03791 27.5855C4.56141 27.2199 4.25411 26.6446 4.25411 25.9976V2.24707C4.25411 1.1425 5.14961 0.24707 6.25411 0.24707H8.89381C9.55221 0.24707 10.1684 0.571154 10.5416 1.11365L19.1083 13.5686L27.6408 1.11656C28.0137 0.572374 28.6309 0.24707 29.2906 0.24707H31.928C33.0325 0.24707 33.928 1.1425 33.928 2.24707V25.9976C33.928 26.5468 33.7066 27.0443 33.3483 27.4057L33.5158 27.4481L33.1419 28.2724L32.8316 29.4897L33.319 29.7117C33.6964 29.8836 34.155 29.8359 35.3518 29.5002C36.2017 29.2617 37.1242 29.0732 37.4018 29.0815C37.6793 29.0898 37.3471 29.237 36.6636 29.4087C35.1714 29.7836 34.3955 30.4954 34.5773 31.3221C34.6786 31.7819 34.6386 31.7568 34.3101 31.1546C33.9831 30.5546 33.6941 30.3719 32.4176 29.9575C30.7069 29.4021 30.3241 29.457 31.5493 30.0818C32.6728 30.6548 33.2958 31.4741 33.1419 32.1754C32.9433 33.0787 33.3472 33.7342 34.5255 34.421C35.7739 35.1485 35.7319 35.2924 34.4603 34.6438C33.2892 34.0465 33.1813 34.2402 33.9905 35.4867C34.2855 35.9411 34.2656 35.9344 33.8279 35.432C33.308 34.8351 32.6245 32.9294 32.6245 32.0764C32.6245 31.3294 30.9753 30.1909 30.5598 30.6511C30.4724 30.7478 30.3477 31.1127 30.2827 31.4619C30.1727 32.0527 30.2247 32.1203 31.0321 32.4357L31.8995 32.7747L31.0192 32.6546C30.0262 32.5189 29.9649 32.6115 30.5532 33.3591C31.1965 34.1768 31.041 34.54 30.3694 33.7885C29.8572 33.2154 29.724 33.1585 29.4427 33.3919C28.8868 33.8531 28.8257 34.8722 29.2926 35.9009C29.5252 36.4135 29.7176 37.1145 29.7201 37.4587C29.723 37.8466 29.9755 38.3979 30.3842 38.9084L31.0437 39.7322L30.402 39.1412L29.7605 38.5501L29.4187 39.1412C29.2306 39.4663 29.1374 39.5459 29.2112 39.318C29.5892 38.1533 29.5511 37.5647 29.0237 36.4128C28.7256 35.7619 28.4819 35.1011 28.4819 34.9439C28.4819 34.5877 28.2762 34.563 28.0572 34.9087C27.9671 35.0512 27.7057 35.642 27.6345 36.2115L27.5046 37.247L27.4762 36.3151C27.4545 35.5994 27.5893 35.17 28.0572 34.4649C28.3924 33.9599 28.6192 33.4704 28.5616 33.3772C28.3799 33.0833 27.6639 33.6124 27.5319 34.138C27.4749 34.2368 27.4256 34.3247 27.3802 34.4056C27.2749 34.5932 27.1904 34.744 27.0775 34.9087C26.8867 35.0642 27.0035 34.6993 27.3567 34.037C27.7633 33.2744 28.1113 32.877 28.4098 32.8344C28.9823 32.7528 29.4336 31.6466 29.3342 30.5681C29.3096 30.3013 27.962 30.2038 27.3805 30.4268C27.2119 30.4914 26.6243 31.1053 26.0744 31.7906C25.5246 32.4759 24.886 33.1272 24.6553 33.2378C24.2856 33.4151 24.291 33.3906 24.7017 33.0317C25.3086 32.5013 25.2893 32.3806 24.5981 32.3781C24.1062 32.3765 24.1698 32.3091 25.0642 31.8846C25.7168 31.575 26.2307 31.1537 26.4538 30.7457C26.86 30.0025 27.5332 29.6879 28.7176 29.6879C29.3982 29.6879 29.5347 29.6226 29.4744 29.3255C29.392 28.9183 29.1548 28.9131 27.3426 29.2789C26.2821 29.493 25.9936 29.4818 25.3749 29.2031L24.6499 28.8762L25.9072 28.9939C26.592 28.9939 26.6625 28.1354 26.6032 27.2579C26.3238 26.9139 26.1563 26.4753 26.1563 25.9976V14.9642L22.2004 20.5989C21.826 21.1322 21.2152 21.4497 20.5636 21.4497H17.6227C16.9687 21.4497 16.3561 21.13 15.9821 20.5936L12.0258 14.9192V25.9976C12.0258 26.6446 11.7186 27.2199 11.242 27.5855H11.7816C11.5127 28.1931 11.3068 28.5976 11.1494 28.8567L11.2296 28.8885C11.6675 29.062 12.1105 29.0365 13.1456 28.7781C15.0597 28.3001 15.3312 28.3817 13.7935 28.9732C12.1942 29.5883 11.4133 29.6083 10.0463 29.0697L9.00291 28.6584V29.1475C9.00291 29.5926 9.10861 29.6454 10.1772 29.7339L10.2642 29.741C10.6843 29.7756 10.9461 29.7971 11.1746 29.8957C11.5523 30.0586 11.8392 30.432 12.6001 31.4226L12.6953 31.5464C13.1319 32.1143 13.2972 32.1766 14.4559 32.2104C15.7055 32.2468 15.7111 32.2495 14.6991 32.3263C13.3738 32.427 13.1352 32.6712 13.9503 33.0928C14.6887 33.4745 14.7846 33.6333 14.1814 33.4757C13.7044 33.3511 12.4471 32.1242 11.9533 31.3016C11.542 30.6165 10.7339 30.2572 9.80431 30.346C9.19931 30.4038 9.11311 30.4817 9.15701 30.9305C9.26371 32.024 9.44371 32.3833 10.0382 32.6906C10.3762 32.8654 10.7944 33.2819 10.9672 33.6159C11.4195 34.4907 11.3533 34.8822 10.8831 34.1113C10.4371 33.3798 10.1171 33.1214 9.96401 33.3687C9.90731 33.4604 10.1204 33.9218 10.4375 34.394C10.853 35.0126 11.0467 35.6097 11.1302 36.5307C11.2205 37.5262 11.3645 37.9325 11.7816 38.3677C12.0762 38.675 12.3171 39.0057 12.3171 39.1027C12.3171 39.3796 11.2737 38.1295 11.0596 37.596C10.9537 37.3324 10.8671 36.8007 10.8671 36.4149C10.8671 35.658 10.4945 34.6583 10.2124 34.6583C10.1169 34.6583 10.0386 34.7869 10.0386 34.9439C10.0386 35.1011 9.79501 35.7615 9.49721 36.4118C8.96771 37.568 8.93131 38.2134 9.31881 39.5589C9.37911 39.7681 9.23761 39.5301 9.00461 39.03C8.53361 38.0189 8.58141 37.322 9.23821 35.635C9.58601 34.7413 9.59451 34.5734 9.32401 33.9264C9.15911 33.5314 8.96671 33.2086 8.89631 33.2086C8.49481 33.2086 7.98121 33.699 7.78111 34.2733C7.65451 34.6359 7.50101 34.8826 7.43991 34.8213C7.28211 34.6637 7.97371 33.0015 8.19701 33.0015C8.29851 33.0015 8.38151 32.8963 8.38151 32.7679C8.38151 32.6125 8.08661 32.574 7.50121 32.6529L6.62091 32.7716L7.24231 32.4817C7.58411 32.3222 7.98651 32.1876 8.13651 32.1824C8.29791 32.1768 8.36541 32.025 8.30181 31.8106C8.24261 31.6112 8.13481 31.1997 8.06261 30.8959C7.94281 30.3933 7.87881 30.3616 7.35311 30.5449C6.42411 30.8686 5.97111 31.5539 5.61281 33.1773C5.40321 34.1269 5.08151 34.9315 4.75781 35.316C4.14451 36.045 4.05391 35.8905 4.65031 35.1325C5.24411 34.3779 4.96611 34.1817 4.00051 34.6742C2.78901 35.2922 2.80471 35.0354 4.01871 34.3748C5.09251 33.7903 5.37071 33.3299 5.30441 32.2468C5.25391 31.4194 5.99501 30.508 7.18911 29.9289C8.39231 29.3455 7.76261 29.3743 5.99951 29.9836C4.75241 30.4144 4.49861 30.5881 4.18551 31.2252C3.70021 32.2124 3.56531 32.1658 3.92861 31.1368L4.22111 30.3073L3.45331 29.9832C3.03091 29.8049 2.21941 29.5319 1.64981 29.3764C1.08011 29.2211 0.806312 29.0877 1.04121 29.0802C1.27611 29.0728 2.20381 29.2592 3.10301 29.4946C4.34311 29.8194 4.85261 29.8705 5.21351 29.7063L5.68881 29.4897L4.65031 27.5855H5.03791Z" fill="#FF6E05"/>
<path d="M52.2227 26.99V12.75H55.1227L60.4227 20.51H59.1627L64.4427 12.75H67.3427V26.99H63.3827V19.31L63.9627 19.47L61.0627 23.63H58.5027L55.6227 19.47L56.1827 19.31V26.99H52.2227ZM69.7031 26.99V12.75H73.7031V26.99H69.7031ZM72.9431 26.99V23.67H80.5831V26.99H72.9431ZM72.9431 21.35V18.11H79.8431V21.35H72.9431ZM72.9431 16.07V12.75H80.4631V16.07H72.9431ZM82.4767 26.99V12.75H85.2767L86.4767 15.75V26.99H82.4767ZM92.2767 26.99L84.0167 16.61L85.2767 12.75L93.5367 23.13L92.2767 26.99ZM92.2767 26.99L91.2767 23.83V12.75H95.2767V26.99H92.2767ZM100.313 26.99V23.59H103.633C104.38 23.59 105.026 23.4567 105.573 23.19C106.12 22.91 106.54 22.49 106.833 21.93C107.126 21.37 107.273 20.6767 107.273 19.85C107.273 19.0234 107.12 18.3367 106.813 17.79C106.52 17.2434 106.1 16.8367 105.553 16.57C105.02 16.29 104.38 16.15 103.633 16.15H100.113V12.75H103.633C104.753 12.75 105.78 12.9167 106.713 13.25C107.66 13.5834 108.48 14.0634 109.173 14.69C109.866 15.3167 110.4 16.07 110.773 16.95C111.16 17.8167 111.353 18.79 111.353 19.87C111.353 20.95 111.16 21.93 110.773 22.81C110.4 23.6767 109.866 24.4234 109.173 25.05C108.48 25.6767 107.666 26.1567 106.733 26.49C105.8 26.8234 104.78 26.99 103.673 26.99H100.313ZM97.6327 26.99V12.75H101.633V26.99H97.6327ZM112.985 26.99V12.75H116.985V26.99H112.985ZM116.225 26.99V23.67H123.865V26.99H116.225ZM116.225 21.35V18.11H123.125V21.35H116.225ZM116.225 16.07V12.75H123.745V16.07H116.225ZM128.438 26.99V23.59H131.758C132.505 23.59 133.151 23.4567 133.698 23.19C134.245 22.91 134.665 22.49 134.958 21.93C135.251 21.37 135.398 20.6767 135.398 19.85C135.398 19.0234 135.245 18.3367 134.938 17.79C134.645 17.2434 134.225 16.8367 133.678 16.57C133.145 16.29 132.505 16.15 131.758 16.15H128.238V12.75H131.758C132.878 12.75 133.905 12.9167 134.838 13.25C135.785 13.5834 136.605 14.0634 137.298 14.69C137.991 15.3167 138.525 16.07 138.898 16.95C139.285 17.8167 139.478 18.79 139.478 19.87C139.478 20.95 139.285 21.93 138.898 22.81C138.525 23.6767 137.991 24.4234 137.298 25.05C136.605 25.6767 135.791 26.1567 134.858 26.49C133.925 26.8234 132.905 26.99 131.798 26.99H128.438ZM125.758 26.99V12.75H129.758V26.99H125.758Z" fill="white"/>
</svg>
