<svg width="127" height="37" viewBox="0 0 127 37" fill="none" xmlns="http://www.w3.org/2000/svg">
<path opacity="0.7" fill-rule="evenodd" clip-rule="evenodd" d="M70.2592 0.465043C70.2321 0.493714 69.8109 0.543431 69.323 0.575352C68.4287 0.633749 66.75 1.1591 66.5833 1.43265C66.5337 1.51393 66.4173 1.53722 66.3248 1.48434C66.2321 1.43147 66.1581 1.44451 66.1604 1.51317C66.1626 1.58198 66.0237 1.6533 65.8515 1.67174C65.6795 1.69032 65.432 1.79782 65.3017 1.91054C65.1714 2.02327 64.7692 2.28272 64.4078 2.48674C64.0465 2.69091 63.6412 2.95785 63.5072 3.08015C63.3732 3.20231 63.1912 3.26083 63.1026 3.21034C63.014 3.15985 62.9445 3.20984 62.9481 3.32148C62.9518 3.43311 62.7439 3.73031 62.4863 3.98197C61.6711 4.77808 60.5118 6.13346 60.5167 6.28467C60.5193 6.36471 60.4316 6.50916 60.3221 6.60583C60.2124 6.70252 60.0892 6.98071 60.0485 7.22401C60.005 7.48292 59.8802 7.66967 59.7477 7.67397C59.6231 7.678 59.5234 7.74908 59.5261 7.83192C59.5341 8.07852 58.8356 9.18172 58.6679 9.18715C58.5826 9.18992 58.0927 8.80904 57.5791 8.3407C57.0654 7.87235 56.6058 7.51488 56.558 7.54644C56.5101 7.578 55.9627 7.29418 55.3416 6.91564C54.7203 6.5371 54.1332 6.22989 54.0367 6.23302C53.9402 6.23615 53.7735 6.14015 53.6661 6.01975C53.5588 5.89936 53.4428 5.83069 53.4084 5.86713C53.3739 5.90357 52.8601 5.75245 52.2664 5.53119C50.5103 4.87649 47.7574 4.60798 46.1258 4.93195C44.8675 5.18175 43.9865 5.43986 43.9903 5.55725C43.9927 5.62976 43.9291 5.65162 43.8493 5.60602C43.7184 5.53133 43.1447 5.79352 42.9643 6.01031C42.9249 6.05756 42.5987 6.31292 42.2393 6.57763C41.5259 7.10304 40.5079 8.20476 40.5156 8.44309C40.5183 8.52534 40.4627 8.59455 40.3922 8.59684C40.2382 8.60183 39.8275 9.73975 39.7328 10.4232C39.6484 11.0337 39.7211 13.6412 39.8311 13.9365C39.8758 14.057 39.9627 14.2604 40.0243 14.3887C40.0857 14.5167 40.1236 14.6818 40.1086 14.7555C39.9958 15.3049 41.5932 18.3458 42.2077 18.7516C42.4471 18.9098 42.646 19.1279 42.6495 19.2362C42.653 19.3446 42.8637 19.4978 43.1177 19.5767C43.3717 19.6556 43.5463 19.7777 43.5058 19.8479C43.4407 19.9606 43.9842 20.5085 44.178 20.5254C44.2579 20.5325 45.0694 21.1709 45.6536 21.6865C45.8497 21.8593 46.0094 21.9539 46.0088 21.8967C46.0082 21.8394 46.0599 21.8686 46.1239 21.9617C46.1877 22.0547 46.3326 22.1498 46.4458 22.173C46.559 22.1961 46.8244 22.3591 47.0354 22.5353C47.2464 22.7114 47.5354 22.8517 47.6774 22.8471C47.8193 22.8425 48.0449 22.9933 48.1784 23.1822C48.3118 23.3712 48.599 23.5641 48.8167 23.611C49.0343 23.6578 49.3404 23.8057 49.4969 23.9396C49.6534 24.0736 50.2928 24.3648 50.9176 24.5869C51.5425 24.809 52.0554 25.0418 52.0574 25.1042C52.0595 25.1669 52.1599 25.2147 52.2806 25.2108C52.4014 25.2069 53.0073 25.4201 53.6272 25.6846C54.247 25.949 54.7864 26.1644 54.8257 26.1631C54.8649 26.1618 55.0878 26.2322 55.3208 26.3194C55.5538 26.4068 55.7782 26.4868 55.8194 26.4975C56.0454 26.5559 58.5281 27.7166 58.9141 27.9441C59.1642 28.0917 59.6748 28.3634 60.0488 28.5482C60.5472 28.7945 60.9466 29.1823 61.5451 30.0014C62.4781 31.2783 62.8757 32.3296 62.9845 33.807C63.0264 34.3748 63.0666 34.9098 63.074 34.9957C63.1023 35.3221 63.7273 35.7785 64.1281 35.7656C64.6692 35.748 65.0919 35.2535 65.3627 34.3213C65.482 33.9109 65.7086 33.2716 65.866 32.9007C66.0237 32.5297 66.2036 32.0915 66.2661 31.9269C66.9218 30.1976 67.2339 29.6895 68.5848 28.1539C69.2157 27.4366 69.7528 26.8248 69.7784 26.7943C69.804 26.7637 69.8388 26.616 69.8556 26.4657C69.8738 26.3026 70.03 26.1699 70.2427 26.1367C70.4387 26.1059 70.6979 26.0368 70.8189 25.9829C70.9398 25.929 71.0865 25.8777 71.1449 25.8687C71.2032 25.8599 71.3669 25.7487 71.5086 25.6219C71.6502 25.495 72.1158 25.1531 72.5431 24.8621C72.9704 24.5711 73.3981 24.2502 73.4935 24.149C73.5891 24.0477 73.8808 23.846 74.1421 23.7008C74.4034 23.5556 74.6512 23.3394 74.6927 23.2204C74.7343 23.1012 74.868 23.0007 74.9899 22.9967C75.1117 22.9928 75.3827 22.7985 75.5919 22.5649C75.8011 22.3316 76.201 21.9721 76.4805 21.7662C76.76 21.5604 77.0722 21.2701 77.1743 21.1212C77.2762 20.9723 77.4197 20.8485 77.493 20.8461C77.6631 20.8406 78.3494 20.1183 78.2621 20.0369C78.226 20.0033 78.4422 19.7462 78.7425 19.4657C79.0428 19.1851 79.272 18.9079 79.2518 18.8497C79.2317 18.7916 79.3953 18.5391 79.6157 18.2888C79.836 18.0385 80.2189 17.389 80.4665 16.8454C80.714 16.3019 80.9832 15.855 81.0646 15.8524C81.1459 15.8497 81.17 15.7837 81.1179 15.7059C81.0659 15.6279 81.1038 15.4106 81.2022 15.2228C81.3005 15.035 81.3928 14.7811 81.4072 14.6587C81.4215 14.5363 81.4535 14.2692 81.4781 14.0651C81.5027 13.8611 81.6014 13.4296 81.6974 13.1062C81.8706 12.5234 81.8696 9.80897 81.6959 8.95828C81.6464 8.71598 81.5227 8.37587 81.4209 8.20238C81.3192 8.02888 81.2092 7.76637 81.1766 7.61901C81.117 7.3494 80.8314 6.69362 80.5697 6.22523C80.4924 6.08657 80.4265 5.89861 80.4236 5.80765C80.4206 5.71683 80.2096 5.39714 79.9545 5.09749C79.6995 4.79785 79.4883 4.49575 79.4851 4.42623C79.4755 4.21561 77.3592 2.47103 76.6859 2.11887C76.3396 1.93763 76.0214 1.74838 75.9787 1.69832C75.8152 1.50584 74.8202 1.07733 74.3203 0.983848C74.0323 0.93006 73.4256 0.789041 72.9721 0.670554C72.2263 0.475802 70.3808 0.335899 70.2592 0.465043ZM72.3026 6.75817C72.5224 6.80352 72.8425 6.96241 73.014 7.11117C73.1855 7.26009 73.3838 7.3799 73.4546 7.3776C73.5256 7.3753 73.7867 7.60498 74.035 7.88814C74.2832 8.17115 74.6797 8.60738 74.916 8.85737C75.2463 9.20676 75.3334 9.4193 75.2925 9.77658C75.2632 10.0322 75.3073 10.3046 75.3904 10.382C75.7978 10.7617 75.7653 14.2502 75.3542 14.2636C75.2938 14.2655 75.1633 14.5406 75.0642 14.8749C74.9652 15.2092 74.751 15.582 74.5882 15.7033C74.4254 15.8246 74.3432 15.9223 74.4054 15.9203C74.4677 15.9183 74.453 16.0019 74.3729 16.1062C74.2929 16.2104 73.8289 16.8398 73.342 17.5048C72.8551 18.1698 72.0333 19.1721 71.5158 19.7321C70.1749 21.1831 68.2841 23.371 67.7753 24.0604C67.5365 24.384 67.2513 24.7221 67.1415 24.8117C66.8686 25.0343 64.7946 28.1987 64.6477 28.6164C64.5826 28.8015 64.4979 28.9539 64.4594 28.9551C64.421 28.9564 64.1237 28.5834 63.7991 28.1266C63.4743 27.6697 63 27.0775 62.7449 26.8107C62.229 26.271 59.6954 24.4649 58.9587 24.1115C58.6983 23.9866 58.0945 23.6504 57.6169 23.3643C57.1393 23.0781 56.5832 22.7876 56.381 22.7185C56.1788 22.6495 55.6752 22.3675 55.2617 22.0919C54.8483 21.8163 54.4732 21.5921 54.4283 21.5936C54.097 21.6043 50.9181 19.4095 49.7462 18.3607C47.8503 16.6639 47.4607 16.2942 47.4571 16.187C47.4555 16.1379 47.2811 15.9239 47.0698 15.7116C46.8585 15.499 46.6824 15.2261 46.6785 15.1049C46.6746 14.9836 46.4974 14.7101 46.2846 14.4969C46.0719 14.2839 45.9096 14.0093 45.9236 13.8869C45.9378 13.7645 45.8595 13.5137 45.7494 13.3295C45.5204 12.946 45.6076 12.2296 45.9243 11.8937C46.1642 11.6392 47.2195 11.2774 47.683 11.2907C47.854 11.2956 48.1917 11.3942 48.4335 11.5098C48.6754 11.6254 48.9735 11.7176 49.0961 11.7146C49.2186 11.7117 49.5237 11.8348 49.774 11.9883C50.0243 12.1418 50.3795 12.2628 50.5632 12.2573C50.747 12.252 50.8992 12.3028 50.9014 12.3702C50.9036 12.4377 51.0731 12.5753 51.278 12.676C51.4828 12.7767 51.6238 12.9053 51.5911 12.9618C51.5584 13.0183 51.6135 13.062 51.7138 13.0588C52.0921 13.0465 53.1964 13.8629 53.4411 14.3357C53.5813 14.6065 53.726 14.7964 53.7627 14.7575C53.7994 14.7186 54.0481 14.9244 54.3156 15.2147C54.5831 15.505 54.8528 15.7631 54.9149 15.7881C54.9771 15.8133 55.0308 15.9247 55.0344 16.0357C55.038 16.1466 55.1385 16.2876 55.2576 16.349C55.5154 16.4818 56.1488 17.2825 56.517 17.9413C56.6621 18.2007 56.8712 18.4102 56.982 18.4066C57.0932 18.403 57.1506 18.4935 57.11 18.6093C57.0699 18.7242 57.111 18.8605 57.2013 18.9121C57.2917 18.9637 57.3232 19.0795 57.2712 19.1694C57.2147 19.2669 57.2444 19.2881 57.3447 19.2219C57.4371 19.161 57.5147 19.1697 57.5171 19.2411C57.5239 19.4536 58.7618 20.1402 59.0168 20.0731C59.1461 20.0391 59.4298 20.0909 59.6475 20.1882C59.8652 20.2855 60.0837 20.322 60.1333 20.2694C60.1829 20.217 60.2257 20.2455 60.2286 20.3329C60.2316 20.4255 60.4747 20.3661 60.8115 20.1907C61.436 19.8655 61.9196 19.7826 61.7797 20.025C61.7318 20.1078 61.7635 20.1733 61.85 20.1705C61.9364 20.1677 62.0031 20.039 61.9981 19.8846C61.9926 19.7141 62.1477 19.5374 62.3924 19.4351C63.4905 18.9765 63.6514 18.4774 63.6997 15.3803C63.7105 14.6889 63.7497 14.0225 63.7867 13.8993C63.8239 13.7762 63.8873 13.4748 63.9277 13.2296C64.0812 12.2995 64.1441 12.0446 64.2583 11.8931C64.323 11.8071 64.4159 11.5165 64.4648 11.247C64.5136 10.9778 64.7096 10.592 64.9002 10.3898C65.0908 10.1876 65.2443 9.94788 65.2414 9.85706C65.2384 9.7664 65.5215 9.37171 65.8704 8.98006C66.2193 8.58842 66.6384 8.10388 66.8019 7.90317C66.9653 7.70245 67.1007 7.58986 67.1027 7.65277C67.1047 7.71582 67.2031 7.68204 67.3213 7.57798C67.4396 7.47378 67.6387 7.42372 67.7638 7.46697C67.8889 7.51007 67.9897 7.4972 67.9878 7.43843C67.9813 7.23804 69.5794 6.65411 70.4122 6.55262C70.8261 6.5021 71.3264 6.5564 72.3026 6.75817ZM50.0521 7.63886C49.9178 7.85755 49.7812 7.96397 49.7483 7.87546C49.7154 7.78695 49.7736 7.61226 49.8776 7.48724C50.1921 7.10912 50.3127 7.21401 50.0521 7.63886ZM52.602 7.99156C52.7349 8.30492 52.7287 8.34488 52.5465 8.35079C52.46 8.35359 52.4367 8.27127 52.4948 8.16769C52.5664 8.03987 52.5219 8.04707 52.3556 8.19023C52.0964 8.41356 52.0216 8.59174 52.2506 8.44064C52.3922 8.34707 52.6087 8.58646 52.6672 8.9012C52.6861 9.00229 52.6405 9.08684 52.5661 9.08925C52.4915 9.09166 52.4226 9.01082 52.4129 8.90944C52.3988 8.76208 52.3814 8.76264 52.3264 8.91224C52.2884 9.01517 52.1921 9.10137 52.1125 9.10395C52.0328 9.10653 52.0126 9.03061 52.0678 8.93511C52.1228 8.83975 52.0448 8.67806 51.8941 8.57592C51.6691 8.42312 51.6524 8.34886 51.8005 8.15944C51.8995 8.03265 52.0411 7.96347 52.1148 8.00557C52.1888 8.04767 52.2469 8.01179 52.2441 7.92585C52.2363 7.6853 52.4922 7.73229 52.602 7.99156ZM55.4806 9.02658C55.5433 8.96646 55.5494 9.00189 55.4939 9.10524C55.4385 9.20873 55.4566 9.29122 55.5344 9.2887C55.7223 9.28261 55.8955 9.70774 55.7838 9.90101C55.7284 9.99712 55.6455 9.98103 55.5612 9.85797C55.4673 9.72029 55.4281 9.7155 55.4306 9.8418C55.4327 9.94875 55.3327 9.98673 55.184 9.93553C55.0158 9.87742 54.9709 9.90459 55.0468 10.0185C55.1138 10.119 55.0693 10.1907 54.937 10.195C54.8145 10.1989 54.6641 10.127 54.6028 10.0351C54.5336 9.93162 54.5577 9.90601 54.6661 9.96798C54.7756 10.0304 54.8375 9.95977 54.8317 9.77947C54.8265 9.62088 54.704 9.44998 54.5592 9.39953C54.3126 9.31351 54.3133 9.29427 54.5698 9.09335C54.7554 8.94809 54.9277 8.92048 55.105 9.00756C55.2487 9.07815 55.4177 9.08671 55.4806 9.02658ZM51.4749 9.42025C51.528 9.49983 51.5006 9.56724 51.4141 9.57004C51.3277 9.57284 51.2547 9.50868 51.2521 9.42747C51.2494 9.34625 51.2767 9.27885 51.3128 9.27768C51.3489 9.27651 51.4217 9.34067 51.4749 9.42025ZM56.4665 10.4972C56.5006 10.649 56.4403 10.8329 56.3323 10.9059C56.0864 11.0721 55.7752 11.098 55.9842 10.9349C56.2001 10.7662 56.1764 10.3519 55.9514 10.3591C55.8438 10.3626 55.8015 10.4361 55.8572 10.5224C55.9129 10.6087 55.8426 10.5916 55.7008 10.4848C55.3342 10.2083 55.3736 10.1558 55.9217 10.1907C56.2539 10.2117 56.424 10.3075 56.4665 10.4972ZM54.2055 10.5789C54.2543 10.6941 54.3812 10.7519 54.4874 10.7076C54.7838 10.5832 54.9248 10.9235 54.735 11.3054C54.5736 11.6301 54.5416 11.6371 54.1115 11.4408C53.7696 11.2848 53.7065 11.2011 53.8553 11.1005C54.0162 10.9917 54.0115 10.9663 53.8293 10.9618C53.679 10.9581 53.7017 10.9119 53.899 10.8199C54.0601 10.7448 54.1083 10.6814 54.0059 10.679C53.7836 10.6737 53.743 10.3815 53.9635 10.3743C54.0479 10.3716 54.1567 10.4637 54.2055 10.5789ZM55.0363 10.6673C54.9333 10.7766 54.8643 10.7876 54.8613 10.6951C54.8549 10.498 55.025 10.3176 55.1272 10.4131C55.1708 10.4536 55.1299 10.568 55.0363 10.6673ZM57.5575 11.312C57.5598 11.3839 57.4297 11.3667 57.2685 11.2736C57.1072 11.1807 57.0084 11.047 57.0491 10.9766C57.132 10.8331 57.5509 11.1092 57.5575 11.312ZM55.4824 11.5077C55.485 11.5889 55.4577 11.6563 55.4216 11.6575C55.3856 11.6586 55.3127 11.5945 55.2596 11.5149C55.2065 11.4353 55.2339 11.3679 55.3203 11.3651C55.4067 11.3623 55.4797 11.4265 55.4824 11.5077ZM56.5021 11.6717C56.5329 11.8062 56.4673 11.9192 56.3563 11.9228C56.2452 11.9264 56.1502 11.7957 56.1449 11.6323C56.1336 11.2835 56.4205 11.315 56.5021 11.6717ZM56.1922 12.1939C56.1541 12.26 56.1935 12.4084 56.2798 12.5237C56.3991 12.6828 56.4534 12.6883 56.506 12.5462C56.6134 12.2568 56.7829 12.3189 56.7937 12.6514C56.7994 12.8279 56.7275 12.9241 56.6179 12.8864C56.5045 12.8472 56.467 12.9046 56.5217 13.0336C56.5709 13.1499 56.5372 13.2473 56.4468 13.2503C56.3563 13.2532 56.2792 13.158 56.2753 13.0387C56.2711 12.907 56.1822 12.8579 56.0492 12.9137C55.9286 12.9643 55.8658 13.0593 55.9097 13.1252C55.9536 13.1909 55.9229 13.2885 55.8415 13.3423C55.7602 13.3959 55.6914 13.3695 55.6886 13.2836C55.6858 13.1976 55.5833 13.1304 55.4607 13.1344C55.3382 13.1384 55.2358 13.0752 55.2332 12.9939C55.2305 12.9127 55.2992 12.844 55.3857 12.8412C55.4721 12.8384 55.503 12.7762 55.4542 12.7031C55.3392 12.5308 55.7546 12.0901 56.0406 12.0809C56.1623 12.0769 56.2304 12.1278 56.1922 12.1939ZM57.7792 12.1203C57.8833 12.2173 57.348 12.7776 57.1452 12.7842C56.9404 12.7908 56.8695 12.5646 57.0058 12.3381C57.1205 12.1476 57.1575 12.1474 57.2911 12.336C57.429 12.5309 57.5093 12.437 57.4534 12.1459C57.4274 12.0106 57.6433 11.9937 57.7792 12.1203ZM57.54 13.067C57.5931 13.1466 57.5657 13.214 57.4793 13.2168C57.3928 13.2196 57.3198 13.1554 57.3172 13.0742C57.3146 12.993 57.3418 12.9256 57.3779 12.9244C57.414 12.9233 57.4869 12.9874 57.54 13.067ZM56.9972 13.6173C56.9495 13.668 56.8215 13.6774 56.713 13.6382C56.593 13.595 56.627 13.5588 56.7998 13.5461C56.9561 13.5347 57.0449 13.5667 56.9972 13.6173ZM57.3603 14.4032C57.3629 14.4844 57.2982 14.553 57.2165 14.5557C57.1349 14.5583 57.0659 14.4941 57.0632 14.4128C57.0606 14.3316 57.1253 14.263 57.207 14.2604C57.2887 14.2577 57.3577 14.322 57.3603 14.4032ZM60.4239 19.4776C60.376 19.5605 60.27 19.6304 60.1884 19.6331C60.1067 19.6357 60.079 19.5701 60.1268 19.4872C60.1747 19.4044 60.2807 19.3344 60.3623 19.3318C60.444 19.3291 60.4717 19.3948 60.4239 19.4776Z" fill="url(#paint0_linear_4_3752)"/>
<path d="M6.35227 19.0251L6.05525 20.7314H1.53037L1.82739 19.0251H6.35227ZM3.90656 11.53L2.30769 20.7314H0.146362L1.73892 11.53H3.90656ZM15.0638 15.9095L15.0196 16.2824C14.9353 16.8849 14.7731 17.4642 14.533 18.0203C14.297 18.5722 13.9853 19.0631 13.5976 19.4928C13.2143 19.9225 12.7592 20.2617 12.2326 20.5103C11.706 20.7546 11.114 20.8705 10.4568 20.8578C9.8248 20.8452 9.28553 20.7104 8.83894 20.4534C8.39656 20.1964 8.04266 19.853 7.77723 19.4233C7.51602 18.9935 7.33907 18.5111 7.24638 17.9761C7.15369 17.441 7.14105 16.8891 7.20846 16.3203L7.2527 15.9475C7.33696 15.3492 7.49917 14.7762 7.73931 14.2285C7.97946 13.6766 8.29334 13.1858 8.68094 12.756C9.06855 12.3263 9.52567 11.9913 10.0523 11.7512C10.579 11.5068 11.1688 11.391 11.8218 11.4036C12.4496 11.412 12.9846 11.5448 13.427 11.8018C13.8694 12.0588 14.2212 12.4021 14.4824 12.8319C14.7478 13.2574 14.9269 13.7377 15.0196 14.2727C15.1165 14.8036 15.1312 15.3492 15.0638 15.9095ZM12.8203 16.3203L12.8709 15.9285C12.9004 15.6799 12.9193 15.3998 12.9278 15.088C12.9362 14.7762 12.9088 14.475 12.8456 14.1843C12.7824 13.8894 12.6602 13.645 12.4791 13.4512C12.3021 13.2574 12.0409 13.1521 11.6954 13.1352C11.312 13.1184 10.9876 13.1963 10.7222 13.369C10.4568 13.5376 10.2377 13.7651 10.065 14.0516C9.89643 14.3338 9.76371 14.6414 9.66681 14.9742C9.56991 15.3071 9.50039 15.6273 9.45826 15.9348L9.40771 16.3266C9.37821 16.5752 9.35715 16.8575 9.34451 17.1735C9.33608 17.4852 9.36136 17.7886 9.42035 18.0835C9.48354 18.3784 9.60572 18.6249 9.78689 18.8229C9.96805 19.0167 10.2335 19.1199 10.5832 19.1326C10.9581 19.1494 11.2783 19.0715 11.5438 18.8987C11.8092 18.7218 12.0283 18.4901 12.201 18.2036C12.3779 17.9171 12.5149 17.6074 12.6118 17.2746C12.7129 16.9418 12.7824 16.6237 12.8203 16.3203ZM19.1367 18.4753L22.0564 11.53H24.54L20.0847 20.7314H18.4731L19.1367 18.4753ZM18.5237 11.53L19.2947 18.6712L19.2694 20.7314H17.7274L16.1728 11.53H18.5237ZM30.2308 19.0251L29.9337 20.7314H25.1624L25.4594 19.0251H30.2308ZM27.5386 11.53L25.9397 20.7314H23.7784L25.3709 11.53H27.5386ZM30.2813 15.1828L29.9969 16.8322H25.8386L26.1293 15.1828H30.2813ZM31.5452 11.53L31.2482 13.2426H26.4579L26.7613 11.53H31.5452ZM39.8301 17.6222L41.9472 17.5969C41.8882 18.2963 41.6628 18.8924 41.271 19.3854C40.8834 19.8741 40.3925 20.2448 39.7985 20.4976C39.2086 20.7504 38.5788 20.8705 37.9089 20.8578C37.2727 20.8452 36.7376 20.7146 36.3037 20.466C35.8697 20.2132 35.5285 19.8762 35.2799 19.4549C35.0313 19.0293 34.867 18.5533 34.787 18.0266C34.7069 17.4958 34.7027 16.9481 34.7743 16.3835L34.8439 15.8843C34.9281 15.2986 35.084 14.7362 35.3115 14.1969C35.539 13.6534 35.836 13.1689 36.2026 12.7434C36.5733 12.3179 37.0136 11.985 37.5234 11.7449C38.0332 11.5005 38.6104 11.3847 39.255 11.3973C39.9417 11.4099 40.5252 11.5532 41.0055 11.827C41.49 12.1009 41.865 12.4843 42.1304 12.9772C42.4001 13.4701 42.5517 14.0516 42.5854 14.7214L40.4304 14.7151C40.4431 14.3907 40.4115 14.1126 40.3356 13.8809C40.2598 13.6492 40.125 13.4701 39.9312 13.3438C39.7416 13.2131 39.4741 13.1415 39.1286 13.1289C38.7536 13.1162 38.4397 13.1942 38.187 13.3627C37.9384 13.527 37.7362 13.7482 37.5803 14.0263C37.4244 14.3043 37.3043 14.6056 37.2201 14.93C37.14 15.2544 37.0789 15.5683 37.0368 15.8716L36.9736 16.3898C36.9441 16.6384 36.9167 16.9186 36.8914 17.2304C36.8661 17.5379 36.8767 17.8349 36.923 18.1214C36.9694 18.4037 37.0768 18.6396 37.2453 18.8292C37.4139 19.0188 37.6772 19.1199 38.0353 19.1326C38.3723 19.141 38.6651 19.0883 38.9137 18.9746C39.1623 18.8566 39.3624 18.6839 39.5141 18.4564C39.67 18.2246 39.7753 17.9466 39.8301 17.6222ZM51.0126 15.9095L50.9684 16.2824C50.8841 16.8849 50.7219 17.4642 50.4817 18.0203C50.2458 18.5722 49.934 19.0631 49.5464 19.4928C49.163 19.9225 48.708 20.2617 48.1814 20.5103C47.6547 20.7546 47.0628 20.8705 46.4056 20.8578C45.7736 20.8452 45.2343 20.7104 44.7877 20.4534C44.3453 20.1964 43.9914 19.853 43.726 19.4233C43.4648 18.9935 43.2879 18.5111 43.1952 17.9761C43.1025 17.441 43.0898 16.8891 43.1572 16.3203L43.2015 15.9475C43.2857 15.3492 43.448 14.7762 43.6881 14.2285C43.9282 13.6766 44.2421 13.1858 44.6297 12.756C45.0173 12.3263 45.4745 11.9913 46.0011 11.7512C46.5277 11.5068 47.1176 11.391 47.7706 11.4036C48.3984 11.412 48.9334 11.5448 49.3758 11.8018C49.8182 12.0588 50.17 12.4021 50.4312 12.8319C50.6966 13.2574 50.8757 13.7377 50.9684 14.2727C51.0653 14.8036 51.08 15.3492 51.0126 15.9095ZM48.7691 16.3203L48.8197 15.9285C48.8492 15.6799 48.8681 15.3998 48.8765 15.088C48.885 14.7762 48.8576 14.475 48.7944 14.1843C48.7312 13.8894 48.609 13.645 48.4279 13.4512C48.2509 13.2574 47.9897 13.1521 47.6442 13.1352C47.2608 13.1184 46.9364 13.1963 46.671 13.369C46.4056 13.5376 46.1865 13.7651 46.0137 14.0516C45.8452 14.3338 45.7125 14.6414 45.6156 14.9742C45.5187 15.3071 45.4492 15.6273 45.4071 15.9348L45.3565 16.3266C45.327 16.5752 45.3059 16.8575 45.2933 17.1735C45.2849 17.4852 45.3101 17.7886 45.3691 18.0835C45.4323 18.3784 45.5545 18.6249 45.7357 18.8229C45.9168 19.0167 46.1823 19.1199 46.532 19.1326C46.9069 19.1494 47.2271 19.0715 47.4925 18.8987C47.758 18.7218 47.977 18.4901 48.1498 18.2036C48.3267 17.9171 48.4637 17.6074 48.5606 17.2746C48.6617 16.9418 48.7312 16.6237 48.7691 16.3203ZM60.4951 11.53L58.8962 20.7314H56.7981L54.6052 14.9237L53.594 20.7314H51.4327L53.0253 11.53H55.136L57.329 17.3378L58.3338 11.53H60.4951ZM65.5413 19.2147L67.7595 21.3255L66.3186 22.4125L64.1446 20.3017L65.5413 19.2147ZM68.7832 15.9095L68.7327 16.2824C68.6526 16.8849 68.4925 17.4642 68.2524 18.0203C68.0165 18.5722 67.7047 19.0631 67.3171 19.4928C66.9295 19.9225 66.4723 20.2617 65.9457 20.5103C65.4191 20.7546 64.8271 20.8705 64.1699 20.8578C63.5379 20.8452 62.9986 20.7104 62.552 20.4534C62.1097 20.1964 61.7558 19.853 61.4903 19.4233C61.2291 18.9935 61.0522 18.5111 60.9595 17.9761C60.8668 17.441 60.8542 16.8891 60.9216 16.3203L60.9658 15.9475C61.0501 15.3492 61.2123 14.7762 61.4524 14.2285C61.6926 13.6766 62.0065 13.1858 62.3941 12.756C62.7817 12.3263 63.2388 11.9913 63.7654 11.7512C64.2921 11.5068 64.8819 11.391 65.5349 11.4036C66.1627 11.412 66.6977 11.5448 67.1401 11.8018C67.5825 12.0588 67.9364 12.4021 68.2018 12.8319C68.4673 13.2574 68.6463 13.7377 68.739 14.2727C68.8359 14.8036 68.8506 15.3492 68.7832 15.9095ZM66.5334 16.3203L66.584 15.9285C66.6135 15.6799 66.6324 15.3998 66.6409 15.088C66.6493 14.7762 66.6219 14.475 66.5587 14.1843C66.4955 13.8894 66.3733 13.645 66.1922 13.4512C66.0152 13.2574 65.754 13.1521 65.4085 13.1352C65.0251 13.1184 64.7007 13.1963 64.4353 13.369C64.1699 13.5376 63.9508 13.7651 63.7781 14.0516C63.6095 14.3338 63.4768 14.6414 63.3799 14.9742C63.283 15.3071 63.2135 15.6273 63.1714 15.9348L63.1208 16.3266C63.0913 16.5752 63.0703 16.8575 63.0576 17.1735C63.0492 17.4852 63.0745 17.7886 63.1335 18.0835C63.1967 18.3784 63.3188 18.6249 63.5 18.8229C63.6812 19.0167 63.9466 19.1199 64.2963 19.1326C64.6712 19.1494 64.9914 19.0715 65.2569 18.8987C65.5223 18.7218 65.7414 18.4901 65.9141 18.2036C66.0911 17.9171 66.228 17.6074 66.3249 17.2746C66.4218 16.9418 66.4913 16.6237 66.5334 16.3203ZM75.6241 11.53H77.7855L76.7617 17.5337C76.6606 18.2373 76.431 18.8398 76.0728 19.3411C75.7189 19.8425 75.2618 20.2238 74.7015 20.485C74.1411 20.7462 73.5071 20.8726 72.7993 20.8642C72.142 20.8515 71.5669 20.7104 71.074 20.4407C70.5853 20.1711 70.2187 19.7898 69.9744 19.2969C69.73 18.8039 69.6479 18.2183 69.7279 17.54L70.7517 11.53H72.9193L71.9019 17.5463C71.8682 17.8244 71.8703 18.0835 71.9082 18.3237C71.9503 18.5638 72.0514 18.7597 72.2115 18.9114C72.3716 19.0631 72.6118 19.1431 72.932 19.1515C73.2732 19.1642 73.5576 19.101 73.7851 18.9619C74.0168 18.8229 74.198 18.6291 74.3286 18.3805C74.4634 18.132 74.554 17.8518 74.6004 17.54L75.6241 11.53ZM84.1082 19.0251L83.8112 20.7314H79.0398L79.3368 19.0251H84.1082ZM81.416 11.53L79.8171 20.7314H77.6558L79.2484 11.53H81.416ZM84.1587 15.1828L83.8744 16.8322H79.716L80.0067 15.1828H84.1587ZM85.4227 11.53L85.1256 13.2426H80.3353L80.6387 11.53H85.4227ZM86.4052 11.53L89.8115 11.5363C90.3719 11.5448 90.888 11.6459 91.3599 11.8397C91.8317 12.0335 92.2025 12.3305 92.4721 12.7307C92.7418 13.1268 92.8555 13.6345 92.8134 14.2538C92.7755 14.7636 92.6617 15.1933 92.4721 15.543C92.2825 15.8885 92.0255 16.1834 91.7011 16.4278C91.3767 16.6721 90.9954 16.8891 90.5573 17.0787L89.7736 17.4831H86.7149L87.0056 15.7705L89.0848 15.7831C89.3629 15.7789 89.6093 15.7242 89.8242 15.6188C90.0433 15.5135 90.2223 15.3639 90.3614 15.1701C90.5004 14.9763 90.5889 14.7404 90.6268 14.4623C90.6605 14.2348 90.6521 14.0326 90.6015 13.8556C90.5509 13.6745 90.454 13.5312 90.3108 13.4259C90.1676 13.3206 89.978 13.2616 89.742 13.249L88.2759 13.2426L86.974 20.7314H84.8127L86.4052 11.53ZM89.7483 20.7314L88.4781 16.6616L90.671 16.6489L92.055 20.624V20.7314H89.7483ZM98.1629 18.2415C98.2008 18.0435 98.186 17.875 98.1186 17.7359C98.0554 17.5969 97.9585 17.4789 97.8279 17.382C97.7015 17.2851 97.5562 17.203 97.3919 17.1356C97.2318 17.0639 97.0759 16.9986 96.9242 16.9396C96.5956 16.809 96.2712 16.6616 95.951 16.4973C95.6308 16.3287 95.3401 16.1307 95.0789 15.9032C94.8177 15.6757 94.6133 15.4103 94.4659 15.1069C94.3226 14.8036 94.2615 14.4476 94.2826 14.0389C94.3121 13.5713 94.4448 13.1689 94.6807 12.8319C94.9167 12.4948 95.2179 12.221 95.5844 12.0103C95.9552 11.7954 96.3533 11.6396 96.7789 11.5427C97.2086 11.4415 97.6278 11.3952 98.0365 11.4036C98.6179 11.412 99.1361 11.53 99.5911 11.7575C100.05 11.985 100.411 12.3115 100.672 12.7371C100.933 13.1584 101.059 13.6682 101.051 14.2664H98.9086C98.917 14.0305 98.8854 13.8262 98.8138 13.6534C98.7464 13.4765 98.6347 13.3395 98.4788 13.2426C98.323 13.1415 98.1207 13.0889 97.8722 13.0846C97.6657 13.0804 97.4593 13.1141 97.2528 13.1858C97.0464 13.2532 96.8673 13.3585 96.7157 13.5017C96.564 13.645 96.4671 13.8304 96.425 14.0579C96.3955 14.2306 96.4228 14.3823 96.5071 14.5129C96.5914 14.6393 96.7072 14.7488 96.8547 14.8415C97.0022 14.93 97.1559 15.0058 97.316 15.069C97.4803 15.1322 97.6236 15.187 97.7458 15.2333C98.0912 15.3639 98.422 15.5177 98.738 15.6947C99.0581 15.8674 99.3404 16.0717 99.5848 16.3077C99.8334 16.5436 100.023 16.8196 100.154 17.1356C100.288 17.4473 100.343 17.8097 100.318 18.2225C100.284 18.6986 100.158 19.1052 99.9387 19.4422C99.7196 19.7793 99.4373 20.0531 99.0919 20.2638C98.7464 20.4744 98.3672 20.6282 97.9543 20.7251C97.5414 20.822 97.1222 20.8684 96.6967 20.8642C96.2206 20.8557 95.7761 20.7841 95.3633 20.6493C94.9504 20.5103 94.5901 20.3101 94.2826 20.0489C93.975 19.7835 93.737 19.4591 93.5685 19.0757C93.3999 18.6881 93.3199 18.2436 93.3283 17.7422L95.496 17.7486C95.4833 17.9845 95.4981 18.193 95.5402 18.3742C95.5865 18.5512 95.6624 18.7007 95.7677 18.8229C95.8772 18.9409 96.0184 19.0315 96.1911 19.0947C96.3639 19.1536 96.5724 19.1831 96.8168 19.1831C97.0232 19.1831 97.2212 19.1515 97.4108 19.0883C97.6046 19.0209 97.7689 18.9177 97.9038 18.7787C98.0386 18.6396 98.1249 18.4606 98.1629 18.2415ZM109.487 13.5713L106.1 20.7314H103.705L108.584 11.53H110.113L109.487 13.5713ZM110.069 20.7314L109.134 13.3501L109.184 11.53H110.625L112.325 20.7314H110.069ZM110.562 17.2999L110.258 19.0125H105.664L105.967 17.2999H110.562ZM119.343 19.0251L119.046 20.7314H114.521L114.818 19.0251H119.343ZM116.897 11.53L115.298 20.7314H113.137L114.729 11.53H116.897ZM126.285 19.0251L125.988 20.7314H121.463L121.76 19.0251H126.285ZM123.839 11.53L122.24 20.7314H120.079L121.672 11.53H123.839Z" fill="white"/>
<defs>
<linearGradient id="paint0_linear_4_3752" x1="60.6816" y1="30.5273" x2="54.2079" y2="-2.98371" gradientUnits="userSpaceOnUse">
<stop stop-color="#F73C8B"/>
<stop offset="1" stop-color="#F73C8B" stop-opacity="0"/>
</linearGradient>
</defs>
</svg>
