<svg width="463" height="150" viewBox="0 0 463 150" fill="none" xmlns="http://www.w3.org/2000/svg">
<path d="M73.28 142.179C72.8 142.179 71.9 141.999 70.58 141.639C69.26 141.399 68.54 141.159 68.42 140.919C68.18 140.799 68 140.619 67.88 140.379C67.64 139.899 67.52 139.539 67.52 139.299V138.399V138.219C67.52 137.979 67.64 137.379 67.88 136.419C68 135.939 68.18 135.519 68.42 135.159C68.54 134.919 68.84 134.439 69.32 133.719C69.92 133.119 70.52 132.459 71.12 131.739C71.84 131.139 72.5 130.479 73.1 129.759C73.7 129.159 74.12 128.739 74.36 128.499V125.439C74 124.599 73.4 123.219 72.56 121.299C71.72 119.499 70.82 117.399 69.86 114.999C68.9 112.599 67.88 110.079 66.8 107.439C65.84 104.919 64.88 102.459 63.92 100.059C62.96 97.6588 62.12 95.5588 61.4 93.7588C60.68 91.8388 60.14 90.4588 59.78 89.6188C59.42 88.6588 58.76 87.0988 57.8 84.9388C56.96 82.6588 56.06 80.2588 55.1 77.7388C54.26 75.2188 53.42 72.8788 52.58 70.7188C51.74 68.5588 51.14 66.9988 50.78 66.0388V69.6388V72.8788C50.78 73.4788 50.84 74.3188 50.96 75.3988C51.08 76.3588 51.14 77.4388 51.14 78.6388C51.26 79.7188 51.38 80.7988 51.5 81.8788C51.62 82.8388 51.68 83.4988 51.68 83.8588C51.8 84.0988 51.98 84.6988 52.22 85.6588C52.46 86.4988 52.7 87.4588 52.94 88.5388C53.18 89.6188 53.36 90.6388 53.48 91.5988C53.72 92.5588 53.84 93.2188 53.84 93.5788V96.0988V98.4388C53.84 98.6788 53.54 99.4588 52.94 100.779C52.34 102.099 51.92 102.939 51.68 103.299C51.68 103.539 51.5 104.319 51.14 105.639C50.9 106.959 50.78 107.799 50.78 108.159L50.06 109.059C49.82 108.819 49.46 108.459 48.98 107.979C48.62 107.499 48.32 107.139 48.08 106.899H47.36H46.82L45.2 118.779C44.96 118.539 44.72 118.179 44.48 117.699C44.24 117.219 44.12 116.859 44.12 116.619C44.12 116.019 43.94 114.759 43.58 112.839C43.34 110.919 43.22 109.659 43.22 109.059C42.98 109.059 42.62 108.879 42.14 108.519C41.66 108.279 41.3 108.159 41.06 108.159C40.94 107.919 40.64 107.559 40.16 107.079C39.68 106.599 39.38 106.239 39.26 105.999C39.14 105.639 38.9 104.979 38.54 104.019C38.3 102.939 38 101.799 37.64 100.599C37.4 99.3988 37.1 98.3188 36.74 97.3588C36.5 96.2788 36.32 95.5588 36.2 95.1988C36.08 94.9588 35.78 94.2388 35.3 93.0388C34.82 91.8388 34.52 90.9388 34.4 90.3388C34.4 90.0988 34.1 89.4988 33.5 88.5388C32.9 87.4588 32.48 86.7988 32.24 86.5588C32.12 86.3188 31.88 85.8988 31.52 85.2988C31.16 84.5788 30.8 83.8588 30.44 83.1388C30.08 82.4188 29.72 81.7588 29.36 81.1588C29 80.5588 28.76 80.1388 28.64 79.8988C28.28 79.4188 27.68 78.5788 26.84 77.3788C26.12 76.0588 25.34 74.7388 24.5 73.4188C23.66 71.9788 22.82 70.6588 21.98 69.4588C21.26 68.2588 20.78 67.4788 20.54 67.1188L19.28 68.0188V95.1988C18.8 95.7988 18.14 96.9388 17.3 98.6188C16.46 100.299 15.92 101.439 15.68 102.039C15.68 102.399 15.62 103.179 15.5 104.379C15.5 105.459 15.44 106.659 15.32 107.979C15.2 109.299 15.08 110.499 14.96 111.579C14.96 112.779 14.96 113.559 14.96 113.919C14.96 114.279 14.78 114.939 14.42 115.899C14.18 116.859 14.06 117.519 14.06 117.879C13.82 117.639 13.52 117.279 13.16 116.799C12.92 116.319 12.8 115.959 12.8 115.719C12.8 115.359 12.74 114.699 12.62 113.739C12.5 112.779 12.38 111.759 12.26 110.679C12.26 109.719 12.2 108.759 12.08 107.799C11.96 106.959 11.9 106.359 11.9 105.999H11.72H10.82C10.46 106.239 10.04 106.419 9.56 106.539C8.6 106.779 8.06 106.899 7.94 106.899H6.32H5.24C5 106.899 4.64 106.599 4.16 105.999C3.68 105.519 3.32 105.159 3.08 104.919C3.2 103.599 3.38 101.199 3.62 97.7188C3.86 94.2388 4.1 90.5188 4.34 86.5588C4.58 82.5988 4.76 78.8788 4.88 75.3988C5.12 71.9188 5.24 69.4588 5.24 68.0188V57.9388V47.6788C5.24 47.5588 5.18 47.1988 5.06 46.5988C4.94 45.8788 4.82 45.1588 4.7 44.4388C4.7 43.7188 4.64 43.0588 4.52 42.4588C4.4 41.7388 4.34 41.2588 4.34 41.0188C4.1 40.5388 3.86 39.8188 3.62 38.8588C3.5 37.7788 3.32 37.1188 3.08 36.8788C2.96 36.7588 2.72 36.3388 2.36 35.6188C2.12 34.7788 1.88 33.9388 1.64 33.0988C1.28 32.1388 0.98 31.2988 0.74 30.5788C0.5 29.8588 0.38 29.3788 0.38 29.1388V28.2388V27.1588C0.5 26.7988 0.8 26.0788 1.28 24.9988C1.76 23.9188 2.06 23.3788 2.18 23.3788C2.3 23.2588 2.6 22.9588 3.08 22.4788C3.56 21.9988 4.04 21.5188 4.52 21.0388C5.12 20.4388 5.6 19.8988 5.96 19.4188C6.44 18.9388 6.8 18.5788 7.04 18.3388C7.28 18.3388 7.88 18.0988 8.84 17.6188C9.92 17.0188 10.58 16.7188 10.82 16.7188C11.06 16.7188 11.3 16.6588 11.54 16.5388C11.9 16.2988 12.2 16.1788 12.44 16.1788C12.68 16.1788 12.92 16.2988 13.16 16.5388C13.52 16.6588 13.82 16.7188 14.06 16.7188C14.18 16.7188 14.3 16.7788 14.42 16.8988C14.78 17.2588 14.96 17.4388 14.96 17.4388C14.96 17.6788 15.2 18.2788 15.68 19.2388C16.16 20.1988 16.64 21.2788 17.12 22.4788C17.72 23.5588 18.26 24.5788 18.74 25.5388C19.34 26.4988 19.7 27.0388 19.82 27.1588C20.06 27.6388 20.54 28.5988 21.26 30.0388C21.98 31.3588 22.76 32.7988 23.6 34.3588C24.44 35.9188 25.22 37.4188 25.94 38.8588C26.66 40.1788 27.14 41.1388 27.38 41.7388C27.5 41.9788 27.74 42.4588 28.1 43.1788C28.46 43.7788 28.82 44.4388 29.18 45.1588C29.66 45.8788 30.08 46.5988 30.44 47.3188C30.8 47.9188 31.1 48.3388 31.34 48.5788C31.82 49.1788 32.42 50.0788 33.14 51.2788C33.98 52.4788 34.4 53.1988 34.4 53.4388C34.4 53.6788 34.52 53.8588 34.76 53.9788C35 54.0988 35.24 54.1588 35.48 54.1588C35.48 54.0388 35.48 53.6188 35.48 52.8988C35.6 52.1788 35.66 51.3988 35.66 50.5588C35.78 49.7188 35.9 48.9388 36.02 48.2188C36.14 47.3788 36.2 46.8388 36.2 46.5988C36.32 46.1188 36.56 44.9188 36.92 42.9988C37.28 41.0788 37.64 39.0388 38 36.8788C38.36 34.7188 38.66 32.6788 38.9 30.7588C39.14 28.8388 39.26 27.6388 39.26 27.1588C39.26 26.7988 39.32 26.0188 39.44 24.8188C39.56 23.6188 39.62 22.2988 39.62 20.8588C39.74 19.4188 39.86 18.0988 39.98 16.8988C40.1 15.6988 40.22 14.9188 40.34 14.5588C40.34 14.3188 40.4 13.7188 40.52 12.7588C40.76 11.6788 40.94 10.8988 41.06 10.4188C41.06 10.2988 41.18 9.99878 41.42 9.51878C41.78 9.03878 41.96 8.73878 41.96 8.61878C42.32 8.25878 42.8 7.71878 43.4 6.99878C44.12 6.27877 44.84 5.55877 45.56 4.83877C46.28 4.11877 46.94 3.51878 47.54 3.03877C48.26 2.43878 48.74 2.13878 48.98 2.13878C49.1 1.89877 49.52 1.59877 50.24 1.23878C50.96 0.878774 51.44 0.698772 51.68 0.698772H52.94H53.84C53.96 0.698772 54.08 0.878774 54.2 1.23878C54.44 1.59877 54.68 1.89877 54.92 2.13878C54.92 2.25877 55.04 2.67877 55.28 3.39877C55.52 4.11877 55.64 4.59878 55.64 4.83877V19.4188C55.64 19.6588 55.76 20.3788 56 21.5788C56.36 22.7788 56.54 23.6788 56.54 24.2788C56.66 24.6388 56.84 25.1788 57.08 25.8988C57.32 26.6188 57.56 27.3988 57.8 28.2388C58.04 28.9588 58.22 29.6788 58.34 30.3988C58.58 31.1188 58.7 31.6588 58.7 32.0188C58.82 32.8588 59.12 34.1188 59.6 35.7988C60.2 37.3588 60.5 38.3788 60.5 38.8588C60.86 39.6988 61.4 41.2588 62.12 43.5388C62.84 45.6988 63.62 48.0388 64.46 50.5588C65.3 53.0788 66.08 55.4788 66.8 57.7588C67.52 59.9188 68.06 61.4188 68.42 62.2588C68.54 62.6188 68.78 63.3388 69.14 64.4188C69.62 65.4988 70.04 66.6388 70.4 67.8388C70.88 68.9188 71.3 69.9988 71.66 71.0788C72.02 72.0388 72.26 72.6388 72.38 72.8788C72.74 73.7188 73.4 75.4588 74.36 78.0988C75.44 80.7388 76.64 83.8588 77.96 87.4588C79.4 90.9388 80.9 94.6588 82.46 98.6188C84.02 102.459 85.46 106.059 86.78 109.419C88.22 112.899 89.48 115.899 90.56 118.419C91.64 121.059 92.36 122.799 92.72 123.639C92.72 123.879 92.78 124.119 92.9 124.359C93.02 124.719 93.14 125.019 93.26 125.259C93.38 125.619 93.56 125.979 93.8 126.339V127.599V128.499C93.8 128.619 93.62 129.039 93.26 129.759C93.02 130.479 92.84 130.959 92.72 131.199C92.72 131.439 92.54 131.799 92.18 132.279C91.94 132.759 91.82 133.119 91.82 133.359C91.58 133.479 91.22 133.959 90.74 134.799C90.26 135.639 89.9 136.059 89.66 136.059C89.66 136.299 89.54 136.659 89.3 137.139C89.06 137.619 88.94 137.979 88.94 138.219C88.7 138.339 88.46 138.759 88.22 139.479C88.1 140.199 87.98 140.679 87.86 140.919L86.96 139.299L84.62 140.019V149.019L83 149.739L82.1 149.019C81.86 148.419 81.68 147.219 81.56 145.419C81.44 143.739 81.38 142.659 81.38 142.179H73.28ZM124.867 111.399C124.867 111.879 124.687 112.959 124.327 114.639C124.087 116.439 123.847 117.639 123.607 118.239L122.707 119.859L121.087 118.959V107.439C120.847 107.319 120.307 107.139 119.467 106.899C118.747 106.779 117.967 106.599 117.127 106.359C116.287 106.119 115.447 105.939 114.607 105.819C113.887 105.579 113.347 105.399 112.987 105.279C112.747 105.279 112.327 105.219 111.727 105.099C111.247 104.859 110.707 104.619 110.107 104.379C109.507 104.139 108.907 103.959 108.307 103.839C107.707 103.599 107.287 103.419 107.047 103.299C106.807 103.299 106.207 103.119 105.247 102.759C104.407 102.279 103.747 101.919 103.267 101.679C103.147 101.439 102.727 101.079 102.007 100.599C101.287 100.119 100.807 99.7588 100.567 99.5188C100.207 99.1588 99.4869 98.6188 98.4069 97.8988C97.3269 97.1788 96.7269 96.8188 96.6069 96.8188C96.3669 96.4588 95.7069 95.7388 94.6269 94.6588C93.6669 93.5788 92.9469 92.9788 92.4669 92.8588C92.4669 92.6188 92.0469 92.0188 91.2069 91.0588C90.4869 90.0988 89.9469 89.3188 89.5869 88.7188C89.3469 88.4788 88.9869 87.9988 88.5069 87.2788C88.1469 86.5588 87.8469 86.0788 87.6069 85.8388C87.4869 85.5988 87.2469 85.2388 86.8869 84.7588C86.6469 84.1588 86.4069 83.5588 86.1669 82.9588C85.9269 82.2388 85.6269 81.6388 85.2669 81.1588C85.0269 80.5588 84.8469 80.1988 84.7269 80.0788C84.4869 79.7188 84.1269 78.8188 83.6469 77.3788C83.2869 75.8188 82.9869 74.7388 82.7469 74.1388C82.7469 73.7788 82.6269 72.8788 82.3869 71.4388C82.1469 69.8788 82.0269 68.9188 82.0269 68.5588V63.6988V58.8388C82.0269 58.5988 82.1469 57.8188 82.3869 56.4988C82.6269 55.1788 82.7469 54.3388 82.7469 53.9788C82.9869 53.2588 83.2869 52.1788 83.6469 50.7388C84.1269 49.1788 84.4869 48.1588 84.7269 47.6788C84.8469 47.6788 85.0269 47.4388 85.2669 46.9588C85.6269 46.4788 85.9269 45.9388 86.1669 45.3388C86.4069 44.7388 86.6469 44.1388 86.8869 43.5388C87.2469 42.9388 87.4869 42.4588 87.6069 42.0988C87.8469 41.8588 88.1469 41.3788 88.5069 40.6588C88.9869 39.9388 89.3469 39.5188 89.5869 39.3988C89.9469 38.9188 90.4869 38.1988 91.2069 37.2388C92.0469 36.1588 92.4669 35.4988 92.4669 35.2588C92.7069 35.0188 93.1869 34.5388 93.9069 33.8188C94.7469 33.0988 95.3469 32.6188 95.7069 32.3788C95.7069 32.1388 96.1869 31.6588 97.1469 30.9388C98.1069 30.2188 98.8269 29.7988 99.3069 29.6788L102.187 27.5188C102.787 27.2788 103.807 26.7988 105.247 26.0788C106.807 25.3588 107.767 24.9388 108.127 24.8188C108.367 24.8188 108.847 24.6388 109.567 24.2788C110.407 23.9188 110.947 23.6188 111.187 23.3788C111.787 23.3788 112.507 23.2588 113.347 23.0188C114.307 22.7788 114.907 22.6588 115.147 22.6588H120.367H125.767C125.887 22.6588 126.667 22.7788 128.107 23.0188C129.667 23.2588 130.867 23.3788 131.707 23.3788C132.067 23.6188 132.907 23.9188 134.227 24.2788C135.547 24.6388 136.327 24.8188 136.567 24.8188C136.927 24.8188 137.827 25.1188 139.267 25.7188C140.827 26.1988 141.787 26.4988 142.147 26.6188C142.387 26.7388 142.867 26.9788 143.587 27.3388C144.307 27.6988 145.087 28.0588 145.927 28.4188C146.767 28.7788 147.547 29.1988 148.267 29.6788C149.107 30.0388 149.707 30.2788 150.067 30.3988C150.427 30.6388 150.967 30.9988 151.687 31.4788C152.407 31.8388 152.767 32.1388 152.767 32.3788C153.127 32.7388 153.847 33.3988 154.927 34.3588C156.007 35.3188 156.607 35.9788 156.727 36.3388C156.967 36.5788 157.387 37.2388 157.987 38.3188C158.587 39.2788 158.887 39.8788 158.887 40.1188V42.8188V46.0588C158.767 46.4188 158.647 46.8388 158.527 47.3188C158.407 47.6788 158.227 48.0388 157.987 48.3988C157.867 48.6388 157.747 48.8788 157.627 49.1188C157.627 49.2388 157.507 49.5388 157.267 50.0188C157.147 50.4988 156.967 50.7988 156.727 50.9188C156.607 51.1588 156.187 51.8188 155.467 52.8988C154.747 53.8588 154.267 54.4588 154.027 54.6988C153.787 54.9388 153.307 55.4788 152.587 56.3188C151.867 57.1588 151.387 57.6988 151.147 57.9388C150.667 58.1788 149.887 58.6588 148.807 59.3788C147.847 60.0988 147.247 60.5188 147.007 60.6388C147.007 60.7588 146.767 60.9988 146.287 61.3588C145.807 61.5988 145.267 61.8988 144.667 62.2588C144.067 62.4988 143.467 62.7988 142.867 63.1588C142.267 63.3988 141.787 63.5788 141.427 63.6988C141.187 63.6988 140.647 63.8188 139.807 64.0588C139.087 64.2988 138.547 64.4188 138.187 64.4188C137.707 64.6588 137.047 64.8988 136.207 65.1388C135.367 65.3788 134.827 65.4988 134.587 65.4988C134.227 65.4988 133.567 65.5588 132.607 65.6788C131.647 65.7988 130.627 65.9188 129.547 66.0388C128.467 66.0388 127.447 66.0988 126.487 66.2188C125.647 66.3388 125.107 66.3988 124.867 66.3988H120.007H115.147C114.787 66.3988 113.887 66.3388 112.447 66.2188C111.127 66.0988 109.687 66.0388 108.127 66.0388C106.567 65.9188 105.127 65.7988 103.807 65.6788C102.487 65.5588 101.707 65.4988 101.467 65.4988H99.8469H98.4069C98.4069 65.7388 98.5269 66.2788 98.7669 67.1188C99.1269 67.8388 99.3069 68.3188 99.3069 68.5588C99.5469 68.9188 100.027 69.8788 100.747 71.4388C101.467 72.8788 101.947 73.7788 102.187 74.1388C102.427 74.6188 102.787 75.2188 103.267 75.9388C103.867 76.6588 104.167 77.1388 104.167 77.3788C104.527 77.6188 105.067 78.0988 105.787 78.8188C106.507 79.5388 107.287 80.3188 108.127 81.1588C108.967 81.9988 109.747 82.7788 110.467 83.4988C111.307 84.2188 111.907 84.6988 112.267 84.9388C112.267 85.1788 112.627 85.5388 113.347 86.0188C114.187 86.4988 114.787 86.8588 115.147 87.0988C115.627 87.3388 116.587 87.8188 118.027 88.5388C119.467 89.2588 120.427 89.6788 120.907 89.7988C121.027 89.7988 121.447 89.9788 122.167 90.3388C122.887 90.5788 123.367 90.6988 123.607 90.6988C124.207 90.9388 125.287 91.1788 126.847 91.4188C128.407 91.5388 129.367 91.7188 129.727 91.9588H132.427H135.487C135.847 91.7188 136.507 91.5388 137.467 91.4188C138.427 91.1788 139.087 90.9388 139.447 90.6988L140.347 89.7988V78.2788C140.467 77.9188 140.587 77.4988 140.707 77.0188C140.827 76.6588 140.947 76.3588 141.067 76.1188C141.187 75.7588 141.307 75.4588 141.427 75.2188C141.547 75.0988 141.607 74.9788 141.607 74.8588C141.607 74.6188 141.667 74.4388 141.787 74.3188C141.907 74.0788 142.027 73.7788 142.147 73.4188L147.007 68.5588C147.247 68.3188 147.847 67.9588 148.807 67.4788C149.887 66.9988 150.667 66.6388 151.147 66.3988H151.867H152.767C153.007 66.6388 153.427 66.9988 154.027 67.4788C154.627 67.9588 154.927 68.3188 154.927 68.5588C155.047 68.6788 155.167 69.3988 155.287 70.7188C155.527 72.0388 155.767 72.9388 156.007 73.4188V76.6588V80.0788C155.767 80.5588 155.527 81.3988 155.287 82.5988C155.167 83.7988 155.047 84.5788 154.927 84.9388C154.927 85.0588 154.807 85.4188 154.567 86.0188C154.327 86.4988 154.027 87.0388 153.667 87.6388C153.427 88.2388 153.127 88.8388 152.767 89.4388C152.407 90.0388 152.107 90.4588 151.867 90.6988C151.747 91.0588 151.447 91.6588 150.967 92.4988C150.487 93.2188 150.187 93.5788 150.067 93.5788C149.827 93.8188 149.347 94.2988 148.627 95.0188C148.027 95.6188 147.367 96.2788 146.647 96.9988C145.927 97.7188 145.207 98.4388 144.487 99.1588C143.887 99.7588 143.407 100.179 143.047 100.419C143.047 100.659 142.687 101.019 141.967 101.499C141.247 101.979 140.707 102.339 140.347 102.579C140.107 102.699 139.447 102.999 138.367 103.479C137.407 103.959 136.807 104.259 136.567 104.379C136.087 104.379 135.187 104.679 133.867 105.279C132.667 105.879 131.947 106.299 131.707 106.539C131.467 106.539 131.107 106.659 130.627 106.899C130.267 107.259 129.967 107.439 129.727 107.439C129.727 108.159 129.667 109.419 129.547 111.219C129.547 113.019 129.487 114.939 129.367 116.979C129.247 119.139 129.067 121.119 128.827 122.919C128.707 124.839 128.587 126.159 128.467 126.879C128.467 127.239 128.347 128.019 128.107 129.219C127.987 130.419 127.807 131.259 127.567 131.739C127.567 131.859 127.447 132.159 127.207 132.639C126.967 133.119 126.847 133.419 126.847 133.539C126.607 133.179 126.367 132.399 126.127 131.199C125.887 129.999 125.767 129.159 125.767 128.679C125.767 127.959 125.707 126.759 125.587 125.079C125.467 123.519 125.347 121.779 125.227 119.859C125.227 118.059 125.167 116.319 125.047 114.639C124.927 113.079 124.867 111.999 124.867 111.399ZM97.3269 48.5788C97.5669 48.5788 98.1069 48.6388 98.9469 48.7588C99.7869 48.7588 100.687 48.8188 101.647 48.9388C102.607 48.9388 103.507 48.9988 104.347 49.1188C105.307 49.1188 105.967 49.1188 106.327 49.1188L107.767 49.4788C108.247 49.5988 108.667 49.7188 109.027 49.8388C109.867 50.0788 111.247 50.3188 113.167 50.5588C115.207 50.7988 116.527 50.9188 117.127 50.9188H130.087H139.447L143.047 49.8388C142.807 49.4788 142.087 48.6988 140.887 47.4988C139.687 46.2988 138.787 45.4588 138.187 44.9788C138.067 44.8588 137.707 44.6188 137.107 44.2588C136.507 43.8988 135.787 43.5388 134.947 43.1788C134.107 42.6988 133.267 42.2788 132.427 41.9188C131.707 41.5588 131.107 41.3188 130.627 41.1988C130.507 41.1988 130.147 41.1388 129.547 41.0188C129.067 40.7788 128.467 40.5388 127.747 40.2988C127.147 40.0588 126.547 39.8788 125.947 39.7588C125.467 39.5188 125.107 39.3988 124.867 39.3988C124.267 39.1588 123.367 38.8588 122.167 38.4988C120.967 38.1388 120.247 37.9588 120.007 37.9588H112.807H105.427C105.067 38.1988 104.407 38.6188 103.447 39.2188C102.487 39.8188 101.827 40.1188 101.467 40.1188L100.927 40.6588C100.807 40.7788 100.747 40.8988 100.747 41.0188C100.747 41.1388 100.687 41.1988 100.567 41.1988C100.327 41.4388 99.9669 42.0988 99.4869 43.1788C99.0069 44.1388 98.6469 44.7388 98.4069 44.9788C98.2869 45.2188 98.1069 45.6988 97.8669 46.4188C97.7469 47.1388 97.5669 47.5588 97.3269 47.6788V48.5788ZM172.034 106.899C171.794 106.659 171.374 106.179 170.774 105.459C170.294 104.619 169.934 104.079 169.694 103.839C169.814 103.599 169.694 102.699 169.334 101.139C169.094 99.4588 168.854 98.3188 168.614 97.7188C168.494 97.4788 168.374 96.9988 168.254 96.2788C168.134 95.5588 168.014 94.7788 167.894 93.9388C167.774 93.0988 167.654 92.2588 167.534 91.4188C167.414 90.5788 167.294 89.9788 167.174 89.6188C167.054 89.1388 166.874 87.8188 166.634 85.6588C166.514 83.4988 166.334 80.9788 166.094 78.0988C165.854 75.0988 165.554 71.9188 165.194 68.5588C164.954 65.1988 164.654 62.0788 164.294 59.1988C164.054 56.1988 163.814 53.6788 163.574 51.6388C163.454 49.4788 163.334 48.0988 163.214 47.4988C162.974 46.5388 162.734 45.0988 162.494 43.1788C162.254 41.1388 162.014 39.8788 161.774 39.3988C161.774 39.2788 161.654 38.9788 161.414 38.4988C161.174 37.8988 161.054 37.5388 161.054 37.4188C160.934 37.2988 160.814 37.0588 160.694 36.6988C160.694 36.3388 160.574 35.9788 160.334 35.6188C160.094 35.1388 159.854 34.7188 159.614 34.3588C159.614 34.2388 159.614 33.9388 159.614 33.4588C159.614 32.9788 159.674 32.6788 159.794 32.5588V31.2988C159.794 30.9388 159.854 30.6388 159.974 30.3988C159.974 30.1588 160.274 29.5588 160.874 28.5988C161.474 27.6388 161.894 26.9188 162.134 26.4388C162.254 26.4388 162.554 26.2588 163.034 25.8988C163.514 25.4188 163.994 24.9388 164.474 24.4588C165.074 23.9788 165.614 23.4988 166.094 23.0188C166.694 22.5388 167.114 22.1788 167.354 21.9388C167.594 21.8188 168.194 21.5788 169.154 21.2188C170.234 20.8588 170.894 20.6788 171.134 20.6788H172.934C173.174 20.6788 173.654 20.7988 174.374 21.0388L174.734 21.3988C175.094 21.7588 175.274 21.9388 175.274 21.9388C175.394 22.2988 175.634 23.0188 175.994 24.0988C176.354 25.0588 176.594 25.7188 176.714 26.0788C176.714 26.1988 176.774 26.5588 176.894 27.1588C177.014 27.6388 177.134 28.2388 177.254 28.9588C177.494 29.6788 177.674 30.3988 177.794 31.1188C178.034 31.7188 178.214 32.2588 178.334 32.7388C178.334 33.0988 178.334 33.6988 178.334 34.5388C178.454 35.2588 178.574 36.0388 178.694 36.8788C178.814 37.7188 178.934 38.5588 179.054 39.3988C179.174 40.1188 179.234 40.5988 179.234 40.8388C179.234 41.0788 179.294 41.6788 179.414 42.6388C179.654 43.4788 179.834 44.3788 179.954 45.3388C180.074 46.2988 180.194 47.2588 180.314 48.2188C180.434 49.0588 180.494 49.5388 180.494 49.6588C180.734 49.8988 180.914 50.2588 181.034 50.7388C181.154 51.2188 181.334 51.5788 181.574 51.8188C181.814 51.5788 182.234 51.0988 182.834 50.3788C183.434 49.5388 184.034 48.6988 184.634 47.8588C185.354 46.8988 186.014 46.0588 186.614 45.3388C187.334 44.6188 187.814 44.1388 188.054 43.8988C188.174 43.6588 188.894 42.8188 190.214 41.3788C191.534 39.9388 192.554 38.8588 193.274 38.1388C193.394 38.1388 193.574 38.0188 193.814 37.7788C194.054 37.4188 194.294 37.2988 194.534 37.4188C194.894 37.0588 195.554 36.5788 196.514 35.9788C197.594 35.2588 198.254 34.7788 198.494 34.5388C199.094 34.4188 200.114 34.0588 201.554 33.4588C203.114 32.8588 204.194 32.4388 204.794 32.1988C204.914 32.3188 205.034 32.3788 205.154 32.3788H206.054C206.174 32.3788 206.294 32.4388 206.414 32.5588C206.534 32.5588 206.714 32.5588 206.954 32.5588H207.674C207.794 32.7988 208.034 33.0388 208.394 33.2788C208.874 33.5188 209.234 33.6988 209.474 33.8188L210.914 35.6188C211.154 35.8588 211.454 36.3988 211.814 37.2388C212.294 37.9588 212.654 38.5588 212.894 39.0388C213.014 39.0388 213.134 39.3388 213.254 39.9388C213.374 40.5388 213.494 40.9588 213.614 41.1988C213.734 41.6788 214.094 43.0588 214.694 45.3388C215.414 47.4988 216.134 49.8988 216.854 52.5388C217.694 55.0588 218.414 57.4588 219.014 59.7388C219.734 62.0188 220.214 63.4588 220.454 64.0588C220.454 64.1788 220.514 64.5388 220.634 65.1388C220.874 65.7388 221.114 66.4588 221.354 67.2988C221.594 68.0188 221.834 68.7988 222.074 69.6388C222.314 70.3588 222.434 70.8988 222.434 71.2588C222.554 71.4988 222.794 72.6988 223.154 74.8588C223.634 77.0188 224.114 79.4188 224.594 82.0588C225.074 84.5788 225.494 86.9788 225.854 89.2588C226.214 91.4188 226.394 92.6788 226.394 93.0388C226.634 93.1588 226.874 93.6388 227.114 94.4788C227.354 95.1988 227.474 95.6788 227.474 95.9188C227.354 96.2788 227.294 96.6988 227.294 97.1788L227.114 98.0788C227.114 98.4388 226.934 98.9788 226.574 99.6988C226.214 100.299 225.914 100.599 225.674 100.599C225.674 100.839 225.494 101.259 225.134 101.859C224.774 102.339 224.354 102.879 223.874 103.479C223.394 104.079 222.914 104.679 222.434 105.279C221.954 105.879 221.654 106.239 221.534 106.359C221.414 106.599 221.294 107.139 221.174 107.979C221.054 108.819 220.934 109.719 220.814 110.679C220.694 111.639 220.574 112.539 220.454 113.379C220.334 114.219 220.274 114.759 220.274 114.999C220.274 114.759 220.034 114.219 219.554 113.379C219.074 112.539 218.894 112.059 219.014 111.939C219.014 111.699 218.894 111.039 218.654 109.959C218.534 108.999 218.474 108.399 218.474 108.159C218.234 108.039 217.694 108.039 216.854 108.159C216.134 108.399 215.594 108.519 215.234 108.519H214.694C214.334 108.519 214.154 108.459 214.154 108.339H212.534L211.814 107.439C211.574 107.199 211.394 106.539 211.274 105.459C211.274 104.259 211.154 103.539 210.914 103.299C210.794 102.939 210.494 101.379 210.014 98.6188C209.534 95.8588 208.994 92.9188 208.394 89.7988C207.794 86.6788 207.194 83.7388 206.594 80.9788C206.114 78.2188 205.814 76.6588 205.694 76.2988C205.454 75.5788 205.034 74.2588 204.434 72.3388C203.954 70.4188 203.354 68.4388 202.634 66.3988C201.914 64.2388 201.254 62.1988 200.654 60.2788C200.054 58.3588 199.634 56.9788 199.394 56.1388C199.394 56.9788 199.334 58.9588 199.214 62.0788C199.214 65.0788 199.094 68.3788 198.854 71.9788C198.734 75.4588 198.554 78.6988 198.314 81.6988C198.074 84.6988 197.834 86.6188 197.594 87.4588C197.594 87.9388 197.414 88.8988 197.054 90.3388C196.814 91.7788 196.514 92.6788 196.154 93.0388C196.154 92.7988 196.154 91.7788 196.154 89.9788C196.154 88.0588 196.154 86.0188 196.154 83.8588C196.154 81.6988 196.154 79.7188 196.154 77.9188C196.154 75.9988 196.154 74.9188 196.154 74.6788C196.154 74.3188 196.094 73.6588 195.974 72.6988C195.974 71.6188 195.974 70.5388 195.974 69.4588C195.974 68.2588 195.974 67.1788 195.974 66.2188C195.974 65.1388 195.974 64.4188 195.974 64.0588C195.974 63.4588 195.974 62.4988 195.974 61.1788C196.094 59.7388 196.154 58.2388 196.154 56.6788C196.154 55.1188 196.154 53.6788 196.154 52.3588C196.274 50.9188 196.334 49.9588 196.334 49.4788C196.094 49.7188 195.734 50.1988 195.254 50.9188C194.894 51.5188 194.474 52.2388 193.994 53.0788C193.634 53.7988 193.214 54.5188 192.734 55.2388C192.254 55.9588 191.954 56.4388 191.834 56.6788C191.474 57.0388 190.994 57.8188 190.394 59.0188C189.914 60.2188 189.494 60.9988 189.134 61.3588C189.014 61.7188 188.834 62.3188 188.594 63.1588C188.354 63.8788 188.114 64.6588 187.874 65.4988C187.634 66.3388 187.394 67.1188 187.154 67.8388C186.914 68.5588 186.794 68.9788 186.794 69.0988C186.674 69.6988 186.494 71.2588 186.254 73.7788C186.134 76.2988 186.014 79.0588 185.894 82.0588C185.774 85.0588 185.654 87.8788 185.534 90.5188C185.534 93.0388 185.534 94.5388 185.534 95.0188C185.294 95.4988 184.874 96.2188 184.274 97.1788C183.794 98.1388 183.434 98.7388 183.194 98.9788C183.074 99.2188 182.714 99.5788 182.114 100.059C181.514 100.539 180.914 101.079 180.314 101.679C179.714 102.279 179.114 102.879 178.514 103.479C178.034 103.959 177.794 104.319 177.794 104.559C177.674 104.679 177.494 105.159 177.254 105.999C177.134 106.719 176.954 107.559 176.714 108.519C176.594 109.599 176.414 110.559 176.174 111.399C176.054 112.239 175.934 112.779 175.814 113.019C175.814 113.139 175.574 113.499 175.094 114.099C174.734 114.819 174.554 115.299 174.554 115.539L175.454 105.999C175.214 106.479 174.914 107.319 174.554 108.519C174.314 109.719 174.074 110.979 173.834 112.299C173.594 113.739 173.354 115.059 173.114 116.259C172.874 117.459 172.694 118.299 172.574 118.779C172.574 119.139 172.274 120.039 171.674 121.479C171.074 122.919 170.714 123.819 170.594 124.179L172.034 106.899ZM256.308 106.899C255.948 106.899 255.288 106.779 254.328 106.539C253.488 106.419 252.588 106.239 251.628 105.999C250.788 105.759 249.948 105.579 249.108 105.459C248.268 105.219 247.728 105.099 247.488 105.099C247.248 105.099 246.708 104.979 245.868 104.739C245.148 104.379 244.668 104.199 244.428 104.199C244.068 103.959 243.408 103.539 242.448 102.939C241.488 102.339 240.828 102.039 240.468 102.039C240.228 101.919 239.748 101.619 239.028 101.139C238.308 100.659 237.888 100.359 237.768 100.239C237.528 99.7588 236.868 99.0988 235.788 98.2588C234.828 97.2988 234.108 96.5788 233.628 96.0988C233.268 95.8588 232.968 95.4988 232.728 95.0188C232.248 94.2988 232.008 93.6988 232.008 93.2188C231.768 92.9788 231.468 92.5588 231.108 91.9588C230.868 91.3588 230.568 90.7588 230.208 90.1588C229.848 89.5588 229.548 89.0188 229.308 88.5388C229.068 87.9388 228.888 87.5788 228.768 87.4588C228.768 87.0988 228.648 86.3188 228.408 85.1188C228.168 83.9188 228.048 83.0788 228.048 82.5988V80.2588V77.7388C228.048 77.3788 228.168 76.5988 228.408 75.3988C228.648 74.1988 228.768 73.3588 228.768 72.8788C229.008 72.5188 229.188 71.9788 229.308 71.2588C229.548 70.4188 229.728 69.8788 229.848 69.6388C230.088 69.2788 230.568 68.3788 231.288 66.9388C232.128 65.3788 232.668 64.4188 232.908 64.0588C233.028 63.8188 233.328 63.3388 233.808 62.6188C234.288 61.7788 234.588 61.3588 234.708 61.3588C234.948 60.9988 235.368 60.5188 235.968 59.9188C236.688 59.1988 237.408 58.4788 238.128 57.7588C238.848 57.0388 239.508 56.3788 240.108 55.7788C240.828 55.1788 241.368 54.6988 241.728 54.3388C241.968 53.8588 242.568 53.3188 243.528 52.7188C244.488 51.9988 245.088 51.6388 245.328 51.6388C245.448 51.3988 245.868 51.0988 246.588 50.7388C247.308 50.3788 248.088 50.0188 248.928 49.6588C249.768 49.1788 250.548 48.7588 251.268 48.3988C252.108 48.0388 252.708 47.7388 253.068 47.4988C253.308 47.4988 253.788 47.3788 254.508 47.1388C255.348 46.8988 255.948 46.7788 256.308 46.7788C256.548 46.6588 256.848 46.5388 257.208 46.4188C257.688 46.2988 258.108 46.1188 258.468 45.8788C258.948 45.6388 259.428 45.4588 259.908 45.3388H267.108H274.488C274.608 45.3388 274.968 45.3988 275.568 45.5188C276.168 45.6388 276.828 45.7588 277.548 45.8788C278.268 45.9988 278.868 46.1788 279.348 46.4188C279.948 46.5388 280.368 46.6588 280.608 46.7788C280.848 46.7788 281.328 46.7188 282.048 46.5988C282.768 46.3588 283.188 46.2388 283.308 46.2388V17.6188C283.308 17.1388 283.428 16.1788 283.668 14.7388C284.028 13.1788 284.208 12.0388 284.208 11.3188C284.448 10.9588 284.808 10.3588 285.288 9.51878C285.768 8.55877 286.128 8.01877 286.368 7.89878C286.488 7.41878 287.208 6.57878 288.528 5.37878C289.848 4.17878 290.748 3.39878 291.228 3.03877C291.228 2.79878 291.468 2.55878 291.948 2.31877C292.548 2.07878 292.908 1.83878 293.028 1.59877C293.268 1.59877 293.868 1.47877 294.828 1.23878C295.308 1.11878 295.728 0.998776 296.088 0.87877C296.208 0.87877 296.508 0.998772 296.988 1.23878C297.588 1.35877 297.888 1.47877 297.888 1.59877C297.888 2.79877 297.948 5.01877 298.068 8.25877C298.188 11.3788 298.248 14.7388 298.248 18.3388C298.368 21.8188 298.488 25.1788 298.608 28.4188C298.728 31.5388 298.788 33.6988 298.788 34.8988C298.908 35.4988 299.028 36.5788 299.148 38.1388C299.268 39.5788 299.328 41.1388 299.328 42.8188C299.448 44.3788 299.568 45.8788 299.688 47.3188C299.808 48.7588 299.928 49.7188 300.048 50.1988C300.048 50.7988 300.108 51.8788 300.228 53.4388C300.468 54.9988 300.708 56.7388 300.948 58.6588C301.188 60.5788 301.368 62.4388 301.488 64.2388C301.728 65.9188 301.908 67.1788 302.028 68.0188C302.028 68.7388 302.148 69.8188 302.388 71.2588C302.628 72.6988 302.748 73.5388 302.748 73.7788C302.748 74.0188 303.048 74.4988 303.648 75.2188C304.248 75.9388 304.668 76.4188 304.908 76.6588C304.908 76.8988 305.028 77.3788 305.268 78.0988C305.628 78.8188 305.808 79.2388 305.808 79.3588C305.928 80.0788 306.108 81.2188 306.348 82.7788C306.708 84.2188 306.888 85.1788 306.888 85.6588V89.6188V93.2188C306.888 93.4588 306.708 93.9388 306.348 94.6588C306.108 95.3788 305.928 95.8588 305.808 96.0988C305.808 96.3388 305.508 96.8188 304.908 97.5388C304.308 98.2588 303.888 98.6788 303.648 98.7988C303.648 99.2788 303.228 99.9388 302.388 100.779C301.548 101.499 301.068 101.919 300.948 102.039C300.588 102.279 300.168 102.579 299.688 102.939C298.728 103.659 298.128 104.079 297.888 104.199C297.768 104.199 297.468 104.379 296.988 104.739C296.508 104.979 296.208 105.099 296.088 105.099H295.188H293.928C293.808 105.099 293.508 104.979 293.028 104.739C292.788 104.619 292.548 104.439 292.308 104.199C292.068 103.959 291.828 103.479 291.588 102.759C291.468 102.039 291.348 101.439 291.228 100.959C291.228 100.719 291.048 100.119 290.688 99.1588C290.448 98.0788 290.328 97.4188 290.328 97.1788C290.208 96.9388 290.028 96.3388 289.788 95.3788C289.668 94.4188 289.488 93.3988 289.248 92.3188C289.008 91.2388 288.768 90.2188 288.528 89.2588C288.408 88.2988 288.288 87.6988 288.168 87.4588C288.168 87.3388 288.048 87.0388 287.808 86.5588C287.568 86.0788 287.448 85.7788 287.448 85.6588C287.208 85.7788 286.668 86.3788 285.828 87.4588C285.108 88.4188 284.568 88.9588 284.208 89.0788C283.728 89.7988 283.068 90.8188 282.228 92.1388C281.388 93.3388 280.848 93.9388 280.608 93.9388C280.368 94.1788 280.008 94.5988 279.528 95.1988C279.048 95.7988 278.688 96.0988 278.448 96.0988C278.328 96.3388 277.728 96.8188 276.648 97.5388C275.568 98.2588 274.848 98.6788 274.488 98.7988C274.248 99.0388 273.768 99.4588 273.048 100.059C272.328 100.659 271.908 100.959 271.788 100.959C271.548 101.079 271.068 101.319 270.348 101.679C269.628 102.039 268.848 102.459 268.008 102.939C267.288 103.299 266.568 103.719 265.848 104.199C265.248 104.559 264.888 104.859 264.768 105.099C264.648 105.339 264.528 105.819 264.408 106.539C264.288 107.259 264.168 108.039 264.048 108.879C264.048 109.719 263.988 110.499 263.868 111.219C263.868 111.939 263.868 112.419 263.868 112.659C263.868 112.899 263.748 113.259 263.508 113.739C263.268 114.219 263.148 114.579 263.148 114.819C262.908 114.579 262.668 114.219 262.428 113.739C262.188 113.259 262.068 112.899 262.068 112.659C261.828 112.179 261.528 111.219 261.168 109.779C260.808 108.339 260.628 107.379 260.628 106.899V129.579H259.728C259.488 129.579 259.248 129.519 259.008 129.399C258.888 129.399 258.708 129.099 258.468 128.499C258.348 127.899 258.288 127.479 258.288 127.239C258.048 126.759 257.808 125.799 257.568 124.359C257.328 122.919 257.208 121.959 257.208 121.479C257.208 120.879 257.148 119.859 257.028 118.419C256.908 117.099 256.788 115.659 256.668 114.099C256.668 112.539 256.608 111.099 256.488 109.779C256.368 108.459 256.308 107.499 256.308 106.899ZM243.348 75.9388C243.588 76.2988 244.068 77.2588 244.788 78.8188C245.628 80.2588 246.228 81.1588 246.588 81.5188C246.828 81.9988 247.668 82.9588 249.108 84.3988C250.548 85.8388 251.628 86.8588 252.348 87.4588C252.468 87.4588 253.008 87.6988 253.968 88.1788C254.928 88.6588 255.708 88.9588 256.308 89.0788C256.548 89.3188 257.028 89.6188 257.748 89.9788C258.468 90.3388 258.888 90.5188 259.008 90.5188H264.408H268.728C268.968 90.5188 269.568 90.2188 270.528 89.6188C271.608 89.0188 272.388 88.5988 272.868 88.3588C273.108 88.1188 273.408 87.8188 273.768 87.4588C274.248 86.9788 274.488 86.6188 274.488 86.3788C274.608 86.2588 274.848 85.8388 275.208 85.1188C275.688 84.3988 276.108 83.6788 276.468 82.9588C276.828 82.1188 277.188 81.2788 277.548 80.4388C277.908 79.5988 278.208 78.9988 278.448 78.6388C278.448 78.3988 278.568 77.9188 278.808 77.1988C279.168 76.4788 279.348 76.0588 279.348 75.9388C279.468 75.4588 279.648 74.7988 279.888 73.9588C280.248 72.9988 280.488 72.1588 280.608 71.4388C280.848 70.5988 281.028 69.8788 281.148 69.2788C281.388 68.5588 281.508 68.1388 281.508 68.0188C281.508 67.6588 281.508 66.9388 281.508 65.8588C281.628 64.6588 281.688 63.9388 281.688 63.6988C281.328 63.6988 280.368 63.6388 278.808 63.5188C277.248 63.2788 276.228 63.1588 275.748 63.1588C275.508 63.1588 275.028 63.0388 274.308 62.7988C273.588 62.5588 272.748 62.3788 271.788 62.2588C270.948 62.0188 270.108 61.8388 269.268 61.7188C268.548 61.4788 268.128 61.3588 268.008 61.3588C267.768 61.3588 267.108 61.2988 266.028 61.1788C265.068 60.9388 264.348 60.8188 263.868 60.8188C263.508 60.8188 262.848 60.9388 261.888 61.1788C260.928 61.2988 260.268 61.3588 259.908 61.3588C259.908 61.4788 259.788 61.8988 259.548 62.6188C259.428 63.3388 259.248 63.8188 259.008 64.0588H258.828H258.288C258.048 63.8188 257.808 63.5188 257.568 63.1588C257.328 62.6788 257.208 62.3188 257.208 62.0788C257.208 62.0788 257.028 61.8988 256.668 61.5388C256.548 61.4188 256.428 61.3588 256.308 61.3588C256.068 61.3588 255.588 61.2988 254.868 61.1788C254.148 60.9388 253.548 60.8188 253.068 60.8188C252.708 60.8188 252.168 60.9388 251.448 61.1788C250.848 61.2988 250.428 61.3588 250.188 61.3588C249.948 61.3588 249.408 61.5988 248.568 62.0788C247.728 62.4388 247.068 62.7988 246.588 63.1588C246.348 63.1588 245.988 63.3988 245.508 63.8788C245.028 64.3588 244.668 64.6588 244.428 64.7788C244.188 65.2588 244.008 65.6788 243.888 66.0388C243.768 66.3988 243.588 66.6988 243.348 66.9388V71.7988V75.9388ZM348.826 111.399C348.826 111.879 348.646 112.959 348.286 114.639C348.046 116.439 347.806 117.639 347.566 118.239L346.666 119.859L345.046 118.959V107.439C344.806 107.319 344.266 107.139 343.426 106.899C342.706 106.779 341.926 106.599 341.086 106.359C340.246 106.119 339.406 105.939 338.566 105.819C337.846 105.579 337.306 105.399 336.946 105.279C336.706 105.279 336.286 105.219 335.686 105.099C335.206 104.859 334.666 104.619 334.066 104.379C333.466 104.139 332.866 103.959 332.266 103.839C331.666 103.599 331.246 103.419 331.006 103.299C330.766 103.299 330.166 103.119 329.206 102.759C328.366 102.279 327.706 101.919 327.226 101.679C327.106 101.439 326.686 101.079 325.966 100.599C325.246 100.119 324.766 99.7588 324.526 99.5188C324.166 99.1588 323.446 98.6188 322.366 97.8988C321.286 97.1788 320.686 96.8188 320.566 96.8188C320.326 96.4588 319.666 95.7388 318.586 94.6588C317.626 93.5788 316.906 92.9788 316.426 92.8588C316.426 92.6188 316.006 92.0188 315.166 91.0588C314.446 90.0988 313.906 89.3188 313.546 88.7188C313.306 88.4788 312.946 87.9988 312.466 87.2788C312.106 86.5588 311.806 86.0788 311.566 85.8388C311.446 85.5988 311.206 85.2388 310.846 84.7588C310.606 84.1588 310.366 83.5588 310.126 82.9588C309.886 82.2388 309.586 81.6388 309.226 81.1588C308.986 80.5588 308.806 80.1988 308.686 80.0788C308.446 79.7188 308.086 78.8188 307.606 77.3788C307.246 75.8188 306.946 74.7388 306.706 74.1388C306.706 73.7788 306.586 72.8788 306.346 71.4388C306.106 69.8788 305.986 68.9188 305.986 68.5588V63.6988V58.8388C305.986 58.5988 306.106 57.8188 306.346 56.4988C306.586 55.1788 306.706 54.3388 306.706 53.9788C306.946 53.2588 307.246 52.1788 307.606 50.7388C308.086 49.1788 308.446 48.1588 308.686 47.6788C308.806 47.6788 308.986 47.4388 309.226 46.9588C309.586 46.4788 309.886 45.9388 310.126 45.3388C310.366 44.7388 310.606 44.1388 310.846 43.5388C311.206 42.9388 311.446 42.4588 311.566 42.0988C311.806 41.8588 312.106 41.3788 312.466 40.6588C312.946 39.9388 313.306 39.5188 313.546 39.3988C313.906 38.9188 314.446 38.1988 315.166 37.2388C316.006 36.1588 316.426 35.4988 316.426 35.2588C316.666 35.0188 317.146 34.5388 317.866 33.8188C318.706 33.0988 319.306 32.6188 319.666 32.3788C319.666 32.1388 320.146 31.6588 321.106 30.9388C322.066 30.2188 322.786 29.7988 323.266 29.6788L326.146 27.5188C326.746 27.2788 327.766 26.7988 329.206 26.0788C330.766 25.3588 331.726 24.9388 332.086 24.8188C332.326 24.8188 332.806 24.6388 333.526 24.2788C334.366 23.9188 334.906 23.6188 335.146 23.3788C335.746 23.3788 336.466 23.2588 337.306 23.0188C338.266 22.7788 338.866 22.6588 339.106 22.6588H344.326H349.726C349.846 22.6588 350.626 22.7788 352.066 23.0188C353.626 23.2588 354.826 23.3788 355.666 23.3788C356.026 23.6188 356.866 23.9188 358.186 24.2788C359.506 24.6388 360.286 24.8188 360.526 24.8188C360.886 24.8188 361.786 25.1188 363.226 25.7188C364.786 26.1988 365.746 26.4988 366.106 26.6188C366.346 26.7388 366.826 26.9788 367.546 27.3388C368.266 27.6988 369.046 28.0588 369.886 28.4188C370.726 28.7788 371.506 29.1988 372.226 29.6788C373.066 30.0388 373.666 30.2788 374.026 30.3988C374.386 30.6388 374.926 30.9988 375.646 31.4788C376.366 31.8388 376.726 32.1388 376.726 32.3788C377.086 32.7388 377.806 33.3988 378.886 34.3588C379.966 35.3188 380.566 35.9788 380.686 36.3388C380.926 36.5788 381.346 37.2388 381.946 38.3188C382.546 39.2788 382.846 39.8788 382.846 40.1188V42.8188V46.0588C382.726 46.4188 382.606 46.8388 382.486 47.3188C382.366 47.6788 382.186 48.0388 381.946 48.3988C381.826 48.6388 381.706 48.8788 381.586 49.1188C381.586 49.2388 381.466 49.5388 381.226 50.0188C381.106 50.4988 380.926 50.7988 380.686 50.9188C380.566 51.1588 380.146 51.8188 379.426 52.8988C378.706 53.8588 378.226 54.4588 377.986 54.6988C377.746 54.9388 377.266 55.4788 376.546 56.3188C375.826 57.1588 375.346 57.6988 375.106 57.9388C374.626 58.1788 373.846 58.6588 372.766 59.3788C371.806 60.0988 371.206 60.5188 370.966 60.6388C370.966 60.7588 370.726 60.9988 370.246 61.3588C369.766 61.5988 369.226 61.8988 368.626 62.2588C368.026 62.4988 367.426 62.7988 366.826 63.1588C366.226 63.3988 365.746 63.5788 365.386 63.6988C365.146 63.6988 364.606 63.8188 363.766 64.0588C363.046 64.2988 362.506 64.4188 362.146 64.4188C361.666 64.6588 361.006 64.8988 360.166 65.1388C359.326 65.3788 358.786 65.4988 358.546 65.4988C358.186 65.4988 357.526 65.5588 356.566 65.6788C355.606 65.7988 354.586 65.9188 353.506 66.0388C352.426 66.0388 351.406 66.0988 350.446 66.2188C349.606 66.3388 349.066 66.3988 348.826 66.3988H343.966H339.106C338.746 66.3988 337.846 66.3388 336.406 66.2188C335.086 66.0988 333.646 66.0388 332.086 66.0388C330.526 65.9188 329.086 65.7988 327.766 65.6788C326.446 65.5588 325.666 65.4988 325.426 65.4988H323.806H322.366C322.366 65.7388 322.486 66.2788 322.726 67.1188C323.086 67.8388 323.266 68.3188 323.266 68.5588C323.506 68.9188 323.986 69.8788 324.706 71.4388C325.426 72.8788 325.906 73.7788 326.146 74.1388C326.386 74.6188 326.746 75.2188 327.226 75.9388C327.826 76.6588 328.126 77.1388 328.126 77.3788C328.486 77.6188 329.026 78.0988 329.746 78.8188C330.466 79.5388 331.246 80.3188 332.086 81.1588C332.926 81.9988 333.706 82.7788 334.426 83.4988C335.266 84.2188 335.866 84.6988 336.226 84.9388C336.226 85.1788 336.586 85.5388 337.306 86.0188C338.146 86.4988 338.746 86.8588 339.106 87.0988C339.586 87.3388 340.546 87.8188 341.986 88.5388C343.426 89.2588 344.386 89.6788 344.866 89.7988C344.986 89.7988 345.406 89.9788 346.126 90.3388C346.846 90.5788 347.326 90.6988 347.566 90.6988C348.166 90.9388 349.246 91.1788 350.806 91.4188C352.366 91.5388 353.326 91.7188 353.686 91.9588H356.386H359.446C359.806 91.7188 360.466 91.5388 361.426 91.4188C362.386 91.1788 363.046 90.9388 363.406 90.6988L364.306 89.7988V78.2788C364.426 77.9188 364.546 77.4988 364.666 77.0188C364.786 76.6588 364.906 76.3588 365.026 76.1188C365.146 75.7588 365.266 75.4588 365.386 75.2188C365.506 75.0988 365.566 74.9788 365.566 74.8588C365.566 74.6188 365.626 74.4388 365.746 74.3188C365.866 74.0788 365.986 73.7788 366.106 73.4188L370.966 68.5588C371.206 68.3188 371.806 67.9588 372.766 67.4788C373.846 66.9988 374.626 66.6388 375.106 66.3988H375.826H376.726C376.966 66.6388 377.386 66.9988 377.986 67.4788C378.586 67.9588 378.886 68.3188 378.886 68.5588C379.006 68.6788 379.126 69.3988 379.246 70.7188C379.486 72.0388 379.726 72.9388 379.966 73.4188V76.6588V80.0788C379.726 80.5588 379.486 81.3988 379.246 82.5988C379.126 83.7988 379.006 84.5788 378.886 84.9388C378.886 85.0588 378.766 85.4188 378.526 86.0188C378.286 86.4988 377.986 87.0388 377.626 87.6388C377.386 88.2388 377.086 88.8388 376.726 89.4388C376.366 90.0388 376.066 90.4588 375.826 90.6988C375.706 91.0588 375.406 91.6588 374.926 92.4988C374.446 93.2188 374.146 93.5788 374.026 93.5788C373.786 93.8188 373.306 94.2988 372.586 95.0188C371.986 95.6188 371.326 96.2788 370.606 96.9988C369.886 97.7188 369.166 98.4388 368.446 99.1588C367.846 99.7588 367.366 100.179 367.006 100.419C367.006 100.659 366.646 101.019 365.926 101.499C365.206 101.979 364.666 102.339 364.306 102.579C364.066 102.699 363.406 102.999 362.326 103.479C361.366 103.959 360.766 104.259 360.526 104.379C360.046 104.379 359.146 104.679 357.826 105.279C356.626 105.879 355.906 106.299 355.666 106.539C355.426 106.539 355.066 106.659 354.586 106.899C354.226 107.259 353.926 107.439 353.686 107.439C353.686 108.159 353.626 109.419 353.506 111.219C353.506 113.019 353.446 114.939 353.326 116.979C353.206 119.139 353.026 121.119 352.786 122.919C352.666 124.839 352.546 126.159 352.426 126.879C352.426 127.239 352.306 128.019 352.066 129.219C351.946 130.419 351.766 131.259 351.526 131.739C351.526 131.859 351.406 132.159 351.166 132.639C350.926 133.119 350.806 133.419 350.806 133.539C350.566 133.179 350.326 132.399 350.086 131.199C349.846 129.999 349.726 129.159 349.726 128.679C349.726 127.959 349.666 126.759 349.546 125.079C349.426 123.519 349.306 121.779 349.186 119.859C349.186 118.059 349.126 116.319 349.006 114.639C348.886 113.079 348.826 111.999 348.826 111.399ZM321.286 48.5788C321.526 48.5788 322.066 48.6388 322.906 48.7588C323.746 48.7588 324.646 48.8188 325.606 48.9388C326.566 48.9388 327.466 48.9988 328.306 49.1188C329.266 49.1188 329.926 49.1188 330.286 49.1188L331.726 49.4788C332.206 49.5988 332.626 49.7188 332.986 49.8388C333.826 50.0788 335.206 50.3188 337.126 50.5588C339.166 50.7988 340.486 50.9188 341.086 50.9188H354.046H363.406L367.006 49.8388C366.766 49.4788 366.046 48.6988 364.846 47.4988C363.646 46.2988 362.746 45.4588 362.146 44.9788C362.026 44.8588 361.666 44.6188 361.066 44.2588C360.466 43.8988 359.746 43.5388 358.906 43.1788C358.066 42.6988 357.226 42.2788 356.386 41.9188C355.666 41.5588 355.066 41.3188 354.586 41.1988C354.466 41.1988 354.106 41.1388 353.506 41.0188C353.026 40.7788 352.426 40.5388 351.706 40.2988C351.106 40.0588 350.506 39.8788 349.906 39.7588C349.426 39.5188 349.066 39.3988 348.826 39.3988C348.226 39.1588 347.326 38.8588 346.126 38.4988C344.926 38.1388 344.206 37.9588 343.966 37.9588H336.766H329.386C329.026 38.1988 328.366 38.6188 327.406 39.2188C326.446 39.8188 325.786 40.1188 325.426 40.1188L324.886 40.6588C324.766 40.7788 324.706 40.8988 324.706 41.0188C324.706 41.1388 324.646 41.1988 324.526 41.1988C324.286 41.4388 323.926 42.0988 323.446 43.1788C322.966 44.1388 322.606 44.7388 322.366 44.9788C322.246 45.2188 322.066 45.6988 321.826 46.4188C321.706 47.1388 321.526 47.5588 321.286 47.6788V48.5788ZM411.473 106.899C411.113 106.899 410.453 106.779 409.493 106.539C408.653 106.419 407.753 106.239 406.793 105.999C405.953 105.759 405.113 105.579 404.273 105.459C403.433 105.219 402.893 105.099 402.653 105.099C402.413 105.099 401.873 104.979 401.033 104.739C400.313 104.379 399.833 104.199 399.593 104.199C399.233 103.959 398.573 103.539 397.613 102.939C396.653 102.339 395.993 102.039 395.633 102.039C395.393 101.919 394.913 101.619 394.193 101.139C393.473 100.659 393.053 100.359 392.933 100.239C392.693 99.7588 392.033 99.0988 390.953 98.2588C389.993 97.2988 389.273 96.5788 388.793 96.0988C388.433 95.8588 388.133 95.4988 387.893 95.0188C387.413 94.2988 387.173 93.6988 387.173 93.2188C386.933 92.9788 386.633 92.5588 386.273 91.9588C386.033 91.3588 385.733 90.7588 385.373 90.1588C385.013 89.5588 384.713 89.0188 384.473 88.5388C384.233 87.9388 384.053 87.5788 383.933 87.4588C383.933 87.0988 383.813 86.3188 383.573 85.1188C383.333 83.9188 383.213 83.0788 383.213 82.5988V80.2588V77.7388C383.213 77.3788 383.333 76.5988 383.573 75.3988C383.813 74.1988 383.933 73.3588 383.933 72.8788C384.173 72.5188 384.353 71.9788 384.473 71.2588C384.713 70.4188 384.893 69.8788 385.013 69.6388C385.253 69.2788 385.733 68.3788 386.453 66.9388C387.293 65.3788 387.833 64.4188 388.073 64.0588C388.193 63.8188 388.493 63.3388 388.973 62.6188C389.453 61.7788 389.753 61.3588 389.873 61.3588C390.113 60.9988 390.533 60.5188 391.133 59.9188C391.853 59.1988 392.573 58.4788 393.293 57.7588C394.013 57.0388 394.673 56.3788 395.273 55.7788C395.993 55.1788 396.533 54.6988 396.893 54.3388C397.133 53.8588 397.733 53.3188 398.693 52.7188C399.653 51.9988 400.253 51.6388 400.493 51.6388C400.613 51.3988 401.033 51.0988 401.753 50.7388C402.473 50.3788 403.253 50.0188 404.093 49.6588C404.933 49.1788 405.713 48.7588 406.433 48.3988C407.273 48.0388 407.873 47.7388 408.233 47.4988C408.473 47.4988 408.953 47.3788 409.673 47.1388C410.513 46.8988 411.113 46.7788 411.473 46.7788C411.713 46.6588 412.013 46.5388 412.373 46.4188C412.853 46.2988 413.273 46.1188 413.633 45.8788C414.113 45.6388 414.593 45.4588 415.073 45.3388H422.273H429.653C429.773 45.3388 430.133 45.3988 430.733 45.5188C431.333 45.6388 431.993 45.7588 432.713 45.8788C433.433 45.9988 434.033 46.1788 434.513 46.4188C435.113 46.5388 435.533 46.6588 435.773 46.7788C436.013 46.7788 436.493 46.7188 437.213 46.5988C437.933 46.3588 438.353 46.2388 438.473 46.2388V17.6188C438.473 17.1388 438.593 16.1788 438.833 14.7388C439.193 13.1788 439.373 12.0388 439.373 11.3188C439.613 10.9588 439.973 10.3588 440.453 9.51878C440.933 8.55877 441.293 8.01877 441.533 7.89878C441.653 7.41878 442.373 6.57878 443.693 5.37878C445.013 4.17878 445.913 3.39878 446.393 3.03877C446.393 2.79878 446.633 2.55878 447.113 2.31877C447.713 2.07878 448.073 1.83878 448.193 1.59877C448.433 1.59877 449.033 1.47877 449.993 1.23878C450.473 1.11878 450.893 0.998776 451.253 0.87877C451.373 0.87877 451.673 0.998772 452.153 1.23878C452.753 1.35877 453.053 1.47877 453.053 1.59877C453.053 2.79877 453.113 5.01877 453.233 8.25877C453.353 11.3788 453.413 14.7388 453.413 18.3388C453.533 21.8188 453.653 25.1788 453.773 28.4188C453.893 31.5388 453.953 33.6988 453.953 34.8988C454.073 35.4988 454.193 36.5788 454.313 38.1388C454.433 39.5788 454.493 41.1388 454.493 42.8188C454.613 44.3788 454.733 45.8788 454.853 47.3188C454.973 48.7588 455.093 49.7188 455.213 50.1988C455.213 50.7988 455.273 51.8788 455.393 53.4388C455.633 54.9988 455.873 56.7388 456.113 58.6588C456.353 60.5788 456.533 62.4388 456.653 64.2388C456.893 65.9188 457.073 67.1788 457.193 68.0188C457.193 68.7388 457.313 69.8188 457.553 71.2588C457.793 72.6988 457.913 73.5388 457.913 73.7788C457.913 74.0188 458.213 74.4988 458.813 75.2188C459.413 75.9388 459.833 76.4188 460.073 76.6588C460.073 76.8988 460.193 77.3788 460.433 78.0988C460.793 78.8188 460.973 79.2388 460.973 79.3588C461.093 80.0788 461.273 81.2188 461.513 82.7788C461.873 84.2188 462.053 85.1788 462.053 85.6588V89.6188V93.2188C462.053 93.4588 461.873 93.9388 461.513 94.6588C461.273 95.3788 461.093 95.8588 460.973 96.0988C460.973 96.3388 460.673 96.8188 460.073 97.5388C459.473 98.2588 459.053 98.6788 458.813 98.7988C458.813 99.2788 458.393 99.9388 457.553 100.779C456.713 101.499 456.233 101.919 456.113 102.039C455.753 102.279 455.333 102.579 454.853 102.939C453.893 103.659 453.293 104.079 453.053 104.199C452.933 104.199 452.633 104.379 452.153 104.739C451.673 104.979 451.373 105.099 451.253 105.099H450.353H449.093C448.973 105.099 448.673 104.979 448.193 104.739C447.953 104.619 447.713 104.439 447.473 104.199C447.233 103.959 446.993 103.479 446.753 102.759C446.633 102.039 446.513 101.439 446.393 100.959C446.393 100.719 446.213 100.119 445.853 99.1588C445.613 98.0788 445.493 97.4188 445.493 97.1788C445.373 96.9388 445.193 96.3388 444.953 95.3788C444.833 94.4188 444.653 93.3988 444.413 92.3188C444.173 91.2388 443.933 90.2188 443.693 89.2588C443.573 88.2988 443.453 87.6988 443.333 87.4588C443.333 87.3388 443.213 87.0388 442.973 86.5588C442.733 86.0788 442.613 85.7788 442.613 85.6588C442.373 85.7788 441.833 86.3788 440.993 87.4588C440.273 88.4188 439.733 88.9588 439.373 89.0788C438.893 89.7988 438.233 90.8188 437.393 92.1388C436.553 93.3388 436.013 93.9388 435.773 93.9388C435.533 94.1788 435.173 94.5988 434.693 95.1988C434.213 95.7988 433.853 96.0988 433.613 96.0988C433.493 96.3388 432.893 96.8188 431.813 97.5388C430.733 98.2588 430.013 98.6788 429.653 98.7988C429.413 99.0388 428.933 99.4588 428.213 100.059C427.493 100.659 427.073 100.959 426.953 100.959C426.713 101.079 426.233 101.319 425.513 101.679C424.793 102.039 424.013 102.459 423.173 102.939C422.453 103.299 421.733 103.719 421.013 104.199C420.413 104.559 420.053 104.859 419.933 105.099C419.813 105.339 419.693 105.819 419.573 106.539C419.453 107.259 419.333 108.039 419.213 108.879C419.213 109.719 419.153 110.499 419.033 111.219C419.033 111.939 419.033 112.419 419.033 112.659C419.033 112.899 418.913 113.259 418.673 113.739C418.433 114.219 418.313 114.579 418.313 114.819C418.073 114.579 417.833 114.219 417.593 113.739C417.353 113.259 417.233 112.899 417.233 112.659C416.993 112.179 416.693 111.219 416.333 109.779C415.973 108.339 415.793 107.379 415.793 106.899V129.579H414.893C414.653 129.579 414.413 129.519 414.173 129.399C414.053 129.399 413.873 129.099 413.633 128.499C413.513 127.899 413.453 127.479 413.453 127.239C413.213 126.759 412.973 125.799 412.733 124.359C412.493 122.919 412.373 121.959 412.373 121.479C412.373 120.879 412.313 119.859 412.193 118.419C412.073 117.099 411.953 115.659 411.833 114.099C411.833 112.539 411.773 111.099 411.653 109.779C411.533 108.459 411.473 107.499 411.473 106.899ZM398.513 75.9388C398.753 76.2988 399.233 77.2588 399.953 78.8188C400.793 80.2588 401.393 81.1588 401.753 81.5188C401.993 81.9988 402.833 82.9588 404.273 84.3988C405.713 85.8388 406.793 86.8588 407.513 87.4588C407.633 87.4588 408.173 87.6988 409.133 88.1788C410.093 88.6588 410.873 88.9588 411.473 89.0788C411.713 89.3188 412.193 89.6188 412.913 89.9788C413.633 90.3388 414.053 90.5188 414.173 90.5188H419.573H423.893C424.133 90.5188 424.733 90.2188 425.693 89.6188C426.773 89.0188 427.553 88.5988 428.033 88.3588C428.273 88.1188 428.573 87.8188 428.933 87.4588C429.413 86.9788 429.653 86.6188 429.653 86.3788C429.773 86.2588 430.013 85.8388 430.373 85.1188C430.853 84.3988 431.273 83.6788 431.633 82.9588C431.993 82.1188 432.353 81.2788 432.713 80.4388C433.073 79.5988 433.373 78.9988 433.613 78.6388C433.613 78.3988 433.733 77.9188 433.973 77.1988C434.333 76.4788 434.513 76.0588 434.513 75.9388C434.633 75.4588 434.813 74.7988 435.053 73.9588C435.413 72.9988 435.653 72.1588 435.773 71.4388C436.013 70.5988 436.193 69.8788 436.313 69.2788C436.553 68.5588 436.673 68.1388 436.673 68.0188C436.673 67.6588 436.673 66.9388 436.673 65.8588C436.793 64.6588 436.853 63.9388 436.853 63.6988C436.493 63.6988 435.533 63.6388 433.973 63.5188C432.413 63.2788 431.393 63.1588 430.913 63.1588C430.673 63.1588 430.193 63.0388 429.473 62.7988C428.753 62.5588 427.913 62.3788 426.953 62.2588C426.113 62.0188 425.273 61.8388 424.433 61.7188C423.713 61.4788 423.293 61.3588 423.173 61.3588C422.933 61.3588 422.273 61.2988 421.193 61.1788C420.233 60.9388 419.513 60.8188 419.033 60.8188C418.673 60.8188 418.013 60.9388 417.053 61.1788C416.093 61.2988 415.433 61.3588 415.073 61.3588C415.073 61.4788 414.953 61.8988 414.713 62.6188C414.593 63.3388 414.413 63.8188 414.173 64.0588H413.993H413.453C413.213 63.8188 412.973 63.5188 412.733 63.1588C412.493 62.6788 412.373 62.3188 412.373 62.0788C412.373 62.0788 412.193 61.8988 411.833 61.5388C411.713 61.4188 411.593 61.3588 411.473 61.3588C411.233 61.3588 410.753 61.2988 410.033 61.1788C409.313 60.9388 408.713 60.8188 408.233 60.8188C407.873 60.8188 407.333 60.9388 406.613 61.1788C406.013 61.2988 405.593 61.3588 405.353 61.3588C405.113 61.3588 404.573 61.5988 403.733 62.0788C402.893 62.4388 402.233 62.7988 401.753 63.1588C401.513 63.1588 401.153 63.3988 400.673 63.8788C400.193 64.3588 399.833 64.6588 399.593 64.7788C399.353 65.2588 399.173 65.6788 399.053 66.0388C398.933 66.3988 398.753 66.6988 398.513 66.9388V71.7988V75.9388Z" fill="white"/>
</svg>
