<svg width="132" height="480" viewBox="0 0 132 480" fill="none" xmlns="http://www.w3.org/2000/svg">
<g opacity="0.5">
<path d="M41.6465 284.299C37.9833 319.447 30.4118 366.726 -4.13525 406.371C-13.6918 417.339 -35.4354 420.804 -47.7767 421.847C-74.6984 424.11 -80.9467 396.491 -86.7679 373.038C-91.3864 354.434 -99.7448 334.081 -116.742 332.822C-129.143 331.902 -141.496 341.684 -153.566 348.622C-169.108 357.553 -187.449 362.039 -200.704 353.424C-217.36 342.602 -220.107 314.691 -213.854 290.777C-207.596 266.866 -194.411 245.25 -183.866 222.768C-168.78 190.622 -158.846 156.052 -142.383 124.658C-125.925 93.2661 -100.354 63.9236 -70.9386 58.1755C-47.7802 53.6567 -26.022 64.8489 -11.3305 82.796C3.35731 100.749 11.8536 124.816 18.2008 149.424C24.6472 174.398 21.672 201.732 27.4699 222.508C31.4454 236.75 44.2217 259.589 41.6465 284.299Z" fill="url(#paint0_linear_4_3825)" fill-opacity="0.8"/>
<path d="M12.6855 192.74C6.96108 223.036 10.7448 254.335 23.0711 282.598C44.6259 332.018 40.095 375.702 33.8496 407.385C30.3086 422.346 3.69899 434.854 -4.06611 440.803C-31.3182 461.659 -67.9387 467.971 -101.814 462.469C-135.689 456.965 -167.03 440.574 -194.517 420.034C-215.993 403.97 -235.876 384.737 -247.643 360.642C-259.14 337.102 -262.206 310.455 -264.584 284.359C-267.644 250.798 -269.817 216.575 -262.427 183.688C-256.41 156.872 -240.169 128.426 -213.09 123.716C-190.006 119.709 -166.611 134.456 -143.599 130.056C-111.373 123.888 -105.765 32.1078 -76.6043 17.0559C-42.601 -0.50555 5.16513 67.2725 14.2237 91.6686C23.6673 117.101 19.0288 159.164 12.6855 192.74Z" fill="url(#paint1_linear_4_3825)" fill-opacity="0.7"/>
</g>
<defs>
<linearGradient id="paint0_linear_4_3825" x1="52.0291" y1="131.732" x2="-86.569" y2="404.232" gradientUnits="userSpaceOnUse">
<stop stop-color="#0B6547"/>
<stop offset="1" stop-color="#61ADAD"/>
</linearGradient>
<linearGradient id="paint1_linear_4_3825" x1="-37.7041" y1="58.6252" x2="41.8401" y2="413.8" gradientUnits="userSpaceOnUse">
<stop stop-color="#0B6547"/>
<stop offset="1" stop-color="#61ADAD"/>
</linearGradient>
</defs>
</svg>
